<svg width="24" height="24" fill="none" xmlns="http://www.w3.org/2000/svg"><path d="M19.975 14.95l-3.721-3.72a5.67 5.67 0 00.115-1.155 6.335 6.335 0 00-2.922-5.334 6.307 6.307 0 00-6.06-.399.823.823 0 00-.442 1.002c.04.126.11.24.203.334l3.582 3.58-1.482 1.485-3.573-3.588a.823.823 0 00-.725-.223.823.823 0 00-.609.462 6.337 6.337 0 002.713 8.234 6.304 6.304 0 004.203.65l3.713 3.728a.824.824 0 001.349-.268.826.826 0 00-.18-.903l-4.034-4.042a.823.823 0 00-.783-.214 4.83 4.83 0 01-1.218.164 4.66 4.66 0 01-3.324-1.352 4.677 4.677 0 01-1.385-3.316 4.958 4.958 0 01.066-.825l3.227 3.242a.824.824 0 001.169 0l2.618-2.648a.826.826 0 000-1.147L9.272 5.464a4.95 4.95 0 01.824-.066 4.663 4.663 0 013.295 1.373 4.681 4.681 0 011.364 3.304 4.857 4.857 0 01-.164 1.22.826.826 0 00.214.784l4.034 4.042a.826.826 0 001.411-.586.83.83 0 00-.242-.585h-.033z" fill="#21395A"/></svg>