<svg width="29" height="29" fill="none" xmlns="http://www.w3.org/2000/svg"><path d="M14.5 6.042c4.664 0 8.458 3.794 8.458 8.458s-3.794 8.458-8.458 8.458-8.458-3.794-8.458-8.458S9.836 6.042 14.5 6.042zm0-2.417a10.876 10.876 0 10.001 21.752A10.876 10.876 0 0014.5 3.625zm-8.966 1.91L4.23 4.228a14.884 14.884 0 00-3.19 4.895l1.74.544a12.965 12.965 0 012.754-4.133zM2.066 17.037a12.552 12.552 0 01-.253-2.538c0-.87.084-1.716.253-2.537L.332 11.43C.118 12.42 0 13.449 0 14.5c0 1.051.118 2.078.332 3.07l1.734-.532zm25.895-7.915a14.904 14.904 0 00-3.19-4.894l-1.305 1.305a12.965 12.965 0 012.755 4.133l1.74-.544zM1.04 19.877a14.518 14.518 0 003.188 4.894l1.305-1.305a12.965 12.965 0 01-2.755-4.133l-1.739.544zm22.425 3.589l1.305 1.305a14.537 14.537 0 003.19-4.894l-1.74-.544a12.964 12.964 0 01-2.755 4.133zm3.468-11.504c.169.822.253 1.668.253 2.538 0 .87-.084 1.716-.253 2.538l1.74.531c.205-.99.326-2.018.326-3.069 0-1.051-.12-2.078-.326-3.07l-1.74.533z" fill="#21395A"/></svg>