<svg width="32" height="32" fill="none" xmlns="http://www.w3.org/2000/svg"><path d="M26.633 19.933l-4.961-4.96a7.548 7.548 0 00.153-1.54 8.449 8.449 0 00-3.895-7.112 8.409 8.409 0 00-8.08-.531 1.098 1.098 0 00-.59 1.335 1.1 1.1 0 00.271.446l4.775 4.773-1.976 1.98L7.566 9.54a1.097 1.097 0 00-.966-.297 1.097 1.097 0 00-.812.616 8.45 8.45 0 00.545 8.119 8.425 8.425 0 007.139 3.88 7.512 7.512 0 001.537-.154l4.95 4.97a1.098 1.098 0 001.8-.357 1.102 1.102 0 00-.241-1.204l-5.379-5.389a1.097 1.097 0 00-1.042-.286 6.442 6.442 0 01-1.625.22 6.213 6.213 0 01-4.433-1.803 6.236 6.236 0 01-1.846-4.422 6.611 6.611 0 01.088-1.1l4.303 4.323a1.099 1.099 0 001.559 0l3.49-3.53a1.1 1.1 0 000-1.53l-4.27-4.31c.363-.06.73-.09 1.098-.089a6.218 6.218 0 014.394 1.83 6.242 6.242 0 011.819 4.406 6.478 6.478 0 01-.22 1.628 1.102 1.102 0 00.286 1.045l5.379 5.389A1.101 1.101 0 0027 20.714c0-.293-.116-.574-.323-.781h-.044z" fill="#21395A"/></svg>