<svg width="23" height="23" fill="none" xmlns="http://www.w3.org/2000/svg"><path d="M11.5 4.792c3.7 0 6.708 3.009 6.708 6.708 0 3.7-3.009 6.708-6.708 6.708A6.715 6.715 0 014.792 11.5c0-3.7 3.009-6.708 6.708-6.708zm0-1.917a8.625 8.625 0 10.001 17.25 8.625 8.625 0 00-.001-17.25zM4.39 4.389L3.353 3.354A11.805 11.805 0 00.825 7.235l1.38.432a10.283 10.283 0 012.184-3.278zm-2.751 9.123a9.955 9.955 0 01-.202-2.012c0-.69.068-1.36.202-2.012L.264 9.066C.094 9.852 0 10.666 0 11.5c0 .834.094 1.648.264 2.434l1.375-.421zm20.537-6.277a11.822 11.822 0 00-2.53-3.88L18.61 4.388c.93.94 1.667 2.041 2.185 3.278l1.38-.432zm-21.35 8.53a11.515 11.515 0 002.528 3.88l1.035-1.034a10.283 10.283 0 01-2.185-3.278l-1.379.432zM18.61 18.61l1.035 1.035a11.531 11.531 0 002.53-3.881l-1.38-.432a10.282 10.282 0 01-2.185 3.278zm2.75-9.123c.134.651.201 1.322.201 2.012s-.067 1.36-.2 2.012l1.38.422c.162-.786.258-1.6.258-2.434 0-.834-.096-1.648-.259-2.434l-1.38.421z" fill="#21395A"/></svg>