<svg xmlns="http://www.w3.org/2000/svg" width="20" height="20"><path d="M4.066 4.043L2.773 2.262C1.785 3.148 1.06 4.297.602 5.715l2.011.652c.336-.926.82-1.699 1.453-2.324zm11.055-3.035l.043-.063c-1.09-.48-2.367-.773-3.832-.882v2.07a9.939 9.939 0 012.023.394c.274-.547 1.04-1.375 1.766-1.52zM2.055 9.992c0-.387.02-.758.05-1.117L.098 8.223a15.973 15.973 0 00.03 3.789l2-.649c-.042-.437-.073-.89-.073-1.37zm6.738-7.875V.047C7.316.145 6.035.434 4.93.902l1.3 1.785a9.293 9.293 0 012.563-.57zm7.098 13.856l1.285 1.77c.953-.856 1.676-1.938 2.14-3.278l-2.011-.656a5.954 5.954 0 01-1.414 2.164zm4.082-6.54c-.578.145-1.493.176-2.055.18.004.13.016.25.016.38 0 .464-.032.902-.07 1.323l2.007.657a15.95 15.95 0 00.117-1.977c0-.195-.011-.375-.015-.562zm-19.29 5.07c.481 1.364 1.212 2.477 2.204 3.329l1.285-1.773c-.633-.59-1.117-1.336-1.465-2.211zM18.154 3.77c-.153-.122-.954-.438-1.477-.11 0 0-.465.434-1.156 1.117l-.243.336-.054-.039c-.57.57-1.258 1.27-1.953 2.024-1.157 1.246-2.329 2.785-3.18 3.96L8.484 8.77c-.273-.723-.863-1.09-1.59-.82-.726.273-.769 1.132-.496 1.855l2.13 4.402.003.012a1.406 1.406 0 002.371.535s2.086-3.54 4.32-5.945c1.641-1.774 3.071-3.633 3.071-3.633.371-.617.023-1.27-.14-1.406zm-6.821 14.085v2.07c1.402-.1 2.617-.394 3.676-.84l-1.285-1.769a9.33 9.33 0 01-2.391.54zm-6.258 1.29c1.07.437 2.305.703 3.719.796v-2.07a9.618 9.618 0 01-2.422-.508zm0 0" fill="#4d8a07" id="surface1"/></svg>