<svg xmlns="http://www.w3.org/2000/svg" width="24" height="24"><path d="M12.996 2.027v2.024a7.991 7.991 0 016.961 8.922c-.457 3.632-3.316 6.527-6.96 6.96v1.993a9.965 9.965 0 008.952-10.922c-.445-4.758-4.219-8.508-8.953-8.977m-1.992.032a9.824 9.824 0 00-5.332 2.203l1.43 1.48a8.021 8.021 0 013.902-1.683v-2M4.262 5.672C3 7.192 2.25 9.043 2.05 11.004h2a8.021 8.021 0 011.64-3.902l-1.43-1.43m-2.2 7.324a10.05 10.05 0 002.21 5.332l1.422-1.43a8.01 8.01 0 01-1.632-3.902h-2m5.043 5.375l-1.43 1.367a9.934 9.934 0 005.332 2.258v-1.992a8.047 8.047 0 01-3.902-1.633M14.59 8.004L12 10.59 9.41 8.004 8.004 9.41 10.59 12l-2.586 2.59 1.406 1.406L12 13.41l2.59 2.586 1.406-1.406L13.41 12l2.586-2.59zm0 0" fill="#d1352f" id="surface1"/></svg>