<svg width="48" height="48" fill="none" xmlns="http://www.w3.org/2000/svg"><path d="M0 4.324A4.324 4.324 0 014.324 0h39.352A4.324 4.324 0 0148 4.324v39.352A4.324 4.324 0 0143.676 48H4.324A4.324 4.324 0 010 43.676V4.324z" fill="#3B373A"/><path fill-rule="evenodd" clip-rule="evenodd" d="M43.676.432H4.324A3.892 3.892 0 00.432 4.324v39.352a3.892 3.892 0 003.892 3.892h39.352a3.892 3.892 0 003.892-3.892V4.324A3.892 3.892 0 0043.676.432zM4.324 0A4.324 4.324 0 000 4.324v39.352A4.324 4.324 0 004.324 48h39.352A4.324 4.324 0 0048 43.676V4.324A4.324 4.324 0 0043.676 0H4.324z" fill="#3B373A"/><path d="M2.162 6.055A4.324 4.324 0 016.486 1.73h35.46a4.324 4.324 0 014.324 4.325v35.46a4.324 4.324 0 01-4.324 4.324H6.486a4.324 4.324 0 01-4.324-4.325V6.054z" fill="#fff"/><path fill-rule="evenodd" clip-rule="evenodd" d="M41.946 2.163H6.486a3.892 3.892 0 00-3.891 3.892v35.46a3.892 3.892 0 003.891 3.891h35.46a3.892 3.892 0 003.892-3.892V6.054a3.892 3.892 0 00-3.892-3.891zM6.486 1.73a4.324 4.324 0 00-4.324 4.325v35.46a4.324 4.324 0 004.324 4.324h35.46a4.324 4.324 0 004.324-4.325V6.054a4.324 4.324 0 00-4.324-4.324H6.486z" fill="#3B373A"/><path d="M41.946 23.784c0 9.792-7.938 17.73-17.73 17.73-9.792 0-17.73-7.938-17.73-17.73 0-9.791 7.938-17.73 17.73-17.73 9.792 0 17.73 7.939 17.73 17.73z" fill="#3B373A"/><path fill-rule="evenodd" clip-rule="evenodd" d="M24.216 41.082c9.553 0 17.297-7.745 17.297-17.298 0-9.553-7.744-17.297-17.297-17.297S6.92 14.231 6.92 23.784s7.744 17.298 17.297 17.298zm0 .432c9.792 0 17.73-7.938 17.73-17.73 0-9.791-7.938-17.73-17.73-17.73-9.792 0-17.73 7.939-17.73 17.73 0 9.792 7.938 17.73 17.73 17.73z" fill="#3B373A"/><path d="M39.784 23.784c0 8.598-6.97 15.568-15.568 15.568-8.598 0-15.568-6.97-15.568-15.568 0-8.597 6.97-15.567 15.568-15.567 8.598 0 15.568 6.97 15.568 15.567z" fill="#fff"/><path fill-rule="evenodd" clip-rule="evenodd" d="M24.216 38.92c8.359 0 15.135-6.777 15.135-15.136 0-8.358-6.776-15.135-15.135-15.135S9.081 15.426 9.081 23.784c0 8.36 6.776 15.136 15.135 15.136zm0 .432c8.598 0 15.568-6.97 15.568-15.568 0-8.597-6.97-15.567-15.568-15.567-8.598 0-15.568 6.97-15.568 15.567 0 8.598 6.97 15.568 15.568 15.568z" fill="#3B373A"/><path d="M34.595 23.785c0 5.731-4.647 10.378-10.379 10.378-5.732 0-10.378-4.647-10.378-10.378 0-5.732 4.646-10.379 10.378-10.379s10.379 4.647 10.379 10.379z" fill="#fff"/><path fill-rule="evenodd" clip-rule="evenodd" d="M24.216 33.73c5.493 0 9.946-4.452 9.946-9.945s-4.453-9.946-9.946-9.946c-5.493 0-9.946 4.453-9.946 9.946 0 5.493 4.453 9.946 9.946 9.946zm0 .433c5.732 0 10.379-4.647 10.379-10.378 0-5.732-4.647-10.379-10.379-10.379-5.732 0-10.378 4.647-10.378 10.379 0 5.731 4.646 10.378 10.378 10.378z" fill="#3B373A"/><path d="M33.297 23.784a9.081 9.081 0 11-18.162 0 9.081 9.081 0 0118.162 0z" fill="#fff"/><path fill-rule="evenodd" clip-rule="evenodd" d="M24.216 32.433a8.649 8.649 0 100-17.297 8.649 8.649 0 000 17.297zm0 .432a9.081 9.081 0 100-18.162 9.081 9.081 0 000 18.162z" fill="#3B373A"/><path d="M28.973 23.784a4.757 4.757 0 11-9.514 0 4.757 4.757 0 019.514 0z" fill="#3B373A"/><path fill-rule="evenodd" clip-rule="evenodd" d="M24.216 28.108a4.324 4.324 0 100-8.648 4.324 4.324 0 000 8.648zm0 .433a4.757 4.757 0 100-9.514 4.757 4.757 0 000 9.514z" fill="#3B373A"/><path d="M26.81 23.784a2.595 2.595 0 11-5.188 0 2.595 2.595 0 015.189 0z" fill="#fff"/><path fill-rule="evenodd" clip-rule="evenodd" d="M24.216 25.946a2.162 2.162 0 100-4.324 2.162 2.162 0 000 4.324zm0 .433a2.595 2.595 0 100-5.19 2.595 2.595 0 000 5.19z" fill="#3B373A"/><path d="M42.81 7.136a1.081 1.081 0 11-2.162 0 1.081 1.081 0 012.163 0zm-8.215 7.351a1.081 1.081 0 11-2.162 0 1.081 1.081 0 012.162 0zm-18.595 0a1.081 1.081 0 11-2.162 0 1.081 1.081 0 012.162 0zm18.595 19.026a1.081 1.081 0 11-2.162 0 1.081 1.081 0 012.162 0zm-18.595 0a1.081 1.081 0 11-2.162 0 1.081 1.081 0 012.162 0zM7.784 7.136a1.081 1.081 0 11-2.162 0 1.081 1.081 0 012.162 0zm4.324-2.162a1.081 1.081 0 11-2.162 0 1.081 1.081 0 012.162 0zm26.378 0a1.081 1.081 0 11-2.162 0 1.081 1.081 0 012.162 0zm5.622 7.349a1.081 1.081 0 11-2.162 0 1.081 1.081 0 012.162 0zm-37.622 0a1.081 1.081 0 11-2.162 0 1.081 1.081 0 012.162 0zm36.324 28.11a1.081 1.081 0 10-2.162 0 1.081 1.081 0 002.163 0zm-35.026 0a1.081 1.081 0 10-2.162 0 1.081 1.081 0 002.162 0zm4.324 2.162a1.081 1.081 0 10-2.162 0 1.081 1.081 0 002.162 0zm26.378 0a1.081 1.081 0 10-2.162 0 1.081 1.081 0 002.162 0zm5.622-7.352a1.081 1.081 0 10-2.162 0 1.081 1.081 0 002.162 0zm-37.622 0a1.081 1.081 0 10-2.162 0 1.081 1.081 0 002.162 0zM24.34 9.1c1.08-.042 3.47.292 4.775.974l-1.356 3.436c-1.49-.688-2.41-.77-3.707-.72-.648.025-1.944.076-3.004.558l-1.003-3.43c2.135-.733 3.215-.775 4.296-.818zm0 29.304c1.08.042 3.47-.292 4.775-.974l-1.356-3.436c-1.49.687-2.41.77-3.707.72-.648-.026-1.944-.076-3.004-.558l-1.003 3.43c2.135.733 3.215.775 4.296.818zM38.784 23.17c.103 1.076-.095 3.48-.702 4.82l-3.508-1.159c.603-1.526.634-2.45.51-3.741-.062-.646-.186-1.937-.727-2.968l3.368-1.195c.853 2.09.956 3.166 1.06 4.242zm-29.166.045c-.083 1.078.162 3.479.795 4.807l3.485-1.226c-.632-1.515-.681-2.438-.582-3.732.05-.646.148-1.94.669-2.981l-3.39-1.13c-.812 2.106-.895 3.184-.977 4.262z" fill="#3B373A"/></svg>