<svg width="30" height="30" fill="none" xmlns="http://www.w3.org/2000/svg"><path d="M0 2.703A2.703 2.703 0 012.703 0h24.594A2.703 2.703 0 0130 2.703v24.594A2.703 2.703 0 0127.297 30H2.703A2.703 2.703 0 010 27.297V2.703z" fill="#3B373A"/><path fill-rule="evenodd" clip-rule="evenodd" d="M27.297.27H2.703A2.432 2.432 0 00.27 2.703v24.594a2.432 2.432 0 002.433 2.433h24.594a2.432 2.432 0 002.433-2.433V2.703A2.432 2.432 0 0027.297.27zM2.703 0A2.703 2.703 0 000 2.703v24.594A2.703 2.703 0 002.703 30h24.594A2.703 2.703 0 0030 27.297V2.703A2.703 2.703 0 0027.297 0H2.703z" fill="#3B373A"/><path d="M1.352 3.785a2.703 2.703 0 012.702-2.703h22.162a2.703 2.703 0 012.703 2.703v22.162a2.703 2.703 0 01-2.703 2.703H4.054a2.703 2.703 0 01-2.702-2.703V3.785z" fill="#fff"/><path fill-rule="evenodd" clip-rule="evenodd" d="M26.216 1.352H4.054a2.432 2.432 0 00-2.432 2.433v22.162a2.432 2.432 0 002.432 2.432h22.162a2.432 2.432 0 002.433-2.432V3.785a2.432 2.432 0 00-2.433-2.433zm-22.162-.27a2.703 2.703 0 00-2.702 2.703v22.162a2.703 2.703 0 002.702 2.703h22.162a2.703 2.703 0 002.703-2.703V3.785a2.703 2.703 0 00-2.703-2.703H4.054z" fill="#3B373A"/><path d="M26.216 14.864c0 6.12-4.96 11.081-11.08 11.081s-11.082-4.96-11.082-11.08S9.015 3.782 15.135 3.782c6.12 0 11.081 4.961 11.081 11.081z" fill="#3B373A"/><path fill-rule="evenodd" clip-rule="evenodd" d="M15.135 25.675c5.97 0 10.811-4.84 10.811-10.81 0-5.971-4.84-10.812-10.81-10.812-5.971 0-10.812 4.84-10.812 10.811 0 5.97 4.84 10.811 10.811 10.811zm0 .27c6.12 0 11.081-4.96 11.081-11.08s-4.96-11.082-11.08-11.082S4.053 8.744 4.053 14.864c0 6.12 4.961 11.081 11.081 11.081z" fill="#3B373A"/><path d="M24.865 14.864a9.73 9.73 0 01-9.73 9.73 9.73 9.73 0 01-9.73-9.73c0-5.373 4.356-9.73 9.73-9.73 5.374 0 9.73 4.357 9.73 9.73z" fill="#fff"/><path fill-rule="evenodd" clip-rule="evenodd" d="M15.135 24.324a9.46 9.46 0 100-18.92 9.46 9.46 0 000 18.92zm0 .27a9.73 9.73 0 009.73-9.73c0-5.373-4.356-9.73-9.73-9.73-5.374 0-9.73 4.357-9.73 9.73a9.73 9.73 0 009.73 9.73z" fill="#3B373A"/><path d="M21.621 14.865a6.486 6.486 0 11-12.973 0 6.486 6.486 0 0112.973 0z" fill="#fff"/><path fill-rule="evenodd" clip-rule="evenodd" d="M15.135 21.082a6.216 6.216 0 100-12.433 6.216 6.216 0 000 12.433zm0 .27a6.486 6.486 0 100-12.973 6.486 6.486 0 000 12.973z" fill="#3B373A"/><path d="M20.81 14.865a5.676 5.676 0 11-11.35 0 5.676 5.676 0 0111.35 0z" fill="#fff"/><path fill-rule="evenodd" clip-rule="evenodd" d="M15.135 20.27a5.405 5.405 0 100-10.81 5.405 5.405 0 000 10.81zm0 .27a5.676 5.676 0 100-11.35 5.676 5.676 0 000 11.35z" fill="#3B373A"/><path d="M18.108 14.866a2.973 2.973 0 11-5.946 0 2.973 2.973 0 015.946 0z" fill="#3B373A"/><path fill-rule="evenodd" clip-rule="evenodd" d="M15.135 17.568a2.703 2.703 0 100-5.405 2.703 2.703 0 000 5.405zm0 .27a2.973 2.973 0 100-5.945 2.973 2.973 0 000 5.945z" fill="#3B373A"/><path d="M16.757 14.866a1.622 1.622 0 11-3.243 0 1.622 1.622 0 013.243 0z" fill="#fff"/><path fill-rule="evenodd" clip-rule="evenodd" d="M15.135 16.217a1.351 1.351 0 100-2.703 1.351 1.351 0 000 2.703zm0 .27a1.622 1.622 0 100-3.243 1.622 1.622 0 000 3.243z" fill="#3B373A"/><path d="M26.757 4.459a.676.676 0 11-1.352 0 .676.676 0 011.352 0zm-5.135 4.596a.676.676 0 11-1.352 0 .676.676 0 011.352 0zM10 9.055a.676.676 0 11-1.352 0 .676.676 0 011.352 0zm11.622 11.89a.676.676 0 11-1.352 0 .676.676 0 011.352 0zm-11.622 0a.676.676 0 11-1.352 0 .676.676 0 011.352 0zM4.865 4.459a.676.676 0 11-1.351 0 .676.676 0 011.351 0zm2.703-1.352a.676.676 0 11-1.352 0 .676.676 0 011.352 0zm16.486 0a.676.676 0 11-1.351 0 .676.676 0 011.351 0zm3.514 4.596a.676.676 0 11-1.352 0 .676.676 0 011.352 0zm-23.514 0a.676.676 0 11-1.351 0 .676.676 0 011.351 0zM26.757 25.27a.676.676 0 10-1.352 0 .676.676 0 001.352 0zm-21.892 0a.676.676 0 10-1.351 0 .676.676 0 001.351 0zm2.703 1.351a.676.676 0 10-1.352 0 .676.676 0 001.352 0zm16.486 0a.676.676 0 10-1.351 0 .676.676 0 001.351 0zm3.514-4.594a.676.676 0 10-1.352 0 .676.676 0 001.352 0zm-23.514 0a.676.676 0 10-1.351 0 .676.676 0 001.351 0zM15.213 5.688c.675-.026 2.168.183 2.983.609l-.847 2.148c-.93-.43-1.506-.482-2.316-.45-.406.015-1.216.047-1.878.348L12.528 6.2c1.334-.458 2.01-.484 2.685-.51zm0 18.313c.675.027 2.168-.182 2.983-.608l-.847-2.148c-.93.43-1.506.482-2.316.45-.406-.016-1.216-.048-1.878-.349l-.627 2.144c1.334.458 2.01.485 2.685.511zm9.027-9.521c.065.673-.06 2.176-.44 3.014l-2.191-.724c.376-.954.396-1.532.318-2.339-.038-.403-.116-1.21-.454-1.855l2.105-.747c.533 1.306.598 1.98.662 2.652zm-18.229.028c-.051.674.102 2.175.497 3.005l2.178-.767c-.395-.946-.425-1.523-.363-2.332.03-.404.092-1.212.418-1.863l-2.12-.706c-.507 1.316-.558 1.99-.61 2.663z" fill="#3B373A"/></svg>