<svg width="35" height="35" fill="none" xmlns="http://www.w3.org/2000/svg"><path d="M2.917 27.708h2.916a5.833 5.833 0 1111.667 0h2.916a8.75 8.75 0 00-17.5 0zm2.916-16.041a5.833 5.833 0 1111.667 0 5.833 5.833 0 01-11.667 0zm2.92-.043a2.917 2.917 0 005.83.174v-.131a2.917 2.917 0 00-5.83-.043zm17.991 10.251c-.33-.29-.667-.573-1.009-.85l-.069-.056-.008-.005c-1.686-1.376-3.783-3.088-3.783-5.215a2.626 2.626 0 012.682-2.624 2.929 2.929 0 012.187.973 2.931 2.931 0 012.188-.973 2.624 2.624 0 012.676 2.625c0 2.137-2.115 3.86-3.814 5.247L27.79 21l-.083.069-.027.021c-.335.276-.653.536-.937.788l.001-.004v.001z" fill="#21395A"/></svg>