<svg width="35" height="35" fill="none" xmlns="http://www.w3.org/2000/svg"><path d="M21.875 32.083h-8.75v-2.916h8.75v2.916zm0-4.375h-8.75l-.325-2.916a12.34 12.34 0 00-.862-2.802c-.517-.729-1.055-1.352-1.575-1.96a9.72 9.72 0 01-3.071-6.905 10.208 10.208 0 1120.416 0 9.762 9.762 0 01-3.052 6.87l-.025.03a25.782 25.782 0 00-1.562 1.96c-.397.898-.687 1.84-.865 2.807l-.33 2.916zM17.5 5.833a7.3 7.3 0 00-7.292 7.292c0 2.252.94 3.344 2.36 5 .54.63 1.152 1.34 1.75 2.174a14.889 14.889 0 011.468 4.493h3.429a15.26 15.26 0 011.467-4.485c.583-.832 1.194-1.548 1.732-2.178l.022-.027c1.418-1.662 2.355-2.76 2.355-4.977A7.3 7.3 0 0017.5 5.833z" fill="#21395A"/></svg>