<svg width="32" height="14" fill="none" xmlns="http://www.w3.org/2000/svg"><path fill-rule="evenodd" clip-rule="evenodd" d="M.313 7c0-.207.119-.405.33-.55.213-.146.501-.228.801-.228h26.69l-7.122-4.894c-.212-.146-.332-.344-.332-.55 0-.207.12-.405.332-.55.213-.147.5-.229.801-.229.3 0 .59.082.802.228l9.053 6.222a.835.835 0 01.246.252A.574.574 0 0132 7c0 .102-.03.203-.086.298a.835.835 0 01-.247.252l-9.052 6.222a1.437 1.437 0 01-.802.228c-.3 0-.588-.082-.8-.228-.213-.146-.333-.344-.333-.55 0-.207.12-.405.332-.551l7.123-4.894H1.445c-.301 0-.589-.082-.801-.228C.432 7.404.312 7.206.312 7z" fill="#fff"/></svg>