<svg width="29" height="29" fill="none" xmlns="http://www.w3.org/2000/svg"><path d="M14.5 19.333a4.833 4.833 0 100-9.667 4.833 4.833 0 000 9.667z" stroke="#3B373A" stroke-width="2.417" stroke-linecap="round" stroke-linejoin="round"/><path d="M23.08 9.455l1.047-.604-1.046.604zm.08.138l-1.046.604 1.046-.604zm.918.903l.588-1.056-.588 1.056zm1.874 1.043l-.587 1.056.587-1.056zm.621 1.053l-1.208.003 1.208-.003zm.009 3.808l-1.208.003 1.208-.003zm-.623 1.06l-.585-1.057.585 1.057zM24.08 18.5l.586 1.057-.586-1.057zm-.92.905l-1.047-.604 1.046.604zm-.08.136l1.047.604-1.046-.604zm-.323 1.25l-1.208.02 1.208-.02zm.036 2.151l-1.208.02 1.208-.02zm-.601 1.066l-.607-1.046.607 1.046zm-3.297 1.913l.607 1.045-.607-1.045zm-1.228-.01l.622-1.035-.622 1.036zm-1.844-1.106l-.622 1.036.622-1.036zm-2.645-.002l.621 1.037-.62-1.037zm-1.835 1.1l-.62-1.037.62 1.036zm-1.224.01l.603-1.047-.603 1.046zm-3.307-1.906l.603-1.047-.603 1.047zm-.605-1.067l1.208.02-1.208-.02zm.036-2.143l-1.208-.02 1.208.02zm-.319-1.241l1.049-.6-1.049.6zm-.084-.147l-1.048.6 1.048-.6zm-.922-.911l-.588 1.056.588-1.056zm-1.87-1.04l-.587 1.055.587-1.055zm-.62-1.054l-1.21.003 1.21-.003zm-.01-3.808l1.209-.003-1.209.003zm.623-1.06l.586 1.057-.586-1.057zm1.879-1.041l-.586-1.057.586 1.057zm.921-.905l-1.046-.604 1.046.604zm.079-.136l1.046.605-1.046-.605zm.323-1.25l1.208-.02-1.208.02zm-.036-2.151l-1.208.02 1.208-.02zm.602-1.065l.606 1.045-.606-1.045zm3.296-1.914l.606 1.045-.606-1.045zm1.229.01L10.71 4.12l.623-1.036zm1.844 1.106l-.623 1.036.623-1.036zm2.644.002l-.62-1.037.62 1.037zm1.835-1.1l-.62-1.036.62 1.037zm1.225-.01l.603-1.046-.603 1.047zm3.306 1.906l.604-1.047-.604 1.047zm.605 1.067l-1.208-.02 1.208.02zm-.036 2.15l-1.208-.02 1.208.02zm-.723 1.854l.08.137 2.093-1.209-.08-.137-2.092 1.209zm1.457 1.492l1.874 1.043 1.175-2.112-1.874-1.043-1.175 2.112zm1.874 1.043l.009 3.808 2.416-.005-.008-3.809-2.417.006zm.009 3.808l-1.88 1.041 1.172 2.114 1.879-1.041-1.171-2.114zm-3.261 2.399l-.078.135 2.092 1.21.079-.136-2.093-1.21zm-.564 2.01l.036 2.151 2.416-.04-.036-2.152-2.416.04zm.036 2.151l-3.296 1.914 1.213 2.09 3.296-1.913-1.213-2.09zm-3.296 1.914l-1.844-1.107-1.244 2.072 1.844 1.107 1.244-2.072zm-3.71-1.624h-.16v2.416h.16v-2.416zm-2.021.514l-1.836 1.1 1.242 2.073 1.835-1.1-1.241-2.073zm-1.836 1.1L7.415 22.96 6.21 25.055l3.306 1.905 1.207-2.093zM7.415 22.96l.036-2.142-2.416-.041L5 22.92l2.416.041zm-.442-4.005l-.084-.146-2.097 1.2.084.147 2.097-1.2zm-1.468-1.513l-1.87-1.04-1.174 2.111 1.87 1.04 1.174-2.111zm-1.87-1.04l-.008-3.809-2.417.006.009 3.808 2.416-.005zm-.008-3.809l1.879-1.041-1.172-2.114-1.879 1.041 1.172 2.114zm3.26-2.399l.079-.135-2.093-1.21-.078.137 2.092 1.208zm.564-2.01l-.036-2.151L5 6.074l.036 2.152 2.416-.04zm-.036-2.151l3.296-1.914-1.213-2.09-3.296 1.913 1.213 2.09zm3.296-1.914l1.845 1.107 1.243-2.071-1.844-1.108-1.244 2.072zm3.71 1.625h.16V3.328h-.16v2.417zm2.022-.515l1.835-1.1-1.241-2.073-1.836 1.1 1.242 2.073zm1.835-1.1l3.307 1.906 1.207-2.094-3.307-1.905-1.207 2.094zm3.307 1.906l-.036 2.15 2.416.04.036-2.15-2.416-.04zm0 0l2.416.04a2.417 2.417 0 00-1.21-2.134l-1.206 2.094zM18.278 4.13l1.207-2.094a2.417 2.417 0 00-2.448.02l1.241 2.074zm-3.697 1.614c.655 0 1.299-.178 1.862-.515L15.2 3.156a1.208 1.208 0 01-.62.172v2.417zm-2.025-.518a3.625 3.625 0 001.865.518V3.328c-.219 0-.434-.06-.622-.172l-1.243 2.071zM10.71 4.12l1.244-2.072a2.417 2.417 0 00-2.457-.018l1.213 2.09zM7.415 6.034l-1.213-2.09A2.417 2.417 0 005 6.073l2.416-.04zm-.45 4.026c.33-.57.497-1.217.486-1.874l-2.416.04a1.2 1.2 0 01-.162.625l2.093 1.209zm-1.46 1.493a3.625 3.625 0 001.382-1.358L4.795 8.987a1.21 1.21 0 01-.46.452l1.17 2.114zm-1.878 1.041L2.455 10.48A2.417 2.417 0 001.21 12.6l2.417-.006zm.008 3.809l-2.416.005a2.417 2.417 0 001.242 2.106l1.174-2.111zM6.89 18.81a3.625 3.625 0 00-1.384-1.367L4.33 19.555c.193.107.352.264.462.455l2.097-1.2zm.562 2.009a3.625 3.625 0 00-.478-1.863l-2.097 1.201c.108.189.163.403.16.62l2.415.041zm-.036 2.142L5 22.921a2.417 2.417 0 001.21 2.134l1.206-2.094zm3.307 1.906L9.515 26.96c.76.438 1.697.43 2.448-.02l-1.24-2.073zm3.698-1.614c-.656 0-1.3.177-1.862.514l1.241 2.074c.188-.112.402-.172.62-.172v-2.416zm2.025.517a3.625 3.625 0 00-1.866-.517v2.416c.22 0 .434.06.622.173l1.244-2.072zm1.844 1.107l-1.244 2.072c.754.453 1.696.46 2.457.018l-1.213-2.09zm3.296-1.913l1.213 2.09a2.417 2.417 0 001.204-2.131l-2.417.04zm.45-4.027a3.625 3.625 0 00-.486 1.875l2.416-.041a1.21 1.21 0 01.162-.625l-2.092-1.209zm1.46-1.493a3.625 3.625 0 00-1.382 1.358l2.093 1.209c.11-.19.268-.347.46-.453l-1.171-2.114zm1.879-1.041l1.17 2.114a2.417 2.417 0 001.246-2.12l-2.416.006zm-.01-3.808l2.418-.006a2.417 2.417 0 00-1.242-2.106l-1.175 2.112zm-3.25-2.398a3.625 3.625 0 001.377 1.355l1.175-2.112a1.208 1.208 0 01-.46-.452l-2.092 1.21zm2.013-1.346a1.208 1.208 0 01-.162-.625l-2.416-.04a3.625 3.625 0 00.486 1.874l2.092-1.21z" fill="#3B373A"/></svg>