<svg width="17" height="18" fill="none" xmlns="http://www.w3.org/2000/svg"><path d="M6.588 17h-.75a.75.75 0 001.302.508L6.588 17zm0-8.96h.75v-.361l-.282-.225-.468.586zM1 1V.25a.75.75 0 00-.741.864L1 1zm15 0l.71.244A.75.75 0 0016 .25V1zm-5.588 7.04l-.455-.597-.295.225v.372h.75zm0 4.8l.552.508a.75.75 0 00.198-.508h-.75zM7.338 17V8.04h-1.5V17h1.5zm-.282-9.546c-1.438-1.147-2.72-2.39-3.672-3.566C2.414 2.69 1.857 1.644 1.741.886L.26 1.114c.178 1.162.944 2.463 1.96 3.718 1.031 1.277 2.396 2.595 3.9 3.794l.936-1.172zM1 1.75h15V.25H1v1.5zM15.29.756c-.398 1.157-1.241 2.463-2.256 3.685-1.01 1.214-2.146 2.293-3.077 3.002l.91 1.194c1.029-.785 2.246-1.945 3.32-3.238 1.068-1.285 2.039-2.752 2.522-4.155L15.291.756zM9.663 8.04v4.8h1.5v-4.8h-1.5zm.198 4.293l-3.824 4.16 1.104 1.015 3.824-4.16-1.104-1.016z" fill="#102542"/></svg>