<svg width="19" height="20" fill="none" xmlns="http://www.w3.org/2000/svg"><path d="M7.588 18h-.75a.75.75 0 001.302.508L7.588 18zm0-8.96h.75v-.361l-.282-.225-.468.586zM2 2v-.75a.75.75 0 00-.741.864L2 2zm15 0l.71.244A.75.75 0 0017 1.25V2zm-5.588 7.04l-.455-.597-.295.225v.372h.75zm0 4.8l.552.508a.75.75 0 00.198-.508h-.75zM8.338 18V9.04h-1.5V18h1.5zm-.282-9.546c-1.438-1.147-2.72-2.39-3.672-3.566-.97-1.199-1.527-2.244-1.643-3.002l-1.482.228c.178 1.162.944 2.463 1.96 3.718C4.251 7.109 5.616 8.427 7.12 9.626l.936-1.172zM2 2.75h15v-1.5H2v1.5zm14.29-.994c-.398 1.157-1.241 2.463-2.256 3.685-1.01 1.214-2.146 2.293-3.077 3.002l.91 1.194c1.029-.785 2.246-1.945 3.32-3.238 1.068-1.285 2.039-2.752 2.522-4.155l-1.418-.488zM10.663 9.04v4.8h1.5v-4.8h-1.5zm.198 4.293l-3.824 4.16 1.104 1.015 3.824-4.16-1.104-1.016z" fill="#102542"/></svg>