<svg width="21" height="12" fill="none" xmlns="http://www.w3.org/2000/svg"><path fill-rule="evenodd" clip-rule="evenodd" d="M18.073 7.63c.697.687 1.433 1.332 2.058 2.09.276.336.537.681.736 1.07.283.556.027 1.165-.466 1.199l-3.058-.001c-.79.065-1.418-.256-1.949-.801-.422-.435-.816-.9-1.223-1.348a2.891 2.891 0 00-.55-.496c-.417-.273-.78-.19-1.019.25-.242.447-.3.944-.322 1.442-.033.727-.25.918-.974.953-1.547.072-3.014-.165-4.377-.952-1.203-.694-2.135-1.674-2.946-2.783C2.403 6.09 1.193 3.716.107 1.274-.14.724.04.43.64.418c1-.02 1.998-.017 2.996-.001.406.007.675.24.83.628.54 1.34 1.201 2.615 2.03 3.798.222.315.448.629.767.85.355.247.625.167.792-.234.107-.254.153-.525.176-.797.08-.931.089-1.863-.048-2.791-.085-.58-.41-.956-.983-1.066C6.908.75 6.95.641 7.092.472c.247-.29.48-.472.94-.472h3.456c.545.107.668.355.742.909l.002 3.878c-.006.214.107.85.487.99.305.102.508-.146.692-.342.827-.887 1.418-1.936 1.946-3.02.234-.478.435-.973.632-1.47.144-.366.37-.547.78-.54l3.328.004c.098 0 .199 0 .295.016.56.098.714.341.54.895-.271.866-.804 1.59-1.322 2.315-.556.775-1.148 1.524-1.7 2.304-.504.714-.465 1.073.163 1.692z" fill="#3B373A"/></svg>