<svg width="192" height="80" fill="none" xmlns="http://www.w3.org/2000/svg"><g clip-path="url(#clip0_617_5698)" fill="#fff"><path d="M38.519 24.89l-.008.008.008-.008zm-5.493-8.834a18.473 18.473 0 00-9.076 2.387 18.339 18.339 0 00-6.707 6.53 18.197 18.197 0 00-.393 18.043 18.326 18.326 0 006.417 6.811 18.48 18.48 0 0018.136.79 18.354 18.354 0 006.993-6.227h-4.681a3.031 3.031 0 01-2.435 1.215 3.05 3.05 0 01-2.434-1.215c.169.379.257.788.258 1.202a3.023 3.023 0 01-.833 2.054 3.063 3.063 0 01-4.138.275 3.029 3.029 0 01-1.1-1.925 3.021 3.021 0 01-1.1 1.922 3.055 3.055 0 01-4.131-.286 3.016 3.016 0 01-.823-2.055c.003-.427.093-.85.265-1.241a3.037 3.037 0 01-2.213 1.306 3.059 3.059 0 01-2.428-.848 3.023 3.023 0 01-.906-2.395 3.013 3.013 0 011.264-2.228c-.374.15-.774.226-1.178.225a3.06 3.06 0 01-2.25-.83 3.024 3.024 0 01-.947-2.192 3.01 3.01 0 01.947-2.192 3.045 3.045 0 012.25-.829 3.058 3.058 0 01-2.057-.939 3.023 3.023 0 010-4.18 3.058 3.058 0 012.057-.939 2.99 2.99 0 011.178.233 3.025 3.025 0 01-1.063-1.52 3.008 3.008 0 01.026-1.85c.203-.6.59-1.12 1.107-1.49a3.055 3.055 0 013.163-.237c.43.22.802.54 1.082.932a3.14 3.14 0 01-.265-1.249 3.015 3.015 0 01.818-2.078 3.055 3.055 0 014.164-.266 3.02 3.02 0 011.08 1.956 3.016 3.016 0 011.36-2.105 3.053 3.053 0 014.405 1.256 3.01 3.01 0 01.032 2.502 3.052 3.052 0 014.664-.343c.413.428.69.968.797 1.552h4.9a18.345 18.345 0 00-6.784-6.982 18.486 18.486 0 00-9.421-2.55z"/><path d="M51.634 44.39a21.122 21.122 0 01-10.287 9.305 21.282 21.282 0 01-13.876.95A21.17 21.17 0 0116 46.829a20.958 20.958 0 01-4.117-13.207 20.974 20.974 0 015.016-12.896 21.192 21.192 0 0111.983-7.018 21.28 21.28 0 0113.777 1.89 21.098 21.098 0 019.623 9.983h4.822a34.103 34.103 0 00-1.482-9.595 15.733 15.733 0 00-.43-1.132L53.195 9.57a2.226 2.226 0 00.093-2.802 2.259 2.259 0 00-2.735-.685A2.24 2.24 0 0049.48 7.12a2.223 2.223 0 00.61 2.737c.4.319.9.491 1.412.49h.234l2.138 5.67-3.698 3.187c-2.06-6.205-3.246-8.586-8.325-12.62l-3.464-3.343c.153-.314.233-.659.234-1.008 0-.442-.132-.875-.38-1.242a2.26 2.26 0 00-3.46-.335 2.23 2.23 0 00-.48 2.437c.17.408.46.756.83 1.001a2.256 2.256 0 002.031.233l4.174 4.026-.71 4.467c-3.714-2.691-7.459-5.43-11.96-6.678l-6.375-.52a2.225 2.225 0 00-.811-1.275 2.248 2.248 0 00-2.854.087 2.215 2.215 0 00-.448 2.804 2.252 2.252 0 002.687.96c.49-.175.904-.516 1.169-.962l6.546.535v4.204c-4.97-1.11-8.075.186-12.757 1.318l-5.515 1.226a2.225 2.225 0 00-1.982-1.202 2.257 2.257 0 00-1.19.329 2.223 2.223 0 00-.614 3.257 2.26 2.26 0 003.32.282c.307-.285.528-.65.637-1.053l6.242-1.31 1.342 2.288c-3.262 1.14-8.973 5.088-10.619 8.02l-4.385 3.971a2.352 2.352 0 00-.78-.147c-.444 0-.879.13-1.248.376a2.222 2.222 0 00-.34 3.437 2.251 2.251 0 002.448.484 2.224 2.224 0 001.387-2.064 2.177 2.177 0 00-.288-1.015l5.461-4.941 2.223.132a12.21 12.21 0 00-3.003 5.002l-.21.706a18.632 18.632 0 00-.453 2.18L5.508 46.438c-.52.04-1.01.259-1.385.62a2.221 2.221 0 00-.313 2.824 2.251 2.251 0 002.734.829c.482-.2.878-.561 1.12-1.02a2.215 2.215 0 00-.595-2.78l2.34-11.138.71-.194a35.574 35.574 0 00.055 5.871l.484 17.313c-.473.22-.853.596-1.076 1.064a2.214 2.214 0 00.705 2.752 2.249 2.249 0 002.85-.176 2.222 2.222 0 00.359-2.817 2.237 2.237 0 00-1.2-.924l-.328-11.836c.11-.07 1.108-.722 1.303-.87 1.451 3.103 1.42 4.22 3.074 6.035l.937 17.561a2.24 2.24 0 00-1.04 1.107 2.222 2.222 0 00.81 2.735 2.258 2.258 0 002.854-.285 2.228 2.228 0 00-.994-3.72l-.827-15.823v-1.924c4.307 4.887 4.681 5.98 9.636 8.913l.18 15.163a2.24 2.24 0 00-1.08 1.072 2.222 2.222 0 00.719 2.761 2.257 2.257 0 002.862-.19 2.229 2.229 0 00.341-2.832 2.246 2.246 0 00-1.212-.92l-.172-14.535.063-4.242a71.278 71.278 0 0011.82 4.188l3.19 14.667a2.21 2.21 0 00-.686 1.598c-.002.442.129.874.374 1.243a2.26 2.26 0 003.456.35 2.23 2.23 0 00.496-2.433 2.236 2.236 0 00-.824-1.005A2.257 2.257 0 0046 75.06l-3.9-17.787-.102-2.002c2.56.567 7.756-.465 10.798-1.915L64.39 64.518c-.105.262-.16.54-.164.822-.001.485.156.957.447 1.345a2.26 2.26 0 002.594.752 2.245 2.245 0 001.105-.894 2.224 2.224 0 00-.218-2.678 2.258 2.258 0 00-2.648-.534L54.302 52.527l-2.45-2.327-1.24-1.187c1.904-1.551 3.69-3.002 5.352-4.584l-4.33-.039z"/><path d="M37.785 34.795l4.385 1.319a7.95 7.95 0 01-1.397 3.103 6.047 6.047 0 01-2.34 1.861 8.957 8.957 0 01-3.581.62 10.532 10.532 0 01-4.315-.775 6.865 6.865 0 01-2.895-2.707 9.119 9.119 0 01-1.209-4.918c0-2.668.71-4.708 2.138-6.143 1.428-1.435 3.44-2.148 6.046-2.148a8.26 8.26 0 014.814 1.233 7.266 7.266 0 012.599 3.777l-4.44.978a3.867 3.867 0 00-.491-1.078 2.905 2.905 0 00-1.022-.877 3.018 3.018 0 00-1.366-.295 2.956 2.956 0 00-1.486.332 2.935 2.935 0 00-1.12 1.026 5.797 5.797 0 00-.678 3.172c0 1.784.265 3.002.78 3.669a2.816 2.816 0 002.34.993 2.8 2.8 0 002.17-.776 4.99 4.99 0 001.068-2.366zm19.505 1.87h-8.987c.031.58.235 1.14.585 1.605a2.136 2.136 0 001.7.776c.437-.01.864-.13 1.241-.35a3.01 3.01 0 00.78-.775l4.432.404a6.331 6.331 0 01-2.45 2.52 8.933 8.933 0 01-4.127.776 8.518 8.518 0 01-3.667-.652 5.448 5.448 0 01-2.216-2.078 6.23 6.23 0 01-.874-3.343 5.834 5.834 0 011.764-4.43 6.718 6.718 0 014.86-1.69 8.696 8.696 0 013.98.776 5.095 5.095 0 012.223 2.195 8.019 8.019 0 01.78 3.746l-.023.52zm-4.58-2.141a2.968 2.968 0 00-.701-1.862 2.022 2.022 0 00-1.49-.558 2.061 2.061 0 00-1.717.845 3.091 3.091 0 00-.515 1.552l4.424.023zm6.695 11.286V29.723h4.213v1.722a5.56 5.56 0 011.56-1.466 4.555 4.555 0 012.255-.52c.71-.03 1.416.118 2.053.431a4.214 4.214 0 011.59 1.36 7.375 7.375 0 011.288 4.422 6.335 6.335 0 01-1.404 4.444 4.595 4.595 0 01-3.55 1.552 4.854 4.854 0 01-1.896-.357 4.573 4.573 0 01-1.56-1.04v5.539h-4.55zm4.51-10.239a3.09 3.09 0 00.584 2.056 1.864 1.864 0 001.483.667 1.632 1.632 0 001.31-.636c.417-.65.604-1.42.531-2.188a3.19 3.19 0 00-.554-2.07 1.674 1.674 0 00-1.342-.668 1.812 1.812 0 00-1.435.675 3.313 3.313 0 00-.578 2.18v-.016zm19.411-.388a3.466 3.466 0 012.122.877 2.614 2.614 0 01.78 2 2.908 2.908 0 01-1.108 2.498c-.733.551-2.06.83-3.964.83h-6.701V29.754h7.232a5.118 5.118 0 013.004.775 2.463 2.463 0 011.03 2.095 2.32 2.32 0 01-.671 1.644 3.384 3.384 0 01-1.748.93l.023-.015zm-4.354-1.008h1.14c.78 0 1.123-.35 1.123-1.032 0-.55-.398-.83-1.194-.83h-1.069v1.862zm0 4.468h1.482c.317.014.63-.076.89-.256a.84.84 0 00.343-.776c0-.698-.413-1.055-1.233-1.055h-1.482v2.087zm8.871-3.056a5.803 5.803 0 011.81-4.398 6.773 6.773 0 014.9-1.73c2.35 0 4.125.677 5.32 2.032a6.341 6.341 0 011.438 4.286 6.343 6.343 0 01-1.788 4.153 6.85 6.85 0 01-4.962 1.722 7.05 7.05 0 01-4.572-1.427 5.745 5.745 0 01-1.62-2.069 5.71 5.71 0 01-.526-2.57zm4.51 0a3.496 3.496 0 00.632 2.326 2.011 2.011 0 001.6.776 1.992 1.992 0 001.56-.729 3.614 3.614 0 00.624-2.327 3.468 3.468 0 00-.625-2.257 1.956 1.956 0 00-1.56-.776 2.053 2.053 0 00-1.623.776 3.483 3.483 0 00-.608 2.203v.008zm13.648-13.772a3.118 3.118 0 01.194-1.175 2.88 2.88 0 01.612-.986 2.972 2.972 0 011.014-.663 2.766 2.766 0 011.168-.186c1.046 0 1.836.332 2.369.998a3.33 3.33 0 01.64 2.105 3.276 3.276 0 01-.797 2.04c-.299.294-.648.52-1.027.665a2.802 2.802 0 01-1.182.181 2.94 2.94 0 01-2.035-.7 2.801 2.801 0 01-.722-1.017 3.064 3.064 0 01-.234-1.262zm2.008 0c-.032.405.068.81.281 1.143a.931.931 0 00.316.281c.124.066.259.1.397.1a.814.814 0 00.384-.092.886.886 0 00.31-.266c.209-.336.307-.739.278-1.143a1.83 1.83 0 00-.278-1.11.899.899 0 00-.306-.28.813.813 0 00-.388-.1.845.845 0 00-.402.098.935.935 0 00-.321.283 1.842 1.842 0 00-.271 1.082v.004zm7.851 19.573h-4.494v-8.4h-3.425v8.4h-4.494V29.754h12.413v11.634zm2.739 4.422V29.723h4.228v1.722a5.55 5.55 0 011.561-1.466 4.552 4.552 0 012.176-.52c.71-.03 1.417.118 2.054.431a4.215 4.215 0 011.59 1.36 7.372 7.372 0 011.287 4.422 6.334 6.334 0 01-1.404 4.444 4.593 4.593 0 01-3.55 1.552 4.83 4.83 0 01-1.896-.357 4.57 4.57 0 01-1.56-1.04v5.539h-4.486zm4.509-10.239c-.056.733.152 1.46.585 2.056a1.877 1.877 0 001.483.667 1.632 1.632 0 001.31-.636c.417-.65.604-1.42.531-2.188a3.188 3.188 0 00-.554-2.078 1.673 1.673 0 00-1.342-.668 1.838 1.838 0 00-1.443.675 3.315 3.315 0 00-.57 2.188v-.016zm23.664 5.817h-4.252v-5.74l-4.416 5.74h-4.284V29.754h4.26v5.817l4.455-5.817h4.237v11.634zm11.719-6.205a3.49 3.49 0 012.129.877 2.636 2.636 0 01.781 2.001 2.927 2.927 0 01-1.124 2.498c-.741.55-2.06.83-3.971.83h-6.694V29.753h7.24a5.077 5.077 0 012.996.775 2.465 2.465 0 011.038 2.095 2.32 2.32 0 01-.609 1.55 3.32 3.32 0 01-1.747.932l-.039.077zm-4.346-1.008h1.131c.78 0 1.131-.35 1.131-1.032 0-.55-.398-.83-1.193-.83h-1.069v1.862zm0 4.468h1.451c.319.014.634-.076.897-.256a.859.859 0 00.344-.776c0-.698-.414-1.055-1.241-1.055h-1.475l.024 2.087zm8.871-3.056a5.824 5.824 0 011.81-4.398 6.792 6.792 0 014.892-1.73c2.351 0 4.127.677 5.328 2.032a6.332 6.332 0 01-.351 8.44 6.898 6.898 0 01-4.97 1.722 7.052 7.052 0 01-4.572-1.428 5.741 5.741 0 01-1.616-2.07 5.69 5.69 0 01-.521-2.568zm4.501 0a3.46 3.46 0 00.64 2.326 2.092 2.092 0 001.596.736 2.103 2.103 0 001.595-.736 3.657 3.657 0 00.624-2.326 3.421 3.421 0 00-.632-2.258 1.935 1.935 0 00-1.56-.775 2.076 2.076 0 00-1.631.776 3.53 3.53 0 00-.632 2.249v.008zM192 44.716h-3.121v-3.328h-8.317v3.328h-3.121v-6.593h1.14a11.668 11.668 0 001.24-5.763v-2.637h10.923v8.4h1.233l.023 6.593zm-5.742-6.593v-5.135h-2.154v.132c-.019 1.72-.38 3.42-1.061 5.003h3.215zM91.955 18.794h1.926V20.9h2.108v-2.107h1.966v6H96.02v-2.406h-2.109v2.406h-1.926l-.031-6zm13.073 6h-1.936v-4.521h-2.127v4.52h-1.937v-6h6v6zm11.776-4.581c.26-.512.669-.934 1.175-1.21a2.876 2.876 0 011.657-.341 3.224 3.224 0 012.341.822 3.105 3.105 0 01.827 2.327 3.227 3.227 0 01-.78 2.374 3.13 3.13 0 01-2.341.83 3.425 3.425 0 01-2.044-.528 2.788 2.788 0 01-1.007-1.357l1.787-.473a1.245 1.245 0 002.098.554c.206-.213.328-.492.344-.787h-1.849v-1.14h1.857a1.182 1.182 0 00-.377-.86 1.19 1.19 0 00-.887-.32 1.096 1.096 0 00-1.124.776l-1.677-.667zm12.062 4.654h-1.709V21.71h-1.295v1.862c.03.39-.078.78-.304 1.101a1.175 1.175 0 01-.928.357 5.79 5.79 0 01-1.28-.132v-1.256c.148.052.303.083.46.093.227 0 .344-.17.344-.504v-2.754h4.681l.031 4.39zm5.969-1.761h-3.426c.012.221.088.434.219.613a.83.83 0 00.647.287.955.955 0 00.773-.403l1.677.147a2.33 2.33 0 01-.928.962 3.367 3.367 0 01-1.561.287 3.22 3.22 0 01-1.388-.248 1.982 1.982 0 01-.843-.776 2.42 2.42 0 01-.335-1.272 2.206 2.206 0 01.671-1.675 2.516 2.516 0 011.849-.644 3.266 3.266 0 011.505.287c.356.183.647.47.835.822.208.444.307.93.289 1.42l.016.193zm-1.733-.775a1.118 1.118 0 00-.273-.698.723.723 0 00-.561-.217.783.783 0 00-.656.325c-.116.176-.183.38-.195.59h1.685zm7.467 2.536h-1.919l-.656-1.218a.861.861 0 00-.304-.372.856.856 0 00-.367-.07v1.66h-1.708v-4.421h1.708v1.629a.468.468 0 00.312-.14c.114-.16.21-.332.289-.512.092-.206.207-.401.343-.581a.987.987 0 01.383-.272c.188-.069.385-.108.585-.116h1.053v1.202h-.078a3.005 3.005 0 00-.523 0 .607.607 0 00-.288.109 1.285 1.285 0 00-.25.356 1.8 1.8 0 01-.242.38.536.536 0 01-.273.148c.191.009.377.06.546.147.24.222.438.485.585.776l.804 1.295zm4.307-3.157h-1.233v3.157h-1.709V21.71h-1.24v-1.233h4.182v1.233zm.616 4.871v-6.104h1.561v.652c.164-.224.371-.414.608-.559.255-.132.54-.199.827-.194a1.614 1.614 0 011.381.675c.334.497.503 1.086.484 1.683a2.427 2.427 0 01-.531 1.683 1.726 1.726 0 01-1.342.582 1.9 1.9 0 01-.686-.132 1.847 1.847 0 01-.585-.395v2.11h-1.717zm1.717-3.878c-.023.276.054.552.218.776a.709.709 0 00.841.19.618.618 0 00.22-.183 1.31 1.31 0 00.203-.822 1.223 1.223 0 00-.211-.775.64.64 0 00-.515-.256.697.697 0 00-.546.256 1.317 1.317 0 00-.21.814zm3.791 0a2.223 2.223 0 01.687-1.675 2.59 2.59 0 011.857-.652 2.565 2.565 0 012.02.776 2.407 2.407 0 01-.132 3.203 2.618 2.618 0 01-1.881.652 2.645 2.645 0 01-1.739-.543 2.165 2.165 0 01-.812-1.76zm1.709 0c-.022.311.063.62.242.877a.778.778 0 00.608.279.784.784 0 00.601-.28c.185-.259.271-.575.242-.891a1.287 1.287 0 00-.242-.861.78.78 0 00-.593-.28.781.781 0 00-.616.287 1.356 1.356 0 00-.242.861v.008zm8.917 2.164h-1.7V21.71h-1.303v3.157h-1.709v-4.421h4.681l.031 4.421zm1.039 1.714v-6.104h1.599v.652a2.15 2.15 0 01.609-.559 1.73 1.73 0 01.827-.194 1.604 1.604 0 011.38.675c.334.497.503 1.086.484 1.683a2.389 2.389 0 01-.53 1.683 1.744 1.744 0 01-1.342.582c-.251.005-.5-.04-.734-.132a1.87 1.87 0 01-.585-.395v2.11h-1.708zm1.716-3.878c-.023.276.054.552.218.776a.721.721 0 00.562.256.624.624 0 00.5-.248 1.32 1.32 0 00.202-.823 1.228 1.228 0 00-.21-.775.645.645 0 00-.515-.256.669.669 0 00-.539.256 1.26 1.26 0 00-.218.814zm8.972 2.164h-1.615V22.72l-1.669 2.148h-1.623v-4.421h1.607v2.203l1.693-2.203h1.607v4.421zm4.447-2.327c.291.019.567.137.78.334a.986.986 0 01.305.776 1.117 1.117 0 01-.422.954c-.459.25-.984.358-1.505.31h-2.536v-4.421h2.746a1.92 1.92 0 011.131.279.93.93 0 01.332 1.111.871.871 0 01-.191.285 1.223 1.223 0 01-.663.349l.023.023zm-1.654-.387h.437c.281 0 .421-.125.421-.388 0-.264-.148-.318-.452-.318h-.406v.706zm0 1.698h.562a.53.53 0 00.343-.1.319.319 0 00.125-.272c0-.272-.156-.403-.468-.403h-.562v.775zm3.371-1.148a2.217 2.217 0 01.686-1.675 3.009 3.009 0 013.901.116c.371.431.565.985.546 1.551a2.227 2.227 0 01-.678 1.676 3.047 3.047 0 01-3.621.108 2.148 2.148 0 01-.834-1.776zm1.708 0c-.025.312.06.622.242.877a.775.775 0 00.605.285.778.778 0 00.604-.285c.179-.262.262-.577.234-.892a1.333 1.333 0 00-.234-.861.776.776 0 00-.593-.28.787.787 0 00-.616.287c-.179.25-.264.555-.242.861v.008zm9.285 3.46h-1.178v-1.296h-3.121v1.264h-1.186v-2.466h.429c.339-.678.5-1.43.468-2.187v-1h4.151v3.187h.468l-.031 2.498zm-2.146-2.498V21.71h-.819v.055a4.898 4.898 0 01-.406 1.9h1.225z"/></g><defs><clipPath id="clip0_617_5698"><path fill="#fff" d="M0 0h192v80H0z"/></clipPath></defs></svg>