<svg width="87" height="37" fill="none" xmlns="http://www.w3.org/2000/svg"><path d="M17.455 11.512l-.005.005.005-.005zm-2.49-4.086a8.239 8.239 0 00-4.112 1.104 8.391 8.391 0 00-3.04 3.02 8.556 8.556 0 00-.178 8.345 8.406 8.406 0 002.908 3.15 8.232 8.232 0 008.218.366 8.376 8.376 0 003.168-2.88h-2.12a1.38 1.38 0 01-1.104.561 1.359 1.359 0 01-1.103-.562 1.4 1.4 0 01.117.556 1.413 1.413 0 01-.377.95 1.369 1.369 0 01-1.875.127 1.407 1.407 0 01-.499-.89c-.05.35-.227.667-.498.889a1.366 1.366 0 01-1.872-.132 1.41 1.41 0 01-.253-1.525 1.387 1.387 0 01-1.003.604 1.36 1.36 0 01-1.1-.392 1.401 1.401 0 01-.41-1.107 1.413 1.413 0 01.572-1.031c-.17.07-.35.104-.534.104a1.36 1.36 0 01-1.02-.383 1.4 1.4 0 01-.428-1.015 1.417 1.417 0 01.429-1.014 1.376 1.376 0 011.02-.383 1.374 1.374 0 01-.932-.434 1.414 1.414 0 010-1.933c.244-.26.577-.416.931-.435.184 0 .366.036.534.108a1.4 1.4 0 01-.482-.703 1.406 1.406 0 01.514-1.545 1.366 1.366 0 011.923.322 1.478 1.478 0 01-.12-.578 1.41 1.41 0 01.371-.96 1.366 1.366 0 011.887-.123c.27.226.446.55.49.904a1.412 1.412 0 01.615-.974 1.367 1.367 0 011.997.58 1.415 1.415 0 01.014 1.158c.157-.224.375-.396.628-.495a1.357 1.357 0 011.485.336c.188.198.313.448.361.719h2.22a8.408 8.408 0 00-3.073-3.23 8.247 8.247 0 00-4.27-1.18z" fill="#fff"/><path d="M23.398 20.53a9.644 9.644 0 01-4.662 4.304 9.462 9.462 0 01-6.287.44 9.59 9.59 0 01-5.198-3.616 9.832 9.832 0 01-1.866-6.108 9.814 9.814 0 012.273-5.964 9.564 9.564 0 015.43-3.246 9.467 9.467 0 016.243.874 9.672 9.672 0 014.36 4.617h2.185a16.07 16.07 0 00-.672-4.437 7.354 7.354 0 00-.194-.524l-.905-2.443a1.043 1.043 0 00.042-1.296 1.005 1.005 0 00-1.24-.317 1.026 1.026 0 00-.486.48 1.047 1.047 0 00.277 1.265c.181.148.407.227.64.227h.106l.968 2.622-1.675 1.474c-.934-2.87-1.471-3.97-3.772-5.836L17.395 1.5a1.09 1.09 0 00.106-.467c0-.204-.06-.404-.172-.574a1.005 1.005 0 00-1.568-.155 1.038 1.038 0 00-.218 1.127c.078.189.209.35.377.463a1.008 1.008 0 00.92.108l1.891 1.862-.322 2.066c-1.682-1.245-3.38-2.511-5.42-3.089l-2.887-.24a1.032 1.032 0 00-.368-.59 1.005 1.005 0 00-1.294.04 1.042 1.042 0 00-.203 1.297c.121.206.308.364.53.445a1 1 0 00.688 0c.223-.082.41-.24.53-.446l2.966.248v1.944c-2.252-.513-3.659.086-5.78.61l-2.5.567a1.013 1.013 0 00-.371-.407.993.993 0 00-.527-.15 1.007 1.007 0 00-.539.153c-.162.1-.293.246-.378.418a1.046 1.046 0 00.1 1.088 1.004 1.004 0 001.505.13c.139-.131.239-.3.288-.486l2.828-.607.608 1.059c-1.477.527-4.065 2.353-4.811 3.709L1.387 13.46a1.046 1.046 0 00-.353-.068c-.202 0-.399.06-.566.174a1.047 1.047 0 00-.154 1.59 1.014 1.014 0 001.11.223c.185-.078.344-.21.456-.38.112-.17.172-.37.172-.574a1.023 1.023 0 00-.131-.47l2.475-2.285 1.007.06a5.67 5.67 0 00-1.36 2.314l-.096.327a8.773 8.773 0 00-.205 1.008l-1.245 6.098c-.236.019-.458.12-.628.287a1.035 1.035 0 00-.141 1.306 1 1 0 001.239.383 1.02 1.02 0 00.507-.471 1.043 1.043 0 00-.27-1.286l1.06-5.151.323-.09c-.066.905-.057 1.813.024 2.716l.22 8.007a1.022 1.022 0 00-.488.492 1.043 1.043 0 00.32 1.273 1.005 1.005 0 001.291-.082 1.042 1.042 0 00.162-1.303 1.017 1.017 0 00-.543-.427l-.149-5.474c.05-.032.502-.334.59-.402.658 1.435.644 1.952 1.394 2.791l.424 8.122c-.211.11-.378.29-.472.512a1.047 1.047 0 00.368 1.265 1.006 1.006 0 001.293-.132 1.04 1.04 0 00.112-1.314 1.019 1.019 0 00-.562-.407l-.375-7.318v-.89c1.952 2.26 2.121 2.767 4.366 4.122l.081 7.014a1.026 1.026 0 00-.488.495 1.047 1.047 0 00.325 1.277 1.007 1.007 0 001.297-.088 1.045 1.045 0 00.155-1.31 1.02 1.02 0 00-.55-.424l-.077-6.723.028-1.962a31.866 31.866 0 005.356 1.937l1.446 6.783a1.025 1.025 0 00-.311.74c-.001.204.058.404.17.574a1.004 1.004 0 001.566.162 1.038 1.038 0 00.224-1.125 1.03 1.03 0 00-.374-.465 1.008 1.008 0 00-.565-.176l-1.767-8.226-.046-.925c1.16.261 3.514-.216 4.893-.887l5.253 5.163a1.043 1.043 0 00.128 1.002 1.005 1.005 0 001.175.348c.207-.08.383-.225.501-.414a1.045 1.045 0 00-.098-1.238 1.005 1.005 0 00-1.2-.247l-5.077-4.997-1.11-1.077-.562-.548c.862-.718 1.672-1.389 2.425-2.12l-1.962-.019z" fill="#fff"/><path d="M17.122 16.093l1.986.61a3.714 3.714 0 01-.633 1.435 2.75 2.75 0 01-1.06.86 3.985 3.985 0 01-1.623.288c-.67.021-1.335-.1-1.955-.359a3.138 3.138 0 01-1.311-1.252c-.39-.69-.58-1.48-.548-2.274 0-1.234.321-2.178.968-2.842.647-.663 1.56-.993 2.74-.993a3.685 3.685 0 012.181.57 3.37 3.37 0 011.178 1.747l-2.012.452a1.81 1.81 0 00-.223-.499 1.325 1.325 0 00-.463-.405 1.343 1.343 0 00-.618-.136 1.316 1.316 0 00-.674.153 1.34 1.34 0 00-.507.475c-.238.45-.344.958-.308 1.467 0 .825.12 1.388.354 1.697a1.26 1.26 0 001.06.46 1.245 1.245 0 00.983-.36 2.33 2.33 0 00.485-1.094zm8.838.864h-4.073c.014.27.107.527.265.743a.972.972 0 00.77.359c.199-.005.392-.06.563-.162.138-.096.258-.218.354-.358l2.008.186a2.901 2.901 0 01-1.11 1.166 3.976 3.976 0 01-1.87.359 3.789 3.789 0 01-1.662-.302 2.491 2.491 0 01-1.004-.961 2.927 2.927 0 01-.396-1.546 2.746 2.746 0 01.799-2.049 3 3 0 012.202-.782 3.872 3.872 0 011.803.36c.433.222.785.577 1.008 1.014.253.54.374 1.135.353 1.733l-.01.24zm-2.076-.99a1.39 1.39 0 00-.318-.86.914.914 0 00-.675-.259.92.92 0 00-.778.391 1.45 1.45 0 00-.233.717l2.005.011zm3.034 5.22v-7.44h1.909v.796c.19-.27.43-.5.707-.678a2.029 2.029 0 011.021-.24c.322-.014.642.055.93.2.29.144.537.36.721.629a3.46 3.46 0 01.584 2.044 2.971 2.971 0 01-.637 2.056 2.055 2.055 0 01-1.609.718 2.16 2.16 0 01-.858-.166 2.068 2.068 0 01-.707-.48v2.561h-2.061zm2.043-4.735c-.025.338.069.675.265.95a.849.849 0 00.672.309.726.726 0 00.594-.294c.188-.3.273-.657.24-1.012a1.498 1.498 0 00-.25-.958.763.763 0 00-.609-.308.807.807 0 00-.65.312c-.2.295-.293.651-.262 1.008v-.007zm8.796-.18c.357.02.696.163.961.406a1.21 1.21 0 01.354.925 1.37 1.37 0 01-.502 1.155c-.332.255-.933.384-1.796.384h-3.037v-5.38h3.277c.48-.028.956.098 1.361.358a1.133 1.133 0 01.467.969c.002.284-.108.557-.304.76-.215.22-.491.37-.792.43l.01-.007zm-1.973-.466h.516c.354 0 .51-.161.51-.477 0-.255-.181-.384-.542-.384h-.484v.861zm0 2.066h.672a.644.644 0 00.403-.118.386.386 0 00.155-.359c0-.323-.187-.488-.558-.488h-.672v.965zm4.02-1.413A2.733 2.733 0 0140 15.353c.14-.35.353-.667.623-.928a3.023 3.023 0 012.22-.8c1.065 0 1.87.313 2.411.94a2.97 2.97 0 01-.159 3.903 3.058 3.058 0 01-2.248.796 3.15 3.15 0 01-2.072-.66 2.65 2.65 0 01-.734-.957 2.687 2.687 0 01-.238-1.188zm2.043 0c-.032.381.07.763.286 1.076a.915.915 0 001.117.272.9.9 0 00.315-.25c.213-.316.312-.696.283-1.077.027-.37-.072-.74-.283-1.044a.89.89 0 00-1.115-.266.93.93 0 00-.327.266 1.635 1.635 0 00-.276 1.02v.003zm10.652 2.683h-2.036v-3.885H48.91v3.885h-2.037v-5.381H52.5v5.381zm1.241 2.045v-7.44h1.916v.796c.19-.27.43-.5.707-.678a2.03 2.03 0 01.986-.24c.322-.014.642.055.93.2.29.144.537.36.721.629a3.46 3.46 0 01.584 2.044 2.971 2.971 0 01-.637 2.056 2.055 2.055 0 01-1.609.718 2.15 2.15 0 01-1.565-.646v2.561H53.74zm2.043-4.735a1.45 1.45 0 00.265.95.848.848 0 001.003.233.739.739 0 00.263-.218c.189-.3.273-.657.24-1.012.029-.34-.06-.68-.25-.961a.762.762 0 00-.609-.309.818.818 0 00-.654.312c-.2.297-.29.655-.258 1.012v-.007zm10.723 2.69h-1.927v-2.655l-2 2.655h-1.942v-5.381h1.93v2.69l2.02-2.69h1.919v5.381zm5.31-2.87c.358.02.698.163.965.406a1.222 1.222 0 01.353.925 1.377 1.377 0 01-.509 1.155c-.335.255-.933.384-1.8.384h-3.032v-5.38h3.28c.479-.028.954.097 1.358.358a1.137 1.137 0 01.47.969c-.001.265-.1.52-.276.717a1.49 1.49 0 01-.791.43l-.018.036zm-1.97-.466h.513c.354 0 .513-.161.513-.477 0-.255-.18-.384-.541-.384h-.484v.861zm0 2.066h.658a.654.654 0 00.407-.118.395.395 0 00.155-.359c0-.323-.187-.488-.562-.488h-.668l.01.965zm4.021-1.413a2.731 2.731 0 01.82-2.034 3.02 3.02 0 012.217-.8c1.065 0 1.87.313 2.414.94a2.97 2.97 0 01-.16 3.903 3.065 3.065 0 01-2.252.796 3.15 3.15 0 01-2.07-.66 2.646 2.646 0 01-.733-.957 2.685 2.685 0 01-.236-1.188zm2.04 0c-.034.382.07.764.29 1.076a.95.95 0 00.722.34.936.936 0 00.723-.34c.21-.317.31-.695.283-1.076a1.606 1.606 0 00-.286-1.044.884.884 0 00-.707-.359.924.924 0 00-.74.359 1.66 1.66 0 00-.286 1.04v.004zM87 20.681h-1.414v-1.539h-3.769v1.54h-1.414v-3.05h.516a5.487 5.487 0 00.562-2.666v-1.22h4.95v3.886h.558l.01 3.05zm-2.602-3.05v-2.374h-.976v.061a6.13 6.13 0 01-.48 2.314h1.456z" fill="#fff"/></svg>