<svg width="163" height="68" fill="none" xmlns="http://www.w3.org/2000/svg"><path d="M32.7 21.157l-.006.006.007-.006z" fill="#fff"/><path d="M28.038 13.648c-2.702.001-5.356.7-7.705 2.029a15.578 15.578 0 00-5.695 5.55 15.487 15.487 0 00-.333 15.336 15.568 15.568 0 005.448 5.79 15.671 15.671 0 0015.397.672 15.587 15.587 0 005.936-5.293h-3.974a2.575 2.575 0 01-2.067 1.033 2.587 2.587 0 01-2.066-1.033c.143.322.218.67.218 1.022a2.571 2.571 0 01-.706 1.745 2.595 2.595 0 01-4.447-1.403 2.568 2.568 0 01-.934 1.634 2.59 2.59 0 01-3.508-.243 2.565 2.565 0 01-.698-1.747c.003-.363.08-.722.226-1.055a2.577 2.577 0 01-1.88 1.11 2.593 2.593 0 01-2.061-.72 2.57 2.57 0 01-.77-2.036 2.562 2.562 0 011.074-1.894 2.662 2.662 0 01-1 .191 2.595 2.595 0 01-1.91-.704 2.57 2.57 0 01-.804-1.864 2.562 2.562 0 01.803-1.863 2.585 2.585 0 011.911-.705 2.596 2.596 0 01-1.746-.798 2.571 2.571 0 010-3.552 2.596 2.596 0 011.746-.799 2.53 2.53 0 011 .198 2.57 2.57 0 01-.88-2.865c.172-.51.5-.952.939-1.266a2.592 2.592 0 012.686-.202c.365.187.68.46.918.793a2.673 2.673 0 01-.225-1.062 2.565 2.565 0 01.695-1.766 2.588 2.588 0 014.451 1.436 2.564 2.564 0 011.155-1.79 2.59 2.59 0 013.74 1.068A2.562 2.562 0 0133 20.722a2.589 2.589 0 013.96-.292c.35.364.586.823.676 1.32h4.16a15.585 15.585 0 00-5.759-5.935 15.68 15.68 0 00-7.998-2.167z" fill="#fff"/><path d="M43.836 37.732a17.94 17.94 0 01-8.734 7.909 18.047 18.047 0 01-11.779.807 17.972 17.972 0 01-9.74-6.644 17.83 17.83 0 01-3.495-11.226 17.84 17.84 0 014.258-10.961 17.986 17.986 0 0110.174-5.965 18.042 18.042 0 0111.696 1.607 17.924 17.924 0 018.17 8.485h4.093a29.015 29.015 0 00-1.259-8.156 13.315 13.315 0 00-.364-.962l-1.696-4.49a1.894 1.894 0 00-.979-3.081 1.916 1.916 0 00-2.174.997 1.89 1.89 0 00.517 2.327c.34.271.764.418 1.2.416h.198l1.815 4.82-3.14 2.71c-1.748-5.275-2.755-7.3-7.067-10.728l-2.941-2.841c.13-.267.198-.56.199-.857a1.893 1.893 0 00-1.18-1.755 1.916 1.916 0 00-2.08.414 1.896 1.896 0 00-.408 2.072 1.9 1.9 0 001.767 1.168c.226-.004.45-.044.662-.12l3.544 3.423-.603 3.797c-3.153-2.288-6.332-4.615-10.154-5.676l-5.412-.442a1.891 1.891 0 00-.688-1.084 1.907 1.907 0 00-2.424.074 1.89 1.89 0 00-.38 2.383 1.91 1.91 0 003.274-.002l5.557.455v3.574c-4.22-.943-6.855.158-10.83 1.12l-4.682 1.042a1.876 1.876 0 00-1.683-1.022 1.914 1.914 0 00-1.72 1.05 1.891 1.891 0 00.188 1.998 1.906 1.906 0 001.885.714 1.911 1.911 0 001.475-1.369l5.3-1.114 1.139 1.945c-2.77.97-7.618 4.325-9.015 6.817l-3.723 3.376a1.995 1.995 0 00-.662-.125 1.913 1.913 0 00-1.762 1.172 1.89 1.89 0 00.413 2.069 1.911 1.911 0 003.257-1.343c-.01-.303-.094-.6-.246-.863l4.637-4.2 1.888.112a10.38 10.38 0 00-2.55 4.252l-.18.6c-.164.61-.292 1.229-.383 1.853L4.677 39.472c-.442.034-.858.22-1.176.527a1.889 1.889 0 00.767 3.17 1.909 1.909 0 002.239-.932 1.885 1.885 0 00-.505-2.363l1.987-9.467.603-.165a30.28 30.28 0 00.046 4.99l.41 14.716a1.884 1.884 0 00-.315 3.243 1.907 1.907 0 002.42-.148 1.89 1.89 0 00-.713-3.18l-.279-10.061c.093-.06.941-.613 1.107-.739 1.232 2.638 1.205 3.587 2.61 5.13l.794 14.926a1.903 1.903 0 00-.883.941 1.89 1.89 0 00.688 2.325 1.914 1.914 0 002.423-.242 1.895 1.895 0 00-.844-3.162l-.702-13.45v-1.635c3.657 4.154 3.974 5.083 8.18 7.575l.153 12.89a1.89 1.89 0 00-.306 3.258 1.914 1.914 0 002.43-.162 1.896 1.896 0 00-.74-3.189l-.146-12.355.053-3.606a60.459 60.459 0 0010.035 3.56l2.71 12.467a1.878 1.878 0 00-.584 1.358 1.892 1.892 0 001.172 1.759 1.916 1.916 0 002.08-.405 1.896 1.896 0 00.42-2.068 1.914 1.914 0 00-1.758-1.178l-3.311-15.117-.086-1.701c2.172.48 6.584-.396 9.167-1.629l9.842 9.487a1.93 1.93 0 00-.139.7c-.001.411.132.812.38 1.142a1.907 1.907 0 002.202.64 1.89 1.89 0 00.753-3.036 1.91 1.91 0 00-2.248-.454L46.1 44.648l-2.08-1.978-1.053-1.009c1.616-1.319 3.133-2.552 4.544-3.896l-3.676-.033z" fill="#fff"/><path d="M32.078 29.576l3.722 1.12a6.761 6.761 0 01-1.185 2.638 5.135 5.135 0 01-1.987 1.582 7.594 7.594 0 01-3.04.528 8.932 8.932 0 01-3.663-.66 5.831 5.831 0 01-2.458-2.3 7.758 7.758 0 01-1.026-4.18c0-2.268.602-4.002 1.815-5.222 1.212-1.22 2.92-1.826 5.133-1.826a7.007 7.007 0 014.087 1.048 6.177 6.177 0 012.205 3.21l-3.769.832a3.29 3.29 0 00-.417-.917 2.47 2.47 0 00-.868-.745 2.56 2.56 0 00-1.159-.25 2.507 2.507 0 00-2.212 1.153 4.932 4.932 0 00-.576 2.697c0 1.516.225 2.551.662 3.118a2.391 2.391 0 001.987.844 2.373 2.373 0 001.841-.66 4.237 4.237 0 00.908-2.01zm16.559 1.589h-7.63c.026.494.2.969.496 1.365a1.814 1.814 0 001.444.66c.37-.01.733-.112 1.053-.298.26-.177.484-.4.663-.659l3.762.343a5.379 5.379 0 01-2.08 2.143 7.575 7.575 0 01-3.504.659 7.225 7.225 0 01-3.113-.554 4.628 4.628 0 01-1.88-1.767 5.3 5.3 0 01-.743-2.841 4.964 4.964 0 011.497-3.765 5.702 5.702 0 014.127-1.437 7.374 7.374 0 013.378.66 4.328 4.328 0 011.888 1.865c.474.993.701 2.085.662 3.184l-.02.442zm-3.888-1.82a2.525 2.525 0 00-.596-1.582 1.718 1.718 0 00-1.265-.475 1.749 1.749 0 00-1.457.719 2.629 2.629 0 00-.438 1.319l3.756.02zm5.683 9.593V25.264h3.577v1.464c.356-.497.806-.92 1.325-1.246a3.862 3.862 0 011.914-.442 3.597 3.597 0 013.093 1.523 6.275 6.275 0 011.093 3.758 5.39 5.39 0 01-1.192 3.778 3.9 3.9 0 01-3.014 1.319 4.116 4.116 0 01-1.61-.304 3.87 3.87 0 01-1.324-.883v4.707h-3.862zm3.829-8.703a2.629 2.629 0 00.496 1.748 1.583 1.583 0 001.259.567 1.384 1.384 0 001.113-.541 2.936 2.936 0 00.45-1.86 2.714 2.714 0 00-.47-1.76 1.422 1.422 0 00-1.14-.567 1.536 1.536 0 00-1.218.574 2.819 2.819 0 00-.49 1.853v-.014zm16.479-.329c.668.036 1.304.3 1.802.745a2.221 2.221 0 01.662 1.7 2.476 2.476 0 01-.94 2.124c-.623.468-1.75.705-3.365.705h-5.69v-9.89h6.14a4.34 4.34 0 012.55.66 2.091 2.091 0 01.874 1.78 1.973 1.973 0 01-.57 1.398c-.403.405-.92.68-1.483.79l.02-.012zm-3.696-.857h.967c.662 0 .954-.297.954-.877 0-.468-.338-.706-1.014-.706h-.907v1.583zm0 3.797h1.258c.27.013.535-.064.756-.217a.712.712 0 00.291-.66c0-.593-.351-.896-1.047-.896h-1.258v1.773zm7.531-2.598a4.938 4.938 0 011.537-3.738 5.748 5.748 0 014.16-1.47c1.995 0 3.5.576 4.516 1.727a5.39 5.39 0 01-.298 7.174 5.815 5.815 0 01-4.212 1.463 5.98 5.98 0 01-3.882-1.213 4.86 4.86 0 01-1.822-3.943zm3.828 0c-.06.702.13 1.402.537 1.978a1.708 1.708 0 001.358.66 1.689 1.689 0 001.324-.62 3.07 3.07 0 00.53-1.978 2.95 2.95 0 00-.53-1.919 1.66 1.66 0 00-1.324-.659 1.742 1.742 0 00-1.378.66 2.963 2.963 0 00-.517 1.872v.006zM98.36 35.18h-3.815v-7.14h-2.908v7.14h-3.815v-9.89H98.36v9.89zm2.325 3.758V25.264h3.59v1.464a4.74 4.74 0 011.325-1.246 3.863 3.863 0 011.848-.442 3.597 3.597 0 013.093 1.523 6.274 6.274 0 011.093 3.758 5.389 5.389 0 01-1.192 3.778 3.908 3.908 0 01-3.014 1.319 4.093 4.093 0 01-1.609-.304c-.499-.2-.95-.5-1.325-.883v4.707h-3.809zm3.829-8.703a2.62 2.62 0 00.497 1.748 1.579 1.579 0 001.258.567 1.384 1.384 0 001.113-.541 2.938 2.938 0 00.45-1.86 2.708 2.708 0 00-.47-1.766 1.426 1.426 0 00-1.139-.567 1.554 1.554 0 00-1.226.573 2.816 2.816 0 00-.483 1.86v-.014zm20.089 4.945h-3.61v-4.879l-3.749 4.88h-3.636v-9.89h3.616v4.944l3.782-4.944h3.597v9.89zm9.949-5.274c.67.036 1.308.3 1.808.745a2.24 2.24 0 01.662 1.7 2.488 2.488 0 01-.954 2.124c-.629.468-1.748.705-3.371.705h-5.683v-9.89h6.147c.896-.05 1.785.18 2.543.66a2.1 2.1 0 01.881 1.78 1.972 1.972 0 01-.517 1.319 2.817 2.817 0 01-1.483.79l-.033.067zm-3.69-.857h.961c.662 0 .96-.297.96-.877 0-.468-.338-.706-1.013-.706h-.908v1.583zm0 3.797h1.232c.271.013.539-.064.762-.217a.726.726 0 00.291-.66c0-.593-.351-.896-1.053-.896h-1.252l.02 1.773zm7.531-2.597a4.946 4.946 0 011.537-3.739 5.743 5.743 0 014.153-1.47c1.996 0 3.504.576 4.524 1.727a5.389 5.389 0 01-.298 7.174 5.831 5.831 0 01-4.219 1.463 5.981 5.981 0 01-3.882-1.213 4.874 4.874 0 01-1.815-3.942zm3.822 0a2.947 2.947 0 00.543 1.978 1.777 1.777 0 002.101.46c.234-.107.442-.265.608-.46a3.11 3.11 0 00.53-1.978 2.908 2.908 0 00-.536-1.919 1.649 1.649 0 00-1.325-.66 1.756 1.756 0 00-1.384.66 2.99 2.99 0 00-.537 1.912v.007zM163 38.008h-2.649V35.18h-7.061v2.828h-2.65v-5.604h.967a9.928 9.928 0 001.054-4.898v-2.242h9.273v7.14h1.046l.02 5.604zm-4.875-5.604V28.04h-1.828v.112a11.076 11.076 0 01-.901 4.252h2.729zM78.066 15.975h1.61v1.813h1.761v-1.813h1.643v5.162h-1.616v-2.07h-1.762v2.07h-1.61l-.026-5.162zm9.65.395c1.585.168 2.376.875 2.371 2.123-.004 1.249-.794 1.959-2.37 2.13v.514h-1.471v-.527c-1.577-.132-2.371-.838-2.371-2.117s.794-1.977 2.37-2.123v-.395h1.471v.395zm-1.47 3.185v-2.15a1.06 1.06 0 00-.576.41 1.13 1.13 0 00-.22.659c-.006.238.072.471.22.659.136.195.33.343.556.422h.02zm1.47 0a1.073 1.073 0 00.802-1.055 1.15 1.15 0 00-.802-1.12v2.175zm8.134 1.582h-1.61v-3.89h-1.768v3.89h-1.61v-5.162h4.988v5.162zm3.312-3.956c.22-.435.568-.794.997-1.03a2.44 2.44 0 011.407-.288 2.735 2.735 0 011.987.698 2.62 2.62 0 01.702 1.978 2.74 2.74 0 01-.662 2.018 2.65 2.65 0 01-1.987.705 2.904 2.904 0 01-1.735-.448 2.368 2.368 0 01-.855-1.154l1.517-.402a1.056 1.056 0 002.073-.198h-1.57v-.969h1.577a1.012 1.012 0 00-1.073-1.002.926.926 0 00-.954.66l-1.424-.568zm10.24 3.956h-1.451v-2.683h-1.099v1.582c.025.332-.066.663-.259.936a.997.997 0 01-.788.303 4.915 4.915 0 01-1.086-.111v-1.069c.126.045.257.071.391.08.192 0 .291-.146.291-.429v-2.34h3.974l.027 3.731zm5.067-1.497h-2.908a.96.96 0 00.186.521.695.695 0 00.549.244.807.807 0 00.656-.343l1.424.126a1.983 1.983 0 01-.788.817c-.416.186-.87.27-1.325.244a2.736 2.736 0 01-1.179-.21 1.687 1.687 0 01-.715-.66 2.056 2.056 0 01-.285-1.081 1.883 1.883 0 01.57-1.424 2.15 2.15 0 011.57-.547 2.77 2.77 0 011.278.243c.302.156.549.4.709.7.176.377.26.79.245 1.206l.013.165zm-1.47-.659a.955.955 0 00-.232-.593.627.627 0 00-.477-.185.664.664 0 00-.557.277c-.098.15-.155.323-.165.501h1.431zm6.338 2.156h-1.629l-.556-1.035a.735.735 0 00-.259-.316.722.722 0 00-.311-.06v1.411h-1.451V17.38h1.451v1.385a.399.399 0 00.265-.119c.096-.136.178-.282.245-.435a2.54 2.54 0 01.291-.495.84.84 0 01.325-.23c.159-.059.327-.092.497-.1h.894v1.023h-.066a2.552 2.552 0 00-.444 0 .516.516 0 00-.245.092 1.086 1.086 0 00-.212.303 1.54 1.54 0 01-.206.323.455.455 0 01-.231.126c.162.007.32.05.463.125.204.189.372.412.497.66l.682 1.1zm3.656-2.683h-1.046v2.683h-1.451v-2.683h-1.053v-1.049h3.55v1.049zm.524 4.14v-5.189h1.325v.554c.139-.19.315-.35.516-.474.217-.113.458-.17.702-.165a1.372 1.372 0 011.173.573c.283.423.426.923.41 1.431a2.064 2.064 0 01-.45 1.43 1.469 1.469 0 01-1.139.495 1.611 1.611 0 01-.583-.112 1.57 1.57 0 01-.497-.336v1.793h-1.457zm1.457-3.296a.978.978 0 00.185.659.6.6 0 00.477.218.528.528 0 00.424-.211 1.12 1.12 0 00.173-.7 1.044 1.044 0 00-.179-.659.544.544 0 00-.437-.217.59.59 0 00-.464.217 1.115 1.115 0 00-.179.693zm3.219 0a1.882 1.882 0 01.583-1.424 2.197 2.197 0 011.576-.554 2.178 2.178 0 011.716.659 2.05 2.05 0 01-.113 2.723 2.217 2.217 0 01-1.596.554 2.246 2.246 0 01-1.477-.462 1.844 1.844 0 01-.689-1.496zm1.451 0c-.019.264.054.527.205.745a.663.663 0 00.517.237.664.664 0 00.51-.237c.157-.22.229-.49.205-.759a1.1 1.1 0 00-.205-.731.667.667 0 00-1.027.006 1.156 1.156 0 00-.205.732v.007zm7.57 1.839h-1.444v-2.683h-1.106v2.683h-1.45V17.38h3.974l.026 3.758zm.881 1.457v-5.189h1.358v.554c.14-.19.315-.35.517-.474.216-.113.458-.17.702-.165a1.366 1.366 0 011.172.573c.283.423.427.923.411 1.431a2.029 2.029 0 01-.451 1.43 1.465 1.465 0 01-1.139.495 1.613 1.613 0 01-.622-.112 1.57 1.57 0 01-.497-.336v1.793h-1.451zm1.457-3.296a.984.984 0 00.186.659.606.606 0 00.477.218.534.534 0 00.424-.211c.133-.208.193-.454.172-.7a1.044 1.044 0 00-.179-.659.544.544 0 00-.437-.217.569.569 0 00-.457.217c-.14.203-.205.448-.186.693zm7.618 1.839h-1.371v-1.826l-1.418 1.826h-1.378V17.38h1.365v1.873l1.437-1.873h1.365v3.758zm3.775-1.977c.247.015.481.115.663.283a.85.85 0 01.258.659.95.95 0 01-.358.81 2.23 2.23 0 01-1.278.265h-2.153v-3.758h2.332c.337-.022.672.06.96.237a.792.792 0 01.281.945.729.729 0 01-.162.242 1.03 1.03 0 01-.563.296l.02.02zm-1.404-.33h.371c.238 0 .358-.106.358-.33 0-.224-.126-.27-.385-.27h-.344v.6zm0 1.443h.477a.45.45 0 00.291-.085.26.26 0 00.082-.103.259.259 0 00.024-.128c0-.23-.132-.343-.397-.343h-.477v.66zm2.861-.975a1.881 1.881 0 01.583-1.424 2.552 2.552 0 013.312.099c.314.366.48.836.464 1.318a1.893 1.893 0 01-.577 1.424 2.582 2.582 0 01-3.073.093 1.824 1.824 0 01-.709-1.51zm1.451 0c-.022.264.051.528.205.745a.668.668 0 00.798.179.659.659 0 00.229-.18c.151-.222.222-.49.199-.758a1.14 1.14 0 00-.199-.731.667.667 0 00-1.027.006 1.118 1.118 0 00-.205.732v.007zm7.882 2.94h-1v-1.1h-2.65v1.074h-1.006v-2.097h.364a3.79 3.79 0 00.397-1.859v-.85h3.524v2.71h.398l-.027 2.122zm-1.821-2.123v-1.661h-.696v.046a4.178 4.178 0 01-.344 1.615h1.04z" fill="#fff"/></svg>