<svg width="29" height="29" viewBox="0 0 29 29" fill="none" xmlns="http://www.w3.org/2000/svg">
<path d="M14.5 6.04167C19.1642 6.04167 22.9583 9.83583 22.9583 14.5C22.9583 19.1642 19.1642 22.9583 14.5 22.9583C9.83583 22.9583 6.04167 19.1642 6.04167 14.5C6.04167 9.83583 9.83583 6.04167 14.5 6.04167ZM14.5 3.625C13.0718 3.62508 11.6576 3.90646 10.3381 4.45309C9.01867 4.99971 7.8198 5.80087 6.80996 6.81082C5.80013 7.82077 4.9991 9.01973 4.45262 10.3392C3.90615 11.6588 3.62492 13.073 3.625 14.5012C3.62508 15.9294 3.90646 17.3436 4.45309 18.6631C4.99971 19.9825 5.80087 21.1814 6.81082 22.1912C7.82077 23.2011 9.01973 24.0021 10.3392 24.5486C11.6588 25.0951 13.073 25.3763 14.5012 25.3762C17.3856 25.376 20.1518 24.2301 22.1912 22.1904C24.2307 20.1507 25.3764 17.3844 25.3762 14.5C25.376 11.6156 24.2301 8.84942 22.1904 6.80996C20.1507 4.77051 17.3844 3.62484 14.5 3.625ZM5.53417 5.53417L4.22917 4.22917C2.85345 5.6338 1.76966 7.29707 1.04037 9.12292L2.77917 9.66667C3.42262 8.1245 4.35811 6.72126 5.53417 5.53417ZM2.06625 17.0375C1.89708 16.2158 1.8125 15.37 1.8125 14.5C1.8125 13.63 1.89708 12.7842 2.06625 11.9625L0.332292 11.4308C0.118417 12.4217 0 13.4488 0 14.5C0 15.5513 0.118417 16.5783 0.332292 17.5692L2.06625 17.0375ZM27.9608 9.12292C27.2238 7.28625 26.1363 5.61875 24.7708 4.22917L23.4658 5.53417C24.6379 6.71833 25.5683 8.10792 26.2208 9.66667L27.9608 9.12292ZM1.04037 19.8771C1.77625 21.75 2.86375 23.3813 4.22917 24.7708L5.53417 23.4658C4.35811 22.2787 3.42262 20.8755 2.77917 19.3333L1.04037 19.8771ZM23.4658 23.4658L24.7708 24.7708C26.1363 23.3813 27.2238 21.75 27.9608 19.8771L26.2208 19.3333C25.5774 20.8755 24.6419 22.2787 23.4658 23.4658ZM26.9338 11.9625C27.1029 12.7842 27.1875 13.63 27.1875 14.5C27.1875 15.37 27.1029 16.2158 26.9338 17.0375L28.6737 17.5692C28.8792 16.5783 29 15.5513 29 14.5C29 13.4488 28.8792 12.4217 28.6737 11.4308L26.9338 11.9625Z" fill="#21395A"/>
</svg>
