<svg width="32" height="32" viewBox="0 0 32 32" fill="none" xmlns="http://www.w3.org/2000/svg">
<path d="M26.6333 19.9329L21.6717 14.9729C21.7756 14.4663 21.827 13.9503 21.8254 13.4332C21.825 12.0151 21.4678 10.6201 20.7869 9.37698C20.106 8.13387 19.1233 7.0828 17.9296 6.32093C16.7359 5.55907 15.3698 5.11099 13.9575 5.01811C12.5453 4.92524 11.1324 5.19057 9.84959 5.78958C9.68707 5.86396 9.54512 5.97698 9.43608 6.11881C9.32705 6.26064 9.25421 6.42699 9.22391 6.60342C9.19373 6.77762 9.2059 6.95653 9.25941 7.12501C9.31291 7.29349 9.40616 7.44655 9.53126 7.57124L14.3062 12.3444L12.3304 14.324L7.5664 9.53988C7.4409 9.41648 7.28765 9.3251 7.11954 9.27343C6.95144 9.22175 6.77341 9.21129 6.60043 9.24293C6.42544 9.27218 6.26013 9.34349 6.11866 9.45075C5.9772 9.55801 5.86378 9.69803 5.78814 9.85882C5.18828 11.1483 4.92369 12.5689 5.01898 13.9884C5.11427 15.4079 5.56635 16.7802 6.33316 17.9776C7.09997 19.175 8.15659 20.1587 9.40475 20.837C10.6529 21.5154 12.052 21.8665 13.472 21.8576C13.9881 21.8592 14.5031 21.8076 15.0087 21.7036L19.9593 26.6747C20.0614 26.7778 20.1828 26.8596 20.3165 26.9154C20.4503 26.9713 20.5938 27 20.7387 27C20.8836 27 21.0271 26.9713 21.1608 26.9154C21.2946 26.8596 21.416 26.7778 21.518 26.6747C21.6209 26.5724 21.7026 26.4508 21.7583 26.3168C21.814 26.1828 21.8427 26.039 21.8427 25.8938C21.8427 25.7486 21.814 25.6049 21.7583 25.4709C21.7026 25.3369 21.6209 25.2152 21.518 25.113L16.1394 19.724C16.0049 19.5902 15.8383 19.4936 15.6555 19.4435C15.4728 19.3933 15.2802 19.3915 15.0966 19.438C14.5666 19.5802 14.0206 19.6542 13.472 19.658C12.651 19.6652 11.8366 19.5097 11.0759 19.2002C10.3151 18.8908 9.623 18.4336 9.03938 17.855C8.45575 17.2764 7.99216 16.5878 7.67531 15.8289C7.35846 15.07 7.1946 14.2558 7.19318 13.4332C7.19176 13.0647 7.22114 12.6969 7.281 12.3334L11.5839 16.6556C11.686 16.7586 11.8074 16.8405 11.9412 16.8963C12.0749 16.9521 12.2184 16.9809 12.3633 16.9809C12.5082 16.9809 12.6517 16.9521 12.7854 16.8963C12.9192 16.8405 13.0406 16.7586 13.1427 16.6556L16.6333 13.1252C16.8312 12.9201 16.9418 12.6461 16.9418 12.3609C16.9418 12.0756 16.8312 11.8016 16.6333 11.5965L12.3633 7.2853C12.7262 7.22592 13.0933 7.19649 13.461 7.19731C15.1098 7.20023 16.69 7.8585 17.8549 9.02763C19.0197 10.1968 19.6739 11.7812 19.6739 13.4332C19.6701 13.9829 19.5963 14.5298 19.4544 15.0608C19.4079 15.2449 19.4098 15.4378 19.4598 15.6209C19.5098 15.804 19.6063 15.971 19.7398 16.1057L25.1185 21.4946C25.3252 21.7017 25.6055 21.8181 25.8978 21.8181C26.1901 21.8181 26.4705 21.7017 26.6772 21.4946C26.8839 21.2876 27 21.0067 27 20.7138C27 20.4209 26.8839 20.14 26.6772 19.9329H26.6333Z" fill="#21395A"/>
</svg>
