<svg width="32" height="32" viewBox="0 0 32 32" fill="none" xmlns="http://www.w3.org/2000/svg">
<path d="M5.3335 26.6666V17.3333H14.6668L10.3775 21.6266C11.1101 22.3758 11.9847 22.9715 12.95 23.379C13.9154 23.7865 14.9523 23.9976 16.0002 24C17.6525 23.9975 19.2636 23.4835 20.612 22.5285C21.9604 21.5736 22.9801 20.2245 23.5308 18.6666H23.5548C23.7068 18.2333 23.8228 17.7866 23.9002 17.3333H26.5828C26.2581 19.9109 25.0038 22.2814 23.0553 23.9999C21.1068 25.7183 18.5982 26.6666 16.0002 26.6666H15.9868C14.5866 26.6708 13.1994 26.3972 11.9056 25.8617C10.6118 25.3261 9.43712 24.5393 8.4495 23.5466L5.3335 26.6666ZM8.09883 14.6666H5.41616C5.7408 12.0899 6.99435 9.72017 8.9417 8.00185C10.8891 6.28352 13.3964 5.33469 15.9935 5.33331H16.0002C17.4006 5.32887 18.7881 5.60235 20.0821 6.13791C21.3762 6.67347 22.5511 7.46047 23.5388 8.45331L26.6668 5.33331V14.6666H17.3335L21.6295 10.3733C20.8961 9.62327 20.0205 9.02705 19.0539 8.61953C18.0873 8.21201 17.0492 8.00138 16.0002 7.99997C14.3478 8.00241 12.7368 8.51643 11.3883 9.4714C10.0399 10.4264 9.02028 11.7755 8.4695 13.3333H8.4455C8.29216 13.7666 8.17616 14.2133 8.10016 14.6666H8.09883Z" fill="#21395A"/>
</svg>
