<svg width="23" height="23" viewBox="0 0 23 23" fill="none" xmlns="http://www.w3.org/2000/svg">
<path d="M11.5 4.79167C15.1992 4.79167 18.2083 7.80083 18.2083 11.5C18.2083 15.1992 15.1992 18.2083 11.5 18.2083C7.80083 18.2083 4.79167 15.1992 4.79167 11.5C4.79167 7.80083 7.80083 4.79167 11.5 4.79167ZM11.5 2.875C10.3673 2.87506 9.24568 3.09823 8.19921 3.53176C7.15274 3.96529 6.20191 4.60069 5.40101 5.40168C4.6001 6.20268 3.9648 7.15358 3.53139 8.20009C3.09798 9.24661 2.87494 10.3682 2.875 11.501C2.87506 12.6337 3.09823 13.7553 3.53176 14.8017C3.96529 15.8482 4.60069 16.799 5.40168 17.6C6.20268 18.4009 7.15358 19.0362 8.20009 19.4696C9.24661 19.903 10.3682 20.126 11.501 20.126C13.7886 20.1258 15.9825 19.217 17.6 17.5993C19.2175 15.9816 20.1261 13.7876 20.126 11.5C20.1258 9.21238 19.217 7.01851 17.5993 5.40101C15.9816 3.7835 13.7876 2.87487 11.5 2.875ZM4.38917 4.38917L3.35417 3.35417C2.26308 4.46818 1.40352 5.78733 0.825125 7.23542L2.20417 7.66667C2.71449 6.44357 3.45643 5.33065 4.38917 4.38917ZM1.63875 13.5125C1.50458 12.8608 1.4375 12.19 1.4375 11.5C1.4375 10.81 1.50458 10.1392 1.63875 9.4875L0.263542 9.06583C0.0939167 9.85167 0 10.6662 0 11.5C0 12.3337 0.0939167 13.1483 0.263542 13.9342L1.63875 13.5125ZM22.1758 7.23542C21.5912 5.77875 20.7288 4.45625 19.6458 3.35417L18.6108 4.38917C19.5404 5.32833 20.2783 6.43042 20.7958 7.66667L22.1758 7.23542ZM0.825125 15.7646C1.40875 17.25 2.27125 18.5437 3.35417 19.6458L4.38917 18.6108C3.45643 17.6693 2.71449 16.5564 2.20417 15.3333L0.825125 15.7646ZM18.6108 18.6108L19.6458 19.6458C20.7288 18.5437 21.5912 17.25 22.1758 15.7646L20.7958 15.3333C20.2855 16.5564 19.5436 17.6693 18.6108 18.6108ZM21.3612 9.4875C21.4954 10.1392 21.5625 10.81 21.5625 11.5C21.5625 12.19 21.4954 12.8608 21.3612 13.5125L22.7412 13.9342C22.9042 13.1483 23 12.3337 23 11.5C23 10.6662 22.9042 9.85167 22.7412 9.06583L21.3612 9.4875Z" fill="#21395A"/>
</svg>
