<svg width="24" height="24" viewBox="0 0 24 24" fill="none" xmlns="http://www.w3.org/2000/svg">
<path d="M19.975 14.9497L16.2538 11.2296C16.3317 10.8497 16.3703 10.4627 16.369 10.0749C16.3688 9.01135 16.1009 7.96507 15.5902 7.03273C15.0795 6.1004 14.3424 5.3121 13.4472 4.7407C12.5519 4.1693 11.5273 3.83324 10.4681 3.76359C9.40895 3.69393 8.34932 3.89293 7.3872 4.34218C7.2653 4.39797 7.15884 4.48273 7.07706 4.58911C6.99528 4.69548 6.94066 4.82024 6.91793 4.95257C6.89529 5.08321 6.90443 5.2174 6.94455 5.34376C6.98468 5.47011 7.05462 5.58492 7.14845 5.67843L10.7297 9.25827L9.24778 10.743L5.6748 7.15491C5.58067 7.06236 5.46573 6.99383 5.33966 6.95507C5.21358 6.91631 5.08006 6.90847 4.95032 6.9322C4.81908 6.95414 4.6951 7.00762 4.589 7.08806C4.4829 7.16851 4.39784 7.27352 4.34111 7.39411C3.89121 8.36125 3.69277 9.42668 3.76424 10.4913C3.8357 11.5559 4.17476 12.5851 4.74987 13.4832C5.32498 14.3813 6.11745 15.119 7.05356 15.6278C7.98967 16.1366 9.03902 16.3999 10.104 16.3932C10.4911 16.3944 10.8773 16.3557 11.2566 16.2777L14.9695 20.006C15.046 20.0833 15.1371 20.1447 15.2374 20.1866C15.3377 20.2284 15.4453 20.25 15.554 20.25C15.6627 20.25 15.7703 20.2284 15.8706 20.1866C15.9709 20.1447 16.062 20.0833 16.1385 20.006C16.2157 19.9293 16.2769 19.8381 16.3187 19.7376C16.3605 19.6371 16.382 19.5293 16.382 19.4204C16.382 19.3115 16.3605 19.2037 16.3187 19.1032C16.2769 19.0026 16.2157 18.9114 16.1385 18.8347L12.1045 14.793C12.0037 14.6927 11.8787 14.6202 11.7416 14.5826C11.6046 14.545 11.4602 14.5436 11.3224 14.5785C10.9249 14.6852 10.5155 14.7406 10.104 14.7435C9.48821 14.7489 8.87746 14.6323 8.3069 14.4002C7.73634 14.1681 7.21725 13.8252 6.77953 13.3912C6.34182 12.9573 5.99412 12.4408 5.75648 11.8717C5.51884 11.3025 5.39595 10.6918 5.39489 10.0749C5.39382 9.79855 5.41585 9.52264 5.46075 9.25002L8.68796 12.4917C8.76449 12.569 8.85555 12.6303 8.95587 12.6722C9.05619 12.7141 9.1638 12.7357 9.27248 12.7357C9.38116 12.7357 9.48876 12.7141 9.58909 12.6722C9.68941 12.6303 9.78046 12.569 9.857 12.4917L12.475 9.84391C12.6234 9.6901 12.7063 9.48455 12.7063 9.27064C12.7063 9.05672 12.6234 8.85118 12.475 8.69737L9.27248 5.46397C9.54464 5.41944 9.81998 5.39737 10.0957 5.39799C11.3323 5.40017 12.5175 5.89388 13.3911 6.77072C14.2648 7.64757 14.7554 8.83591 14.7554 10.0749C14.7526 10.4871 14.6972 10.8974 14.5908 11.2956C14.5559 11.4337 14.5573 11.5784 14.5948 11.7157C14.6324 11.853 14.7047 11.9782 14.8048 12.0792L18.8388 16.121C18.9939 16.2763 19.2041 16.3636 19.4234 16.3636C19.6426 16.3636 19.8529 16.2763 20.0079 16.121C20.1629 15.9657 20.25 15.755 20.25 15.5353C20.25 15.3157 20.1629 15.105 20.0079 14.9497H19.975Z" fill="#21395A"/>
</svg>
