<svg width="32" height="32" viewBox="0 0 32 32" fill="none" xmlns="http://www.w3.org/2000/svg">
<path d="M29.2267 15.4933C29.1632 15.3297 29.0681 15.1801 28.9467 15.0533L23.6134 9.72C23.489 9.59569 23.3415 9.49707 23.179 9.42979C23.0166 9.36251 22.8425 9.32788 22.6667 9.32788C22.3116 9.32788 21.9711 9.46893 21.72 9.72C21.469 9.97107 21.3279 10.3116 21.3279 10.6667C21.3279 11.0217 21.469 11.3623 21.72 11.6133L24.7867 14.6667H7.21336L10.28 11.6133C10.4043 11.489 10.503 11.3414 10.5702 11.179C10.6375 11.0166 10.6721 10.8425 10.6721 10.6667C10.6721 10.4909 10.6375 10.3168 10.5702 10.1543C10.503 9.99191 10.4043 9.84432 10.28 9.72C10.1557 9.59569 10.0081 9.49707 9.84569 9.42979C9.68326 9.36251 9.50917 9.32788 9.33336 9.32788C9.15755 9.32788 8.98345 9.36251 8.82103 9.42979C8.6586 9.49707 8.51101 9.59569 8.38669 9.72L3.05336 15.0533C2.93197 15.1801 2.83682 15.3297 2.77336 15.4933C2.64 15.818 2.64 16.1821 2.77336 16.5067C2.83682 16.6703 2.93197 16.8199 3.05336 16.9467L8.38669 22.28C8.51064 22.405 8.65811 22.5042 8.82059 22.5719C8.98307 22.6396 9.15734 22.6744 9.33336 22.6744C9.50937 22.6744 9.68365 22.6396 9.84613 22.5719C10.0086 22.5042 10.1561 22.405 10.28 22.28C10.405 22.1561 10.5042 22.0086 10.5719 21.8461C10.6396 21.6836 10.6744 21.5094 10.6744 21.3333C10.6744 21.1573 10.6396 20.983 10.5719 20.8206C10.5042 20.6581 10.405 20.5106 10.28 20.3867L7.21336 17.3333H24.7867L21.72 20.3867C21.5951 20.5106 21.4959 20.6581 21.4282 20.8206C21.3605 20.983 21.3256 21.1573 21.3256 21.3333C21.3256 21.5094 21.3605 21.6836 21.4282 21.8461C21.4959 22.0086 21.5951 22.1561 21.72 22.28C21.844 22.405 21.9914 22.5042 22.1539 22.5719C22.3164 22.6396 22.4907 22.6744 22.6667 22.6744C22.8427 22.6744 23.017 22.6396 23.1795 22.5719C23.3419 22.5042 23.4894 22.405 23.6134 22.28L28.9467 16.9467C29.0681 16.8199 29.1632 16.6703 29.2267 16.5067C29.36 16.1821 29.36 15.818 29.2267 15.4933Z" fill="#21395A"/>
</svg>
