<svg width="24" height="24" viewBox="0 0 24 24" fill="none" xmlns="http://www.w3.org/2000/svg">
<path d="M21.9199 11.6201C21.8723 11.4973 21.8009 11.3852 21.7099 11.2901L17.7099 7.29006C17.6167 7.19682 17.506 7.12286 17.3841 7.0724C17.2623 7.02194 17.1318 6.99597 16.9999 6.99597C16.7336 6.99597 16.4782 7.10176 16.2899 7.29006C16.1016 7.47837 15.9958 7.73376 15.9958 8.00006C15.9958 8.26636 16.1016 8.52176 16.2899 8.71006L18.5899 11.0001H5.4099L7.7099 8.71006C7.80313 8.61682 7.8771 8.50613 7.92756 8.38431C7.97802 8.26249 8.00399 8.13192 8.00399 8.00006C8.00399 7.8682 7.97802 7.73764 7.92756 7.61581C7.8771 7.49399 7.80313 7.3833 7.7099 7.29006C7.61666 7.19682 7.50597 7.12286 7.38415 7.0724C7.26232 7.02194 7.13176 6.99597 6.9999 6.99597C6.86804 6.99597 6.73747 7.02194 6.61565 7.0724C6.49383 7.12286 6.38313 7.19682 6.2899 7.29006L2.2899 11.2901C2.19886 11.3852 2.12749 11.4973 2.0799 11.6201C1.97988 11.8635 1.97988 12.1366 2.0799 12.3801C2.12749 12.5028 2.19886 12.615 2.2899 12.7101L6.2899 16.7101C6.38286 16.8038 6.49346 16.8782 6.61532 16.929C6.73718 16.9797 6.86788 17.0059 6.9999 17.0059C7.13191 17.0059 7.26261 16.9797 7.38447 16.929C7.50633 16.8782 7.61693 16.8038 7.7099 16.7101C7.80363 16.6171 7.87802 16.5065 7.92879 16.3846C7.97956 16.2628 8.00569 16.1321 8.00569 16.0001C8.00569 15.868 7.97956 15.7373 7.92879 15.6155C7.87802 15.4936 7.80363 15.383 7.7099 15.2901L5.4099 13.0001H18.5899L16.2899 15.2901C16.1962 15.383 16.1218 15.4936 16.071 15.6155C16.0202 15.7373 15.9941 15.868 15.9941 16.0001C15.9941 16.1321 16.0202 16.2628 16.071 16.3846C16.1218 16.5065 16.1962 16.6171 16.2899 16.7101C16.3829 16.8038 16.4935 16.8782 16.6153 16.929C16.7372 16.9797 16.8679 17.0059 16.9999 17.0059C17.1319 17.0059 17.2626 16.9797 17.3845 16.929C17.5063 16.8782 17.6169 16.8038 17.7099 16.7101L21.7099 12.7101C21.8009 12.615 21.8723 12.5028 21.9199 12.3801C22.0199 12.1366 22.0199 11.8635 21.9199 11.6201Z" fill="#21395A"/>
</svg>
