<svg width="20" height="20" viewBox="0 0 20 20" fill="none" xmlns="http://www.w3.org/2000/svg">
<path d="M15.3125 6.20781C15.2389 6.1336 15.1514 6.07471 15.0549 6.03452C14.9584 5.99433 14.8549 5.97363 14.7504 5.97363C14.6459 5.97363 14.5424 5.99433 14.446 6.03452C14.3495 6.07471 14.2619 6.1336 14.1883 6.20781L8.29043 12.1136L5.81251 9.62781C5.7361 9.55399 5.6459 9.49595 5.54705 9.457C5.44821 9.41805 5.34266 9.39894 5.23643 9.40078C5.13021 9.40262 5.02538 9.42536 4.92795 9.46771C4.83051 9.51006 4.74237 9.57119 4.66855 9.6476C4.59474 9.72401 4.5367 9.81421 4.49775 9.91306C4.45879 10.0119 4.43969 10.1174 4.44153 10.2237C4.44337 10.3299 4.46611 10.4347 4.50846 10.5322C4.55081 10.6296 4.61193 10.7177 4.68834 10.7916L7.72834 13.8316C7.80194 13.9058 7.8895 13.9647 7.98597 14.0048C8.08244 14.045 8.18592 14.0657 8.29043 14.0657C8.39494 14.0657 8.49841 14.045 8.59488 14.0048C8.69136 13.9647 8.77892 13.9058 8.85251 13.8316L15.3125 7.37156C15.3929 7.29742 15.457 7.20745 15.5009 7.1073C15.5447 7.00716 15.5674 6.89901 15.5674 6.78968C15.5674 6.68035 15.5447 6.57221 15.5009 6.47206C15.457 6.37191 15.3929 6.28194 15.3125 6.20781Z" fill="#102542"/>
</svg>
