<?xml version="1.0" encoding="UTF-8"?>
<svg xmlns="http://www.w3.org/2000/svg" xmlns:xlink="http://www.w3.org/1999/xlink" width="20px" height="20px" viewBox="0 0 20 20" version="1.1">
<g id="surface1">
<path style=" stroke:none;fill-rule:nonzero;fill:#4d8a07;fill-opacity:1;" d="M 4.066406 4.042969 L 2.773438 2.261719 C 1.785156 3.148438 1.058594 4.296875 0.601562 5.714844 L 2.613281 6.367188 C 2.949219 5.441406 3.433594 4.667969 4.066406 4.042969 Z M 15.121094 1.007812 L 15.164062 0.945312 C 14.074219 0.464844 12.796875 0.171875 11.332031 0.0625 L 11.332031 2.132812 C 12.066406 2.207031 12.746094 2.332031 13.355469 2.527344 C 13.628906 1.980469 14.394531 1.152344 15.121094 1.007812 Z M 2.054688 9.992188 C 2.054688 9.605469 2.074219 9.234375 2.105469 8.875 L 0.0976562 8.222656 C 0.0351562 8.785156 0 9.371094 0 9.996094 C 0 10.707031 0.0507812 11.375 0.128906 12.011719 L 2.128906 11.363281 C 2.085938 10.925781 2.054688 10.472656 2.054688 9.992188 Z M 8.792969 2.117188 L 8.792969 0.046875 C 7.316406 0.144531 6.035156 0.433594 4.929688 0.902344 L 6.230469 2.6875 C 6.984375 2.398438 7.828125 2.199219 8.792969 2.117188 Z M 15.890625 15.972656 L 17.175781 17.742188 C 18.128906 16.886719 18.851562 15.804688 19.316406 14.464844 L 17.304688 13.808594 C 16.972656 14.667969 16.496094 15.386719 15.890625 15.972656 Z M 19.972656 9.433594 C 19.394531 9.578125 18.480469 9.609375 17.917969 9.613281 C 17.921875 9.742188 17.933594 9.863281 17.933594 9.992188 C 17.933594 10.457031 17.902344 10.894531 17.863281 11.316406 L 19.871094 11.972656 C 19.949219 11.347656 19.988281 10.691406 19.988281 9.996094 C 19.988281 9.800781 19.976562 9.621094 19.972656 9.433594 Z M 0.683594 14.503906 C 1.164062 15.867188 1.894531 16.980469 2.886719 17.832031 L 4.171875 16.058594 C 3.539062 15.46875 3.054688 14.722656 2.707031 13.847656 Z M 18.152344 3.769531 C 18 3.648438 17.199219 3.332031 16.675781 3.660156 C 16.675781 3.660156 16.210938 4.09375 15.519531 4.777344 L 15.277344 5.113281 L 15.222656 5.074219 C 14.652344 5.644531 13.964844 6.34375 13.269531 7.097656 C 12.113281 8.34375 10.941406 9.882812 10.089844 11.058594 L 8.484375 8.769531 C 8.210938 8.046875 7.621094 7.679688 6.894531 7.949219 C 6.167969 8.222656 6.125 9.082031 6.398438 9.804688 L 8.527344 14.207031 C 8.527344 14.207031 8.53125 14.214844 8.53125 14.21875 C 8.601562 14.445312 8.726562 14.660156 8.917969 14.832031 C 9.488281 15.355469 10.375 15.324219 10.902344 14.753906 C 10.902344 14.753906 12.988281 11.214844 15.222656 8.808594 C 16.863281 7.035156 18.292969 5.175781 18.292969 5.175781 C 18.664062 4.558594 18.316406 3.90625 18.152344 3.769531 Z M 11.332031 17.855469 L 11.332031 19.925781 C 12.734375 19.824219 13.949219 19.53125 15.007812 19.085938 L 13.722656 17.316406 C 13.011719 17.582031 12.222656 17.769531 11.332031 17.855469 Z M 5.074219 19.144531 C 6.144531 19.582031 7.378906 19.847656 8.792969 19.941406 L 8.792969 17.871094 C 7.894531 17.792969 7.089844 17.621094 6.371094 17.363281 Z M 5.074219 19.144531 "/>
</g>
</svg>
