<svg width="18" height="19" viewBox="0 0 18 19" fill="none" xmlns="http://www.w3.org/2000/svg">
<path d="M10.6895 9.49933L17.736 2.45283C17.8753 2.29022 17.9481 2.08106 17.9398 1.86713C17.9315 1.65321 17.8429 1.45028 17.6915 1.2989C17.5401 1.14752 17.3372 1.05884 17.1232 1.05057C16.9093 1.04231 16.7001 1.11508 16.5375 1.25433L9.49104 8.30083L2.44454 1.24583C2.28448 1.08577 2.0674 0.99585 1.84104 0.99585C1.61469 0.99585 1.3976 1.08577 1.23754 1.24583C1.07748 1.40589 0.987564 1.62297 0.987564 1.84933C0.987564 2.07568 1.07748 2.29277 1.23754 2.45283L8.29254 9.49933L1.23754 16.5458C1.14856 16.622 1.07629 16.7158 1.02528 16.8213C0.974255 16.9267 0.945585 17.0416 0.941063 17.1586C0.936542 17.2757 0.956266 17.3924 0.999 17.5015C1.04173 17.6106 1.10655 17.7096 1.18939 17.7925C1.27223 17.8753 1.37129 17.9401 1.48037 17.9829C1.58944 18.0256 1.70618 18.0453 1.82324 18.0408C1.9403 18.0363 2.05516 18.0076 2.16062 17.9566C2.26607 17.9056 2.35984 17.8333 2.43604 17.7443L9.49104 10.6978L16.5375 17.7443C16.7001 17.8836 16.9093 17.9563 17.1232 17.9481C17.3372 17.9398 17.5401 17.8511 17.6915 17.6998C17.8429 17.5484 17.9315 17.3454 17.9398 17.1315C17.9481 16.9176 17.8753 16.7084 17.736 16.5458L10.6895 9.49933Z" fill="white"/>
</svg>
