<?xml version="1.0" encoding="UTF-8"?>
<svg xmlns="http://www.w3.org/2000/svg" xmlns:xlink="http://www.w3.org/1999/xlink" width="24px" height="24px" viewBox="0 0 24 24" version="1.1">
<g id="surface1">
<path style=" stroke:none;fill-rule:nonzero;fill:rgb(81.960784%,20.784314%,18.431373%);fill-opacity:1;" d="M 12.996094 2.027344 L 12.996094 4.050781 C 17.390625 4.589844 20.496094 8.578125 19.957031 12.972656 C 19.5 16.605469 16.640625 19.5 12.996094 19.933594 L 12.996094 21.925781 C 18.503906 21.378906 22.5 16.5 21.949219 11.003906 C 21.503906 6.246094 17.730469 2.496094 12.996094 2.027344 M 11.003906 2.058594 C 9.050781 2.25 7.191406 3 5.671875 4.261719 L 7.101562 5.742188 C 8.222656 4.839844 9.574219 4.261719 11.003906 4.058594 L 11.003906 2.058594 M 4.261719 5.671875 C 3 7.191406 2.25 9.042969 2.050781 11.003906 L 4.050781 11.003906 C 4.242188 9.582031 4.800781 8.230469 5.691406 7.101562 L 4.261719 5.671875 M 2.058594 12.996094 C 2.261719 14.957031 3.027344 16.808594 4.269531 18.328125 L 5.691406 16.898438 C 4.808594 15.769531 4.242188 14.417969 4.058594 12.996094 L 2.058594 12.996094 M 7.101562 18.371094 L 5.671875 19.738281 C 7.183594 21 9.042969 21.792969 11.003906 21.996094 L 11.003906 20.003906 C 9.582031 19.816406 8.230469 19.253906 7.101562 18.371094 M 14.589844 8.003906 L 12 10.589844 L 9.410156 8.003906 L 8.003906 9.410156 L 10.589844 12 L 8.003906 14.589844 L 9.410156 15.996094 L 12 13.410156 L 14.589844 15.996094 L 15.996094 14.589844 L 13.410156 12 L 15.996094 9.410156 Z M 14.589844 8.003906 "/>
</g>
</svg>
