<svg width="17" height="18" viewBox="0 0 17 18" fill="none" xmlns="http://www.w3.org/2000/svg">
<path d="M4.68917 8.14292C5.70917 10.1475 7.3525 11.7908 9.35708 12.8108L10.9154 11.2525C11.1137 11.0542 11.39 10.9975 11.6379 11.0754C12.4312 11.3375 13.2812 11.4792 14.1667 11.4792C14.3545 11.4792 14.5347 11.5538 14.6675 11.6866C14.8004 11.8195 14.875 11.9996 14.875 12.1875V14.6667C14.875 14.8545 14.8004 15.0347 14.6675 15.1675C14.5347 15.3004 14.3545 15.375 14.1667 15.375C10.973 15.375 7.91017 14.1063 5.65192 11.8481C3.39367 9.58983 2.125 6.52698 2.125 3.33333C2.125 3.14547 2.19963 2.9653 2.33247 2.83247C2.4653 2.69963 2.64547 2.625 2.83333 2.625H5.3125C5.50036 2.625 5.68053 2.69963 5.81337 2.83247C5.94621 2.9653 6.02083 3.14547 6.02083 3.33333C6.02083 4.21875 6.1625 5.06875 6.42458 5.86208C6.5025 6.11 6.44583 6.38625 6.2475 6.58458L4.68917 8.14292Z" fill="#3B373A"/>
</svg>
