<svg width="18" height="21" viewBox="0 0 18 21" fill="none" xmlns="http://www.w3.org/2000/svg">
<path d="M8.99976 5.08203C6.13141 5.08203 3.81152 7.40191 3.81152 10.2703C3.81152 14.1614 8.99976 19.9056 8.99976 19.9056C8.99976 19.9056 14.188 14.1614 14.188 10.2703C14.188 7.40191 11.8681 5.08203 8.99976 5.08203ZM8.99976 12.1232C8.50833 12.1232 8.03703 11.928 7.68953 11.5805C7.34204 11.233 7.14682 10.7617 7.14682 10.2703C7.14682 9.77884 7.34204 9.30753 7.68953 8.96004C8.03703 8.61255 8.50833 8.41733 8.99976 8.41733C9.49119 8.41733 9.96249 8.61255 10.31 8.96004C10.6575 9.30753 10.8527 9.77884 10.8527 10.2703C10.8527 10.7617 10.6575 11.233 10.31 11.5805C9.96249 11.928 9.49119 12.1232 8.99976 12.1232Z" fill="#3B373A"/>
</svg>
