<svg width="10" height="19" viewBox="0 0 10 19" fill="none" xmlns="http://www.w3.org/2000/svg">
<path fill-rule="evenodd" clip-rule="evenodd" d="M2.66437 18.9999L2.67865 10.7914H0.519725C0.239157 10.7914 0.0114381 10.5673 0.0103573 10.2902L3.82039e-06 7.64425C-0.00107704 7.36559 0.227325 7.13913 0.509428 7.13913H2.66443V4.58249C2.66443 1.61553 4.49887 0 7.17831 0H9.377C9.6583 0 9.88642 0.225275 9.88642 0.503203V2.73427C9.88642 3.01208 9.65847 3.2373 9.37728 3.23747L8.02798 3.23809C6.57081 3.23809 6.28865 3.92206 6.28865 4.92583V7.13919H9.49054C9.79563 7.13919 10.0323 7.40234 9.99638 7.70162L9.6789 10.3476C9.64852 10.6008 9.43115 10.7915 9.17306 10.7915H6.30293L6.28865 19L2.66437 18.9999Z" fill="#3B373A"/>
</svg>
