<svg style="display:none" xmlns="http://www.w3.org/2000/svg" xmlns:xlink="http://www.w3.org/1999/xlink">
  <symbol fill="none" xmlns="http://www.w3.org/2000/svg" viewBox="0 0 21 12" id="vk">
    <path fill-rule="evenodd" clip-rule="evenodd" d="M18.0731 7.6307C18.7695 8.31661 19.5058 8.9624 20.1308 9.72067C20.4069 10.0558 20.6681 10.4014 20.8672 10.7897C21.1498 11.3459 20.8937 11.9554 20.4015 11.989L17.3432 11.9876C16.5538 12.0531 15.9247 11.7318 15.3942 11.1865C14.9723 10.7523 14.578 10.2876 14.1707 9.83867C14.005 9.65383 13.8297 9.48098 13.6215 9.34312C13.2037 9.06977 12.8413 9.15276 12.6025 9.59211C12.3596 10.0397 12.3025 10.5366 12.2801 11.0349C12.2469 11.7624 12.0295 11.9527 11.3063 11.9877C9.75914 12.06 8.29181 11.8227 6.92908 11.0363C5.72562 10.3425 4.79429 9.36163 3.98349 8.25253C2.40336 6.0902 1.19316 3.7163 0.106565 1.27408C-0.139034 0.723672 0.0403652 0.428711 0.639831 0.418075C1.63916 0.398151 2.63809 0.400574 3.63602 0.416729C4.04196 0.423595 4.31129 0.657841 4.46656 1.04502C5.00662 2.38493 5.66722 3.6601 6.49642 4.84324C6.71822 5.15806 6.94375 5.47153 7.26335 5.6938C7.61762 5.94036 7.88835 5.85979 8.05541 5.45921C8.16175 5.20477 8.20828 4.93418 8.23068 4.66217C8.31015 3.73104 8.31968 2.7989 8.18281 1.87054C8.09788 1.29024 7.77288 0.915041 7.19982 0.805322C6.90768 0.749049 6.95148 0.640676 7.09215 0.471589C7.33908 0.181137 7.57142 0 8.03168 0H11.4881C12.0333 0.107363 12.1555 0.355273 12.2296 0.908511L12.2323 4.78697C12.2259 5.00129 12.3387 5.63611 12.7194 5.77672C13.0244 5.87857 13.2275 5.63059 13.4106 5.43512C14.2384 4.54821 14.8291 3.49949 15.3569 2.41435C15.5905 1.93731 15.7923 1.44176 15.9887 0.945802C16.1333 0.578817 16.3589 0.398084 16.7689 0.404613L20.0966 0.408719C20.1947 0.408719 20.2957 0.408719 20.3925 0.424807C20.9522 0.522544 21.1061 0.766415 20.9322 1.31959C20.6605 2.18623 20.1282 2.90983 19.6095 3.63452C19.0535 4.41029 18.4618 5.15893 17.9099 5.93881C17.4057 6.65293 17.4455 7.01197 18.0731 7.6307Z" fill="#3B373A"></path>
  </symbol>
  <symbol fill="none" xmlns="http://www.w3.org/2000/svg" viewBox="0 0 10 19" id="facebook">
    <path fill-rule="evenodd" clip-rule="evenodd" d="M2.66437 18.9999L2.67865 10.7914H0.519725C0.239157 10.7914 0.0114381 10.5673 0.0103573 10.2902L3.82039e-06 7.64425C-0.00107704 7.36559 0.227325 7.13913 0.509428 7.13913H2.66443V4.58249C2.66443 1.61553 4.49887 0 7.17831 0H9.377C9.6583 0 9.88642 0.225275 9.88642 0.503203V2.73427C9.88642 3.01208 9.65847 3.2373 9.37728 3.23747L8.02798 3.23809C6.57081 3.23809 6.28865 3.92206 6.28865 4.92583V7.13919H9.49054C9.79563 7.13919 10.0323 7.40234 9.99638 7.70162L9.6789 10.3476C9.64852 10.6008 9.43115 10.7915 9.17306 10.7915H6.30293L6.28865 19L2.66437 18.9999Z" fill="#3B373A"></path>
  </symbol>
  <symbol fill="none" xmlns="http://www.w3.org/2000/svg" viewBox="0 0 24 24" id="instagram">
    <path d="M12.0005 0C8.7387 0 8.3322 0.01575 7.0557 0.06975C5.77395 0.13275 4.90695 0.3315 4.14195 0.6285C3.3413 0.930765 2.6162 1.40401 2.0172 2.01525C1.40426 2.61285 0.930751 3.33835 0.630453 4.14C0.333453 4.905 0.134703 5.772 0.0717031 7.05375C0.0139531 8.331 0.00195312 8.73675 0.00195312 11.9985C0.00195312 15.2603 0.0177031 15.6667 0.0717031 16.9432C0.134703 18.2213 0.333453 19.092 0.630453 19.857C0.932719 20.6577 1.40596 21.3828 2.0172 21.9818C2.6148 22.5947 3.3403 23.0682 4.14195 23.3685C4.90695 23.6618 5.7777 23.8643 7.0557 23.9272C8.33295 23.985 8.7387 23.997 12.0005 23.997C15.2622 23.997 15.6687 23.9813 16.9452 23.9272C18.2232 23.8643 19.094 23.661 19.859 23.3685C20.6596 23.0662 21.3847 22.593 21.9837 21.9818C22.5974 21.3848 23.0711 20.6591 23.3705 19.857C23.6637 19.092 23.8662 18.2213 23.9292 16.9432C23.987 15.666 23.999 15.2603 23.999 11.9985C23.999 8.73675 23.9832 8.33025 23.9292 7.05375C23.8662 5.77575 23.663 4.9005 23.3705 4.14C23.0682 3.33935 22.5949 2.61425 21.9837 2.01525C21.3868 1.40152 20.6611 0.927885 19.859 0.6285C19.094 0.3315 18.2232 0.13275 16.9452 0.06975C15.668 0.012 15.2622 0 12.0005 0ZM12.0005 2.16C15.2037 2.16 15.5862 2.17575 16.8522 2.22975C18.02 2.2845 18.656 2.4795 19.0782 2.6445C19.6002 2.83719 20.0727 3.14389 20.4612 3.54225C20.8589 3.92912 21.1644 4.40051 21.3552 4.9215C21.5202 5.34375 21.7152 5.97975 21.77 7.1475C21.824 8.4135 21.8397 8.79675 21.8397 11.9992C21.8397 15.2017 21.824 15.585 21.7655 16.851C21.7025 18.0188 21.5075 18.6548 21.3432 19.077C21.116 19.6403 20.8625 20.034 20.444 20.46C20.0541 20.8559 19.582 21.1611 19.061 21.354C18.644 21.519 17.999 21.714 16.8267 21.7687C15.554 21.8228 15.179 21.8385 11.9675 21.8385C8.75595 21.8385 8.3817 21.8228 7.10745 21.7642C5.9397 21.7013 5.29545 21.5063 4.8732 21.342C4.3032 21.1147 3.91245 20.8612 3.49395 20.4427C3.0717 20.0205 2.8032 19.6185 2.5962 19.0597C2.4282 18.6427 2.2362 17.9977 2.17395 16.8255C2.1312 15.5677 2.11095 15.1778 2.11095 11.9813C2.11095 8.78625 2.1312 8.3955 2.17395 7.122C2.2362 5.94975 2.4282 5.30625 2.5962 4.88775C2.8032 4.317 3.07245 3.927 3.49395 3.50475C3.9117 3.087 4.3032 2.817 4.8732 2.6055C5.29545 2.44125 5.92395 2.24625 7.0962 2.18775C8.36895 2.142 8.74395 2.1255 11.951 2.1255L12.0005 2.16ZM12.0005 5.84025C11.1915 5.83995 10.3903 5.99908 9.64287 6.30853C8.8954 6.61798 8.21624 7.0717 7.64419 7.64374C7.07215 8.21578 6.61844 8.89495 6.30898 9.64242C5.99953 10.3899 5.84041 11.191 5.8407 12C5.84041 12.809 5.99953 13.6101 6.30898 14.3576C6.61844 15.1051 7.07215 15.7842 7.64419 16.3563C8.21624 16.9283 8.8954 17.382 9.64287 17.6915C10.3903 18.0009 11.1915 18.16 12.0005 18.1597C12.8094 18.16 13.6106 18.0009 14.358 17.6915C15.1055 17.382 15.7847 16.9283 16.3567 16.3563C16.9288 15.7842 17.3825 15.1051 17.6919 14.3576C18.0014 13.6101 18.1605 12.809 18.1602 12C18.1605 11.191 18.0014 10.3899 17.6919 9.64242C17.3825 8.89495 16.9288 8.21578 16.3567 7.64374C15.7847 7.0717 15.1055 6.61798 14.358 6.30853C13.6106 5.99908 12.8094 5.83995 12.0005 5.84025ZM12.0005 15.9998C9.78945 15.9998 8.0007 14.211 8.0007 12C8.0007 9.789 9.78945 8.00025 12.0005 8.00025C14.2115 8.00025 16.0002 9.789 16.0002 12C16.0002 14.211 14.2115 15.9998 12.0005 15.9998ZM19.8485 5.59425C19.8481 5.9765 19.6959 6.34296 19.4255 6.6131C19.1551 6.88326 18.7885 7.035 18.4062 7.035C18.2172 7.035 18.03 6.99777 17.8554 6.92544C17.6808 6.85311 17.5221 6.7471 17.3885 6.61345C17.2549 6.47981 17.1488 6.32115 17.0765 6.14653C17.0042 5.97191 16.967 5.78475 16.967 5.59575C16.967 5.40674 17.0042 5.21959 17.0765 5.04497C17.1488 4.87036 17.2549 4.71169 17.3885 4.57805C17.5221 4.4444 17.6808 4.33839 17.8554 4.26606C18.03 4.19373 18.2172 4.1565 18.4062 4.1565C19.199 4.1565 19.8485 4.8015 19.8485 5.59425Z" fill="#3B373A"></path>
  </symbol>
</svg>