<svg width="48" height="48" viewBox="0 0 48 48" fill="none" xmlns="http://www.w3.org/2000/svg">
<path d="M0 4.32432C0 1.93607 1.93607 0 4.32432 0H43.6757C46.0639 0 48 1.93607 48 4.32432V43.6757C48 46.0639 46.0639 48 43.6757 48H4.32432C1.93607 48 0 46.0639 0 43.6757V4.32432Z" fill="#3B373A"/>
<path fill-rule="evenodd" clip-rule="evenodd" d="M43.6757 0.432432H4.32432C2.17489 0.432432 0.432432 2.17489 0.432432 4.32432V43.6757C0.432432 45.8251 2.17489 47.5676 4.32432 47.5676H43.6757C45.8251 47.5676 47.5676 45.8251 47.5676 43.6757V4.32432C47.5676 2.17489 45.8251 0.432432 43.6757 0.432432ZM4.32432 0C1.93607 0 0 1.93607 0 4.32432V43.6757C0 46.0639 1.93607 48 4.32432 48H43.6757C46.0639 48 48 46.0639 48 43.6757V4.32432C48 1.93607 46.0639 0 43.6757 0H4.32432Z" fill="#3B373A"/>
<path d="M2.16211 6.05479C2.16211 3.66653 4.09818 1.73047 6.48643 1.73047H41.9459C44.3341 1.73047 46.2702 3.66653 46.2702 6.05479V41.5143C46.2702 43.9025 44.3341 45.8386 41.9459 45.8386H6.48643C4.09817 45.8386 2.16211 43.9025 2.16211 41.5143V6.05479Z" fill="white"/>
<path fill-rule="evenodd" clip-rule="evenodd" d="M41.9459 2.1629H6.48643C4.337 2.1629 2.59454 3.90536 2.59454 6.05479V41.5143C2.59454 43.6637 4.337 45.4061 6.48643 45.4061H41.9459C44.0953 45.4061 45.8378 43.6637 45.8378 41.5143V6.05479C45.8378 3.90536 44.0953 2.1629 41.9459 2.1629ZM6.48643 1.73047C4.09818 1.73047 2.16211 3.66653 2.16211 6.05479V41.5143C2.16211 43.9025 4.09817 45.8386 6.48643 45.8386H41.9459C44.3342 45.8386 46.2702 43.9025 46.2702 41.5143V6.05479C46.2702 3.66653 44.3342 1.73047 41.9459 1.73047H6.48643Z" fill="#3B373A"/>
<path d="M41.9458 23.7844C41.9458 33.5763 34.0079 41.5141 24.2161 41.5141C14.4242 41.5141 6.48633 33.5763 6.48633 23.7844C6.48633 13.9926 14.4242 6.05469 24.2161 6.05469C34.0079 6.05469 41.9458 13.9926 41.9458 23.7844Z" fill="#3B373A"/>
<path fill-rule="evenodd" clip-rule="evenodd" d="M24.2161 41.0817C33.7691 41.0817 41.5134 33.3375 41.5134 23.7844C41.5134 14.2314 33.7691 6.48712 24.2161 6.48712C14.663 6.48712 6.91876 14.2314 6.91876 23.7844C6.91876 33.3375 14.663 41.0817 24.2161 41.0817ZM24.2161 41.5141C34.0079 41.5141 41.9458 33.5763 41.9458 23.7844C41.9458 13.9926 34.0079 6.05469 24.2161 6.05469C14.4242 6.05469 6.48633 13.9926 6.48633 23.7844C6.48633 33.5763 14.4242 41.5141 24.2161 41.5141Z" fill="#3B373A"/>
<path d="M39.7836 23.7844C39.7836 32.3821 32.8137 39.3519 24.216 39.3519C15.6183 39.3519 8.64844 32.3821 8.64844 23.7844C8.64844 15.1866 15.6183 8.2168 24.216 8.2168C32.8137 8.2168 39.7836 15.1866 39.7836 23.7844Z" fill="white"/>
<path fill-rule="evenodd" clip-rule="evenodd" d="M24.216 38.9195C32.5749 38.9195 39.3511 32.1433 39.3511 23.7844C39.3511 15.4255 32.5749 8.64923 24.216 8.64923C15.8571 8.64923 9.08087 15.4255 9.08087 23.7844C9.08087 32.1433 15.8571 38.9195 24.216 38.9195ZM24.216 39.3519C32.8137 39.3519 39.7836 32.3821 39.7836 23.7844C39.7836 15.1866 32.8137 8.2168 24.216 8.2168C15.6183 8.2168 8.64844 15.1866 8.64844 23.7844C8.64844 32.3821 15.6183 39.3519 24.216 39.3519Z" fill="#3B373A"/>
<path d="M34.5946 23.7846C34.5946 29.5164 29.9481 34.163 24.2163 34.163C18.4844 34.163 13.8379 29.5164 13.8379 23.7846C13.8379 18.0528 18.4844 13.4062 24.2163 13.4062C29.9481 13.4062 34.5946 18.0528 34.5946 23.7846Z" fill="white"/>
<path fill-rule="evenodd" clip-rule="evenodd" d="M24.2163 33.7306C29.7093 33.7306 34.1622 29.2776 34.1622 23.7846C34.1622 18.2916 29.7093 13.8387 24.2163 13.8387C18.7233 13.8387 14.2703 18.2916 14.2703 23.7846C14.2703 29.2776 18.7233 33.7306 24.2163 33.7306ZM24.2163 34.163C29.9481 34.163 34.5946 29.5164 34.5946 23.7846C34.5946 18.0528 29.9481 13.4062 24.2163 13.4062C18.4844 13.4062 13.8379 18.0528 13.8379 23.7846C13.8379 29.5164 18.4844 34.163 24.2163 34.163Z" fill="#3B373A"/>
<path d="M33.2974 23.7842C33.2974 28.7995 29.2317 32.8653 24.2163 32.8653C19.201 32.8653 15.1353 28.7995 15.1353 23.7842C15.1353 18.7689 19.201 14.7031 24.2163 14.7031C29.2317 14.7031 33.2974 18.7689 33.2974 23.7842Z" fill="white"/>
<path fill-rule="evenodd" clip-rule="evenodd" d="M24.2163 32.4329C28.9929 32.4329 32.865 28.5607 32.865 23.7842C32.865 19.0077 28.9929 15.1356 24.2163 15.1356C19.4398 15.1356 15.5677 19.0077 15.5677 23.7842C15.5677 28.5607 19.4398 32.4329 24.2163 32.4329ZM24.2163 32.8653C29.2317 32.8653 33.2974 28.7995 33.2974 23.7842C33.2974 18.7689 29.2317 14.7031 24.2163 14.7031C19.201 14.7031 15.1353 18.7689 15.1353 23.7842C15.1353 28.7995 19.201 32.8653 24.2163 32.8653Z" fill="#3B373A"/>
<path d="M28.973 23.7841C28.973 26.4112 26.8433 28.5409 24.2162 28.5409C21.5891 28.5409 19.4595 26.4112 19.4595 23.7841C19.4595 21.157 21.5891 19.0273 24.2162 19.0273C26.8433 19.0273 28.973 21.157 28.973 23.7841Z" fill="#3B373A"/>
<path fill-rule="evenodd" clip-rule="evenodd" d="M24.2162 28.1084C26.6045 28.1084 28.5406 26.1724 28.5406 23.7841C28.5406 21.3958 26.6045 19.4598 24.2162 19.4598C21.828 19.4598 19.8919 21.3958 19.8919 23.7841C19.8919 26.1724 21.828 28.1084 24.2162 28.1084ZM24.2162 28.5409C26.8433 28.5409 28.973 26.4112 28.973 23.7841C28.973 21.157 26.8433 19.0273 24.2162 19.0273C21.5891 19.0273 19.4595 21.157 19.4595 23.7841C19.4595 26.4112 21.5891 28.5409 24.2162 28.5409Z" fill="#3B373A"/>
<path d="M26.8108 23.784C26.8108 25.217 25.6491 26.3786 24.2162 26.3786C22.7832 26.3786 21.6216 25.217 21.6216 23.784C21.6216 22.3511 22.7832 21.1895 24.2162 21.1895C25.6491 21.1895 26.8108 22.3511 26.8108 23.784Z" fill="white"/>
<path fill-rule="evenodd" clip-rule="evenodd" d="M24.2162 25.9462C25.4103 25.9462 26.3783 24.9782 26.3783 23.784C26.3783 22.5899 25.4103 21.6219 24.2162 21.6219C23.022 21.6219 22.054 22.5899 22.054 23.784C22.054 24.9782 23.022 25.9462 24.2162 25.9462ZM24.2162 26.3786C25.6491 26.3786 26.8108 25.217 26.8108 23.784C26.8108 22.3511 25.6491 21.1895 24.2162 21.1895C22.7832 21.1895 21.6216 22.3511 21.6216 23.784C21.6216 25.217 22.7832 26.3786 24.2162 26.3786Z" fill="#3B373A"/>
<path d="M42.8106 7.13577C42.8106 7.73283 42.3266 8.21685 41.7295 8.21685C41.1325 8.21685 40.6484 7.73283 40.6484 7.13577C40.6484 6.5387 41.1325 6.05469 41.7295 6.05469C42.3266 6.05469 42.8106 6.5387 42.8106 7.13577Z" fill="#3B373A"/>
<path d="M34.5948 14.4873C34.5948 15.0844 34.1108 15.5684 33.5137 15.5684C32.9166 15.5684 32.4326 15.0844 32.4326 14.4873C32.4326 13.8903 32.9166 13.4062 33.5137 13.4062C34.1108 13.4062 34.5948 13.8903 34.5948 14.4873Z" fill="#3B373A"/>
<path d="M16.0001 14.4873C16.0001 15.0844 15.516 15.5684 14.919 15.5684C14.3219 15.5684 13.8379 15.0844 13.8379 14.4873C13.8379 13.8903 14.3219 13.4062 14.919 13.4062C15.516 13.4062 16.0001 13.8903 16.0001 14.4873Z" fill="#3B373A"/>
<path d="M34.5948 33.5127C34.5948 34.1098 34.1108 34.5938 33.5137 34.5938C32.9166 34.5938 32.4326 34.1098 32.4326 33.5127C32.4326 32.9157 32.9166 32.4316 33.5137 32.4316C34.1108 32.4316 34.5948 32.9157 34.5948 33.5127Z" fill="#3B373A"/>
<path d="M16.0001 33.5127C16.0001 34.1098 15.516 34.5938 14.919 34.5938C14.3219 34.5938 13.8379 34.1098 13.8379 33.5127C13.8379 32.9157 14.3219 32.4316 14.919 32.4316C15.516 32.4316 16.0001 32.9157 16.0001 33.5127Z" fill="#3B373A"/>
<path d="M7.78374 7.13577C7.78374 7.73283 7.29973 8.21685 6.70266 8.21685C6.1056 8.21685 5.62158 7.73283 5.62158 7.13577C5.62158 6.5387 6.1056 6.05469 6.70266 6.05469C7.29973 6.05469 7.78374 6.5387 7.78374 7.13577Z" fill="#3B373A"/>
<path d="M12.108 4.97366C12.108 5.57072 11.6239 6.05474 11.0269 6.05474C10.4298 6.05474 9.9458 5.57072 9.9458 4.97366C9.9458 4.37659 10.4298 3.89258 11.0269 3.89258C11.6239 3.89258 12.108 4.37659 12.108 4.97366Z" fill="#3B373A"/>
<path d="M38.4864 4.97366C38.4864 5.57072 38.0024 6.05474 37.4053 6.05474C36.8082 6.05474 36.3242 5.57072 36.3242 4.97366C36.3242 4.37659 36.8082 3.89258 37.4053 3.89258C38.0024 3.89258 38.4864 4.37659 38.4864 4.97366Z" fill="#3B373A"/>
<path d="M44.108 12.3233C44.108 12.9203 43.6239 13.4043 43.0269 13.4043C42.4298 13.4043 41.9458 12.9203 41.9458 12.3233C41.9458 11.7262 42.4298 11.2422 43.0269 11.2422C43.6239 11.2422 44.108 11.7262 44.108 12.3233Z" fill="#3B373A"/>
<path d="M6.48638 12.3233C6.48638 12.9203 6.00236 13.4043 5.4053 13.4043C4.80824 13.4043 4.32422 12.9203 4.32422 12.3233C4.32422 11.7262 4.80824 11.2422 5.4053 11.2422C6.00236 11.2422 6.48638 11.7262 6.48638 12.3233Z" fill="#3B373A"/>
<path d="M42.8106 40.4326C42.8106 39.8355 42.3266 39.3515 41.7295 39.3515C41.1325 39.3515 40.6484 39.8355 40.6484 40.4326C40.6484 41.0297 41.1325 41.5137 41.7295 41.5137C42.3266 41.5137 42.8106 41.0297 42.8106 40.4326Z" fill="#3B373A"/>
<path d="M7.78374 40.4326C7.78374 39.8355 7.29973 39.3515 6.70266 39.3515C6.1056 39.3515 5.62158 39.8355 5.62158 40.4326C5.62158 41.0297 6.1056 41.5137 6.70266 41.5137C7.29973 41.5137 7.78374 41.0297 7.78374 40.4326Z" fill="#3B373A"/>
<path d="M12.108 42.5947C12.108 41.9976 11.6239 41.5136 11.0269 41.5136C10.4298 41.5136 9.9458 41.9976 9.9458 42.5947C9.9458 43.1918 10.4298 43.6758 11.0269 43.6758C11.6239 43.6758 12.108 43.1918 12.108 42.5947Z" fill="#3B373A"/>
<path d="M38.4864 42.5947C38.4864 41.9976 38.0024 41.5136 37.4053 41.5136C36.8082 41.5136 36.3242 41.9976 36.3242 42.5947C36.3242 43.1918 36.8082 43.6758 37.4053 43.6758C38.0024 43.6758 38.4864 43.1918 38.4864 42.5947Z" fill="#3B373A"/>
<path d="M44.108 35.2431C44.108 34.6461 43.6239 34.1621 43.0269 34.1621C42.4298 34.1621 41.9458 34.6461 41.9458 35.2431C41.9458 35.8402 42.4298 36.3242 43.0269 36.3242C43.6239 36.3242 44.108 35.8402 44.108 35.2431Z" fill="#3B373A"/>
<path d="M6.48638 35.2431C6.48638 34.6461 6.00236 34.1621 5.4053 34.1621C4.80824 34.1621 4.32422 34.6461 4.32422 35.2431C4.32422 35.8402 4.80824 36.3242 5.4053 36.3242C6.00236 36.3242 6.48638 35.8402 6.48638 35.2431Z" fill="#3B373A"/>
<path d="M24.3406 9.10019C25.4208 9.05785 27.8106 9.39162 29.1147 10.0736L27.7592 13.5101C26.2694 12.8225 25.3488 12.7391 24.0525 12.79C23.4043 12.8154 22.108 12.8662 21.0482 13.3478L20.045 9.91779C22.1801 9.18489 23.2603 9.14252 24.3406 9.10019Z" fill="#3B373A"/>
<path d="M24.3406 38.4037C25.4208 38.4461 27.8106 38.1123 29.1147 37.4303L27.7592 33.9938C26.2694 34.6814 25.3488 34.7648 24.0525 34.7139C23.4043 34.6885 22.108 34.6377 21.0482 34.1561L20.045 37.5861C22.1801 38.319 23.2603 38.3614 24.3406 38.4037Z" fill="#3B373A"/>
<path d="M38.7841 23.1695C38.8874 24.2456 38.689 26.6504 38.0816 27.9909L34.5741 26.8315C35.1766 25.3053 35.2079 24.3814 35.084 23.09C35.022 22.4444 34.8981 21.153 34.3575 20.122L37.7254 18.9269C38.5776 21.0172 38.6809 22.0933 38.7841 23.1695Z" fill="#3B373A"/>
<path d="M9.61794 23.2152C9.53548 24.2932 9.78017 26.6937 10.4132 28.0223L13.8977 26.7955C13.266 25.2812 13.2169 24.358 13.3159 23.0645C13.3654 22.4178 13.4644 21.1243 13.985 20.083L10.5947 18.953C9.78291 21.0594 9.70041 22.1373 9.61794 23.2152Z" fill="#3B373A"/>
</svg>
