<svg width="30" height="30" viewBox="0 0 30 30" fill="none" xmlns="http://www.w3.org/2000/svg">
<path d="M0 2.7027C0 1.21004 1.21004 0 2.7027 0H27.2973C28.79 0 30 1.21004 30 2.7027V27.2973C30 28.79 28.79 30 27.2973 30H2.7027C1.21004 30 0 28.79 0 27.2973V2.7027Z" fill="#3B373A"/>
<path fill-rule="evenodd" clip-rule="evenodd" d="M27.2973 0.27027H2.7027C1.35931 0.27027 0.27027 1.35931 0.27027 2.7027V27.2973C0.27027 28.6407 1.35931 29.7297 2.7027 29.7297H27.2973C28.6407 29.7297 29.7297 28.6407 29.7297 27.2973V2.7027C29.7297 1.35931 28.6407 0.27027 27.2973 0.27027ZM2.7027 0C1.21004 0 0 1.21004 0 2.7027V27.2973C0 28.79 1.21004 30 2.7027 30H27.2973C28.79 30 30 28.79 30 27.2973V2.7027C30 1.21004 28.79 0 27.2973 0H2.7027Z" fill="#3B373A"/>
<path d="M1.35156 3.78473C1.35156 2.29207 2.5616 1.08203 4.05427 1.08203H26.2164C27.7091 1.08203 28.9191 2.29207 28.9191 3.78473V25.9469C28.9191 27.4396 27.7091 28.6496 26.2164 28.6496H4.05426C2.5616 28.6496 1.35156 27.4396 1.35156 25.9469V3.78473Z" fill="white"/>
<path fill-rule="evenodd" clip-rule="evenodd" d="M26.2164 1.3523H4.05427C2.71087 1.3523 1.62183 2.44134 1.62183 3.78473V25.9469C1.62183 27.2903 2.71087 28.3793 4.05426 28.3793H26.2164C27.5598 28.3793 28.6489 27.2903 28.6489 25.9469V3.78473C28.6489 2.44134 27.5598 1.3523 26.2164 1.3523ZM4.05427 1.08203C2.5616 1.08203 1.35156 2.29207 1.35156 3.78473V25.9469C1.35156 27.4396 2.5616 28.6496 4.05426 28.6496H26.2164C27.7091 28.6496 28.9191 27.4396 28.9191 25.9469V3.78473C28.9191 2.29207 27.7091 1.08203 26.2164 1.08203H4.05427Z" fill="#3B373A"/>
<path d="M26.2164 14.8643C26.2164 20.9842 21.2552 25.9454 15.1353 25.9454C9.01537 25.9454 4.0542 20.9842 4.0542 14.8643C4.0542 8.74437 9.01537 3.7832 15.1353 3.7832C21.2552 3.7832 26.2164 8.74437 26.2164 14.8643Z" fill="#3B373A"/>
<path fill-rule="evenodd" clip-rule="evenodd" d="M15.1353 25.6751C21.1059 25.6751 25.9461 20.8349 25.9461 14.8643C25.9461 8.89364 21.1059 4.05347 15.1353 4.05347C9.16463 4.05347 4.32447 8.89364 4.32447 14.8643C4.32447 20.8349 9.16463 25.6751 15.1353 25.6751ZM15.1353 25.9454C21.2552 25.9454 26.2164 20.9842 26.2164 14.8643C26.2164 8.74437 21.2552 3.7832 15.1353 3.7832C9.01537 3.7832 4.0542 8.74437 4.0542 14.8643C4.0542 20.9842 9.01537 25.9454 15.1353 25.9454Z" fill="#3B373A"/>
<path d="M24.8647 14.8645C24.8647 20.2381 20.5086 24.5942 15.135 24.5942C9.76142 24.5942 5.40527 20.2381 5.40527 14.8645C5.40527 9.49091 9.76142 5.13477 15.135 5.13477C20.5086 5.13477 24.8647 9.49091 24.8647 14.8645Z" fill="white"/>
<path fill-rule="evenodd" clip-rule="evenodd" d="M15.135 24.324C20.3593 24.324 24.5945 20.0888 24.5945 14.8645C24.5945 9.64018 20.3593 5.40504 15.135 5.40504C9.91069 5.40504 5.67554 9.64018 5.67554 14.8645C5.67554 20.0888 9.91069 24.324 15.135 24.324ZM15.135 24.5942C20.5086 24.5942 24.8647 20.2381 24.8647 14.8645C24.8647 9.49091 20.5086 5.13477 15.135 5.13477C9.76142 5.13477 5.40527 9.49091 5.40527 14.8645C5.40527 20.2381 9.76142 24.5942 15.135 24.5942Z" fill="#3B373A"/>
<path d="M21.6214 14.8654C21.6214 18.4478 18.7173 21.3519 15.1349 21.3519C11.5525 21.3519 8.64844 18.4478 8.64844 14.8654C8.64844 11.283 11.5525 8.37891 15.1349 8.37891C18.7173 8.37891 21.6214 11.283 21.6214 14.8654Z" fill="white"/>
<path fill-rule="evenodd" clip-rule="evenodd" d="M15.1349 21.0816C18.568 21.0816 21.3511 18.2985 21.3511 14.8654C21.3511 11.4323 18.568 8.64918 15.1349 8.64918C11.7018 8.64918 8.91871 11.4323 8.91871 14.8654C8.91871 18.2985 11.7018 21.0816 15.1349 21.0816ZM15.1349 21.3519C18.7173 21.3519 21.6214 18.4478 21.6214 14.8654C21.6214 11.283 18.7173 8.37891 15.1349 8.37891C11.5525 8.37891 8.64844 11.283 8.64844 14.8654C8.64844 18.4478 11.5525 21.3519 15.1349 21.3519Z" fill="#3B373A"/>
<path d="M20.8108 14.8651C20.8108 17.9997 18.2697 20.5408 15.1351 20.5408C12.0006 20.5408 9.45947 17.9997 9.45947 14.8651C9.45947 11.7305 12.0006 9.18945 15.1351 9.18945C18.2697 9.18945 20.8108 11.7305 20.8108 14.8651Z" fill="white"/>
<path fill-rule="evenodd" clip-rule="evenodd" d="M15.1351 20.2705C18.1205 20.2705 20.5406 17.8505 20.5406 14.8651C20.5406 11.8798 18.1205 9.45972 15.1351 9.45972C12.1498 9.45972 9.72974 11.8798 9.72974 14.8651C9.72974 17.8505 12.1498 20.2705 15.1351 20.2705ZM15.1351 20.5408C18.2697 20.5408 20.8108 17.9997 20.8108 14.8651C20.8108 11.7305 18.2697 9.18945 15.1351 9.18945C12.0006 9.18945 9.45947 11.7305 9.45947 14.8651C9.45947 17.9997 12.0006 20.5408 15.1351 20.5408Z" fill="#3B373A"/>
<path d="M18.1081 14.8656C18.1081 16.5075 16.777 17.8385 15.1351 17.8385C13.4932 17.8385 12.1621 16.5075 12.1621 14.8656C12.1621 13.2236 13.4932 11.8926 15.1351 11.8926C16.777 11.8926 18.1081 13.2236 18.1081 14.8656Z" fill="#3B373A"/>
<path fill-rule="evenodd" clip-rule="evenodd" d="M15.1351 17.5683C16.6277 17.5683 17.8378 16.3582 17.8378 14.8656C17.8378 13.3729 16.6277 12.1628 15.1351 12.1628C13.6424 12.1628 12.4324 13.3729 12.4324 14.8656C12.4324 16.3582 13.6424 17.5683 15.1351 17.5683ZM15.1351 17.8385C16.777 17.8385 18.1081 16.5075 18.1081 14.8656C18.1081 13.2236 16.777 11.8926 15.1351 11.8926C13.4932 11.8926 12.1621 13.2236 12.1621 14.8656C12.1621 16.5075 13.4932 17.8385 15.1351 17.8385Z" fill="#3B373A"/>
<path d="M16.7569 14.8658C16.7569 15.7614 16.0309 16.4874 15.1353 16.4874C14.2397 16.4874 13.5137 15.7614 13.5137 14.8658C13.5137 13.9702 14.2397 13.2441 15.1353 13.2441C16.0309 13.2441 16.7569 13.9702 16.7569 14.8658Z" fill="white"/>
<path fill-rule="evenodd" clip-rule="evenodd" d="M15.1353 16.2171C15.8816 16.2171 16.4866 15.6121 16.4866 14.8658C16.4866 14.1194 15.8816 13.5144 15.1353 13.5144C14.389 13.5144 13.7839 14.1194 13.7839 14.8658C13.7839 15.6121 14.389 16.2171 15.1353 16.2171ZM15.1353 16.4874C16.0309 16.4874 16.7569 15.7614 16.7569 14.8658C16.7569 13.9702 16.0309 13.2441 15.1353 13.2441C14.2397 13.2441 13.5137 13.9702 13.5137 14.8658C13.5137 15.7614 14.2397 16.4874 15.1353 16.4874Z" fill="#3B373A"/>
<path d="M26.7566 4.45888C26.7566 4.83204 26.4541 5.13455 26.0809 5.13455C25.7078 5.13455 25.4053 4.83204 25.4053 4.45888C25.4053 4.08571 25.7078 3.7832 26.0809 3.7832C26.4541 3.7832 26.7566 4.08571 26.7566 4.45888Z" fill="#3B373A"/>
<path d="M21.6219 9.05458C21.6219 9.42775 21.3193 9.73026 20.9462 9.73026C20.573 9.73026 20.2705 9.42775 20.2705 9.05458C20.2705 8.68142 20.573 8.37891 20.9462 8.37891C21.3193 8.37891 21.6219 8.68142 21.6219 9.05458Z" fill="#3B373A"/>
<path d="M9.99979 9.05458C9.99979 9.42775 9.69728 9.73026 9.32411 9.73026C8.95095 9.73026 8.64844 9.42775 8.64844 9.05458C8.64844 8.68142 8.95095 8.37891 9.32411 8.37891C9.69728 8.37891 9.99979 8.68142 9.99979 9.05458Z" fill="#3B373A"/>
<path d="M21.6219 20.9452C21.6219 21.3184 21.3193 21.6209 20.9462 21.6209C20.573 21.6209 20.2705 21.3184 20.2705 20.9452C20.2705 20.572 20.573 20.2695 20.9462 20.2695C21.3193 20.2695 21.6219 20.572 21.6219 20.9452Z" fill="#3B373A"/>
<path d="M9.99979 20.9452C9.99979 21.3184 9.69728 21.6209 9.32411 21.6209C8.95095 21.6209 8.64844 21.3184 8.64844 20.9452C8.64844 20.572 8.95095 20.2695 9.32411 20.2695C9.69728 20.2695 9.99979 20.572 9.99979 20.9452Z" fill="#3B373A"/>
<path d="M4.86502 4.45888C4.86502 4.83204 4.56251 5.13455 4.18935 5.13455C3.81618 5.13455 3.51367 4.83204 3.51367 4.45888C3.51367 4.08571 3.81618 3.7832 4.18935 3.7832C4.56251 3.7832 4.86502 4.08571 4.86502 4.45888Z" fill="#3B373A"/>
<path d="M7.56766 3.10732C7.56766 3.48048 7.26515 3.78299 6.89198 3.78299C6.51882 3.78299 6.21631 3.48048 6.21631 3.10732C6.21631 2.73415 6.51882 2.43164 6.89198 2.43164C7.26515 2.43164 7.56766 2.73415 7.56766 3.10732Z" fill="#3B373A"/>
<path d="M24.054 3.10732C24.054 3.48048 23.7515 3.78299 23.3783 3.78299C23.0051 3.78299 22.7026 3.48048 22.7026 3.10732C22.7026 2.73415 23.0051 2.43164 23.3783 2.43164C23.7515 2.43164 24.054 2.73415 24.054 3.10732Z" fill="#3B373A"/>
<path d="M27.5677 7.70302C27.5677 8.07618 27.2651 8.3787 26.892 8.3787C26.5188 8.3787 26.2163 8.07618 26.2163 7.70302C26.2163 7.32985 26.5188 7.02734 26.892 7.02734C27.2651 7.02734 27.5677 7.32985 27.5677 7.70302Z" fill="#3B373A"/>
<path d="M4.05399 7.70302C4.05399 8.07618 3.75148 8.3787 3.37831 8.3787C3.00515 8.3787 2.70264 8.07618 2.70264 7.70302C2.70264 7.32985 3.00515 7.02734 3.37831 7.02734C3.75148 7.02734 4.05399 7.32985 4.05399 7.70302Z" fill="#3B373A"/>
<path d="M26.7566 25.2696C26.7566 24.8965 26.4541 24.594 26.0809 24.594C25.7078 24.594 25.4053 24.8965 25.4053 25.2696C25.4053 25.6428 25.7078 25.9453 26.0809 25.9453C26.4541 25.9453 26.7566 25.6428 26.7566 25.2696Z" fill="#3B373A"/>
<path d="M4.86502 25.2696C4.86502 24.8965 4.56251 24.594 4.18935 24.594C3.81618 24.594 3.51367 24.8965 3.51367 25.2696C3.51367 25.6428 3.81618 25.9453 4.18935 25.9453C4.56251 25.9453 4.86502 25.6428 4.86502 25.2696Z" fill="#3B373A"/>
<path d="M7.56766 26.6212C7.56766 26.248 7.26515 25.9455 6.89198 25.9455C6.51882 25.9455 6.21631 26.248 6.21631 26.6212C6.21631 26.9944 6.51882 27.2969 6.89198 27.2969C7.26515 27.2969 7.56766 26.9944 7.56766 26.6212Z" fill="#3B373A"/>
<path d="M24.054 26.6212C24.054 26.248 23.7515 25.9455 23.3783 25.9455C23.0051 25.9455 22.7026 26.248 22.7026 26.6212C22.7026 26.9944 23.0051 27.2969 23.3783 27.2969C23.7515 27.2969 24.054 26.9944 24.054 26.6212Z" fill="#3B373A"/>
<path d="M27.5677 22.0274C27.5677 21.6543 27.2651 21.3518 26.892 21.3518C26.5188 21.3518 26.2163 21.6543 26.2163 22.0274C26.2163 22.4006 26.5188 22.7031 26.892 22.7031C27.2651 22.7031 27.5677 22.4006 27.5677 22.0274Z" fill="#3B373A"/>
<path d="M4.05399 22.0274C4.05399 21.6543 3.75148 21.3518 3.37831 21.3518C3.00515 21.3518 2.70264 21.6543 2.70264 22.0274C2.70264 22.4006 3.00515 22.7031 3.37831 22.7031C3.75148 22.7031 4.05399 22.4006 4.05399 22.0274Z" fill="#3B373A"/>
<path d="M15.2126 5.68836C15.8877 5.6619 17.3813 5.87051 18.1964 6.29676L17.3492 8.44459C16.4181 8.01483 15.8427 7.9627 15.0325 7.99447C14.6274 8.01035 13.8172 8.04212 13.1548 8.34311L12.5278 6.19935C13.8623 5.7413 14.5374 5.71482 15.2126 5.68836Z" fill="#3B373A"/>
<path d="M15.2126 24.0011C15.8877 24.0276 17.3813 23.8189 18.1964 23.3927L17.3492 21.2449C16.4181 21.6746 15.8427 21.7268 15.0325 21.695C14.6274 21.6791 13.8172 21.6473 13.1548 21.3463L12.5278 23.4901C13.8623 23.9482 14.5374 23.9746 15.2126 24.0011Z" fill="#3B373A"/>
<path d="M24.24 14.4807C24.3045 15.1533 24.1805 16.6563 23.8009 17.4941L21.6087 16.7695C21.9853 15.8156 22.0049 15.2381 21.9274 14.431C21.8887 14.0275 21.8113 13.2204 21.4734 12.576L23.5783 11.829C24.111 13.1355 24.1755 13.8081 24.24 14.4807Z" fill="#3B373A"/>
<path d="M6.01139 14.5085C5.95985 15.1822 6.11278 16.6826 6.50843 17.5129L8.68627 16.7462C8.29143 15.7997 8.26073 15.2228 8.3226 14.4144C8.35354 14.0101 8.41541 13.2017 8.74082 12.5509L6.62186 11.8446C6.1145 13.1611 6.06294 13.8348 6.01139 14.5085Z" fill="#3B373A"/>
</svg>
