<svg width="19" height="20" viewBox="0 0 19 20" fill="none" xmlns="http://www.w3.org/2000/svg">
<path d="M14.8125 6.20781C14.7389 6.1336 14.6514 6.07471 14.5549 6.03452C14.4584 5.99433 14.3549 5.97363 14.2504 5.97363C14.1459 5.97363 14.0424 5.99433 13.946 6.03452C13.8495 6.07471 13.7619 6.1336 13.6883 6.20781L7.79043 12.1136L5.31251 9.62781C5.2361 9.55399 5.1459 9.49595 5.04705 9.457C4.94821 9.41805 4.84266 9.39894 4.73643 9.40078C4.63021 9.40262 4.52538 9.42536 4.42795 9.46771C4.33051 9.51006 4.24237 9.57119 4.16855 9.6476C4.09474 9.72401 4.0367 9.81421 3.99775 9.91306C3.95879 10.0119 3.93969 10.1174 3.94153 10.2237C3.94337 10.3299 3.96611 10.4347 4.00846 10.5322C4.05081 10.6296 4.11193 10.7177 4.18834 10.7916L7.22834 13.8316C7.30194 13.9058 7.3895 13.9647 7.48597 14.0048C7.58244 14.045 7.68592 14.0657 7.79043 14.0657C7.89494 14.0657 7.99841 14.045 8.09488 14.0048C8.19136 13.9647 8.27892 13.9058 8.35251 13.8316L14.8125 7.37156C14.8929 7.29742 14.957 7.20745 15.0009 7.1073C15.0447 7.00716 15.0674 6.89901 15.0674 6.78968C15.0674 6.68035 15.0447 6.57221 15.0009 6.47206C14.957 6.37191 14.8929 6.28194 14.8125 6.20781Z" fill="#4ECB71"/>
</svg>
