<svg width="35" height="35" viewBox="0 0 35 35" fill="none" xmlns="http://www.w3.org/2000/svg">
<path d="M17.5002 30.625C15.1927 30.625 12.9371 29.9408 11.0185 28.6588C9.09994 27.3769 7.6046 25.5548 6.72157 23.423C5.83855 21.2912 5.60751 18.9454 6.05767 16.6823C6.50783 14.4192 7.61898 12.3404 9.25059 10.7087C10.8822 9.07713 12.961 7.96599 15.2241 7.51583C17.4872 7.06567 19.833 7.29671 21.9648 8.17973C24.0966 9.06275 25.9187 10.5581 27.2007 12.4767C28.4826 14.3952 29.1668 16.6509 29.1668 18.9583C29.163 22.0513 27.9326 25.0166 25.7455 27.2036C23.5584 29.3907 20.5932 30.6211 17.5002 30.625ZM17.5002 10.2083C15.7696 10.2083 14.0779 10.7215 12.6389 11.683C11.2 12.6444 10.0785 14.011 9.41622 15.6098C8.75396 17.2087 8.58068 18.968 8.9183 20.6654C9.25592 22.3627 10.0893 23.9218 11.313 25.1455C12.5367 26.3692 14.0958 27.2026 15.7931 27.5402C17.4905 27.8778 19.2498 27.7045 20.8487 27.0423C22.4475 26.38 23.8141 25.2585 24.7755 23.8196C25.737 22.3806 26.2502 20.6889 26.2502 18.9583C26.2475 16.6385 25.3247 14.4145 23.6844 12.7741C22.044 11.1338 19.82 10.211 17.5002 10.2083ZM18.9585 20.4167H16.0418V13.125H18.9585V20.4167ZM28.1358 11.2394L25.2191 8.3227L27.2812 6.26062L30.1979 9.17728L28.1373 11.2379L28.1358 11.2394ZM21.8752 5.83332H13.1252V2.91666H21.8752V5.83332Z" fill="#21395A"/>
</svg>
