<svg width="35" height="35" viewBox="0 0 35 35" fill="none" xmlns="http://www.w3.org/2000/svg">
<path d="M2.9165 27.7083H5.83317C5.83317 26.1612 6.44775 24.6775 7.54171 23.5836C8.63568 22.4896 10.1194 21.875 11.6665 21.875C13.2136 21.875 14.6973 22.4896 15.7913 23.5836C16.8853 24.6775 17.4998 26.1612 17.4998 27.7083H20.4165C20.4165 25.3877 19.4946 23.1621 17.8537 21.5212C16.2127 19.8802 13.9871 18.9583 11.6665 18.9583C9.34586 18.9583 7.12026 19.8802 5.47932 21.5212C3.83838 23.1621 2.9165 25.3877 2.9165 27.7083ZM5.83317 11.6667C5.83317 10.1196 6.44775 8.63585 7.54171 7.54189C8.63568 6.44792 10.1194 5.83334 11.6665 5.83334C13.2136 5.83334 14.6973 6.44792 15.7913 7.54189C16.8853 8.63585 17.4998 10.1196 17.4998 11.6667C17.4998 13.2138 16.8853 14.6975 15.7913 15.7915C14.6973 16.8854 13.2136 17.5 11.6665 17.5C10.1194 17.5 8.63568 16.8854 7.54171 15.7915C6.44775 14.6975 5.83317 13.2138 5.83317 11.6667ZM8.75275 11.6244C8.73812 12.3924 9.02705 13.1351 9.55679 13.6914C10.0865 14.2476 10.8143 14.5725 11.5821 14.5953C12.3499 14.6182 13.0957 14.3372 13.6576 13.8135C14.2195 13.2897 14.5521 12.5654 14.5832 11.7979V11.6667C14.5653 10.9089 14.2532 10.1878 13.7129 9.65618C13.1725 9.12457 12.4465 8.8242 11.6885 8.8187C10.9305 8.81321 10.2001 9.10301 9.65214 9.62673C9.10415 10.1504 8.78158 10.8669 8.75275 11.6244ZM26.7442 21.875C26.4134 21.585 26.077 21.3015 25.735 21.0248L25.6665 20.9694L25.6578 20.9636C23.9719 19.5883 21.8748 17.8763 21.8748 15.7486C21.875 15.3991 21.9448 15.0532 22.0804 14.7311C22.2159 14.4091 22.4144 14.1173 22.6642 13.8729C22.914 13.6286 23.2101 13.4366 23.535 13.3081C23.86 13.1797 24.2074 13.1174 24.5567 13.125C24.9693 13.1239 25.3774 13.21 25.7544 13.3776C26.1314 13.5452 26.4687 13.7906 26.7442 14.0977C27.0198 13.7907 27.3571 13.5454 27.7341 13.3777C28.111 13.2101 28.5192 13.124 28.9317 13.125C29.2807 13.1182 29.6275 13.1811 29.9519 13.31C30.2763 13.4389 30.5718 13.6311 30.821 13.8756C31.0701 14.12 31.2681 14.4117 31.4032 14.7335C31.5383 15.0554 31.6078 15.401 31.6078 15.75C31.6078 17.8865 29.4932 19.6102 27.7942 20.9971L27.7898 21L27.7067 21.0686L27.6805 21.0904C27.345 21.3661 27.0271 21.6256 26.7428 21.8779L26.7442 21.8736V21.875Z" fill="#21395A"/>
</svg>
