<svg width="24" height="24" viewBox="0 0 24 24" fill="none" xmlns="http://www.w3.org/2000/svg">
<path d="M12 21C10.4178 21 8.87104 20.5308 7.55544 19.6518C6.23985 18.7727 5.21447 17.5233 4.60897 16.0615C4.00347 14.5997 3.84504 12.9911 4.15372 11.4393C4.4624 9.88743 5.22433 8.46197 6.34315 7.34315C7.46197 6.22433 8.88743 5.4624 10.4393 5.15372C11.9911 4.84504 13.5997 5.00346 15.0615 5.60896C16.5233 6.21447 17.7727 7.23984 18.6518 8.55544C19.5308 9.87103 20 11.4177 20 13C19.9974 15.1209 19.1537 17.1542 17.6539 18.6539C16.1542 20.1536 14.1209 20.9974 12 21ZM12 7C10.8133 7 9.65328 7.35189 8.66658 8.01118C7.67989 8.67047 6.91085 9.60754 6.45673 10.7039C6.0026 11.8003 5.88378 13.0067 6.11529 14.1705C6.3468 15.3344 6.91825 16.4035 7.75736 17.2426C8.59648 18.0818 9.66558 18.6532 10.8295 18.8847C11.9933 19.1162 13.1997 18.9974 14.2961 18.5433C15.3925 18.0892 16.3295 17.3201 16.9888 16.3334C17.6481 15.3467 18 14.1867 18 13C17.9982 11.4093 17.3654 9.88422 16.2406 8.75941C15.1158 7.63459 13.5907 7.00185 12 7ZM13 14H11V9H13V14ZM19.293 7.707L17.293 5.707L18.707 4.293L20.707 6.293L19.294 7.706L19.293 7.707ZM15 4H9V2H15V4Z" fill="#21395A"/>
</svg>
