<svg width="24" height="24" viewBox="0 0 24 24" fill="none" xmlns="http://www.w3.org/2000/svg">
<path d="M2 19H4C4 17.9391 4.42143 16.9217 5.17157 16.1716C5.92172 15.4214 6.93913 15 8 15C9.06087 15 10.0783 15.4214 10.8284 16.1716C11.5786 16.9217 12 17.9391 12 19H14C14 17.4087 13.3679 15.8826 12.2426 14.7574C11.1174 13.6321 9.5913 13 8 13C6.4087 13 4.88258 13.6321 3.75736 14.7574C2.63214 15.8826 2 17.4087 2 19ZM4 8C4 6.93913 4.42143 5.92172 5.17157 5.17157C5.92172 4.42143 6.93913 4 8 4C9.06087 4 10.0783 4.42143 10.8284 5.17157C11.5786 5.92172 12 6.93913 12 8C12 9.06087 11.5786 10.0783 10.8284 10.8284C10.0783 11.5786 9.06087 12 8 12C6.93913 12 5.92172 11.5786 5.17157 10.8284C4.42143 10.0783 4 9.06087 4 8ZM6.002 7.971C5.99197 8.49763 6.19009 9.00695 6.55334 9.38838C6.91659 9.7698 7.41564 9.99253 7.94213 10.0082C8.46862 10.0239 8.98004 9.83122 9.36534 9.47208C9.75063 9.11293 9.97869 8.61629 10 8.09V8C9.98777 7.48037 9.77373 6.98591 9.40321 6.62138C9.0327 6.25684 8.53482 6.05087 8.01506 6.0471C7.4953 6.04333 6.99449 6.24206 6.61872 6.60118C6.24296 6.9603 6.02177 7.4516 6.002 7.971ZM18.339 15C18.1122 14.8011 17.8815 14.6068 17.647 14.417L17.6 14.379L17.594 14.375C16.438 13.432 15 12.258 15 10.799C15.0001 10.5594 15.048 10.3222 15.1409 10.1013C15.2339 9.8805 15.37 9.68043 15.5413 9.51287C15.7126 9.34531 15.9156 9.21363 16.1384 9.12557C16.3613 9.0375 16.5994 8.99481 16.839 9C17.1219 8.99924 17.4018 9.05826 17.6603 9.17321C17.9188 9.28816 18.1501 9.45643 18.339 9.667C18.528 9.45648 18.7593 9.28824 19.0178 9.1733C19.2763 9.05836 19.5561 8.9993 19.839 9C20.0783 8.99535 20.3161 9.03847 20.5386 9.12684C20.761 9.21521 20.9636 9.34706 21.1345 9.51467C21.3054 9.68228 21.4411 9.88229 21.5337 10.103C21.6264 10.3237 21.674 10.5606 21.674 10.8C21.674 12.265 20.224 13.447 19.059 14.398L19.056 14.4L18.999 14.447L18.981 14.462C18.751 14.651 18.533 14.829 18.338 15.002L18.339 14.999V15Z" fill="#21395A"/>
</svg>
