<svg width="24" height="24" viewBox="0 0 24 24" fill="none" xmlns="http://www.w3.org/2000/svg">
<path d="M15 22H9V20H15V22ZM15 19H9L8.777 17C8.65702 16.3385 8.45862 15.6936 8.186 15.079C7.832 14.579 7.463 14.152 7.106 13.735C6.45664 13.1263 5.93574 12.3938 5.57404 11.5805C5.21234 10.7673 5.01715 9.88987 5 9C5 7.14349 5.7375 5.36301 7.05025 4.05025C8.36301 2.7375 10.1435 2 12 2C13.8565 2 15.637 2.7375 16.9497 4.05025C18.2625 5.36301 19 7.14349 19 9C18.9799 9.88462 18.7845 10.7565 18.4253 11.5651C18.066 12.3737 17.55 13.1031 16.907 13.711L16.89 13.731C16.5114 14.1614 16.154 14.6099 15.819 15.075C15.5466 15.6912 15.3476 16.3373 15.226 17L15 19ZM12 4C10.6744 4.00159 9.40356 4.52888 8.46622 5.46622C7.52888 6.40356 7.00159 7.67441 7 9C7 10.544 7.644 11.293 8.618 12.428C8.988 12.86 9.408 13.348 9.818 13.919C10.3156 14.8858 10.6555 15.9259 10.825 17H13.176C13.3498 15.929 13.6892 14.8916 14.182 13.925C14.582 13.354 15.001 12.863 15.37 12.431L15.385 12.413C16.357 11.273 17 10.52 17 9C16.9984 7.67441 16.4711 6.40356 15.5338 5.46622C14.5964 4.52888 13.3256 4.00159 12 4V4Z" fill="#21395A"/>
</svg>
