<svg width="19" height="20" viewBox="0 0 19 20" fill="none" xmlns="http://www.w3.org/2000/svg">
<path d="M14.812 6.20793C14.7384 6.13373 14.6509 6.07483 14.5544 6.03464C14.4579 5.99445 14.3544 5.97375 14.2499 5.97375C14.1454 5.97375 14.042 5.99445 13.9455 6.03464C13.849 6.07483 13.7615 6.13373 13.6879 6.20793L7.78994 12.1138L5.31202 9.62793C5.23561 9.55411 5.14541 9.49607 5.04656 9.45712C4.94772 9.41817 4.84217 9.39907 4.73594 9.4009C4.62972 9.40274 4.52489 9.42548 4.42746 9.46783C4.33002 9.51018 4.24188 9.57131 4.16806 9.64772C4.09425 9.72413 4.03621 9.81434 3.99726 9.91318C3.9583 10.012 3.9392 10.1176 3.94104 10.2238C3.94288 10.33 3.96562 10.4348 4.00797 10.5323C4.05032 10.6297 4.11144 10.7179 4.18786 10.7917L7.22786 13.8317C7.30145 13.9059 7.38901 13.9648 7.48548 14.005C7.58196 14.0452 7.68543 14.0659 7.78994 14.0659C7.89445 14.0659 7.99792 14.0452 8.0944 14.005C8.19087 13.9648 8.27843 13.9059 8.35202 13.8317L14.812 7.37168C14.8924 7.29755 14.9565 7.20757 15.0004 7.10743C15.0442 7.00728 15.0669 6.89913 15.0669 6.7898C15.0669 6.68047 15.0442 6.57233 15.0004 6.47218C14.9565 6.37204 14.8924 6.28206 14.812 6.20793Z" fill="black"/>
</svg>
