<svg width="35" height="35" viewBox="0 0 35 35" fill="none" xmlns="http://www.w3.org/2000/svg">
<path d="M21.8748 32.0834H13.1248V29.1667H21.8748V32.0834ZM21.8748 27.7084H13.1248L12.7996 24.7917C12.6247 23.8269 12.3353 22.8865 11.9378 21.9902C11.4215 21.2611 10.8834 20.6384 10.3628 20.0302C9.41576 19.1426 8.65612 18.0743 8.12864 16.8883C7.60116 15.7023 7.31652 14.4228 7.2915 13.125C7.2915 10.4176 8.36702 7.82107 10.2815 5.90664C12.1959 3.9922 14.7924 2.91669 17.4998 2.91669C20.2073 2.91669 22.8038 3.9922 24.7182 5.90664C26.6327 7.82107 27.7082 10.4176 27.7082 13.125C27.6788 14.4151 27.3939 15.6865 26.87 16.8658C26.3461 18.045 25.5935 19.1087 24.6559 19.9952L24.6311 20.0244C24.079 20.652 23.5578 21.3061 23.0692 21.9844C22.672 22.8831 22.3817 23.8253 22.2044 24.7917L21.8748 27.7084ZM17.4998 5.83335C15.5667 5.83567 13.7134 6.60464 12.3464 7.97159C10.9795 9.33854 10.2105 11.1919 10.2082 13.125C10.2082 15.3767 11.1473 16.469 12.5678 18.1242C13.1073 18.7542 13.7198 19.4659 14.3178 20.2986C15.0434 21.7085 15.5392 23.2253 15.7863 24.7917H19.2148C19.4684 23.2299 19.9633 21.717 20.6819 20.3073C21.2653 19.4746 21.8763 18.7586 22.4144 18.1286L22.4363 18.1023C23.8538 16.4398 24.7915 15.3417 24.7915 13.125C24.7892 11.1919 24.0202 9.33854 22.6533 7.97159C21.2863 6.60464 19.433 5.83567 17.4998 5.83335Z" fill="#21395A"/>
</svg>
