<svg width="32" height="14" viewBox="0 0 32 14" fill="none" xmlns="http://www.w3.org/2000/svg">
<path fill-rule="evenodd" clip-rule="evenodd" d="M0.3125 6.99951C0.3125 6.79325 0.431724 6.59543 0.643945 6.44958C0.856166 6.30373 1.144 6.22179 1.44412 6.22179H28.1346L21.0122 1.32836C20.7997 1.18232 20.6803 0.984254 20.6803 0.777729C20.6803 0.571203 20.7997 0.373136 21.0122 0.227101C21.2247 0.0810652 21.5129 -0.000976558 21.8134 -0.000976562C22.1139 -0.000976567 22.4021 0.0810652 22.6146 0.227101L31.6675 6.44888C31.7729 6.52113 31.8565 6.60695 31.9136 6.70144C31.9706 6.79592 32 6.89721 32 6.99951C32 7.10181 31.9706 7.2031 31.9136 7.29759C31.8565 7.39207 31.7729 7.4779 31.6675 7.55014L22.6146 13.7719C22.4021 13.918 22.1139 14 21.8134 14C21.5129 14 21.2247 13.918 21.0122 13.7719C20.7997 13.6259 20.6803 13.4278 20.6803 13.2213C20.6803 13.0148 20.7997 12.8167 21.0122 12.6707L28.1346 7.77723H1.44412C1.144 7.77723 0.856166 7.6953 0.643945 7.54945C0.431724 7.40359 0.3125 7.20578 0.3125 6.99951V6.99951Z" fill="white"/>
</svg>
