<svg width="29" height="29" viewBox="0 0 29 29" fill="none" xmlns="http://www.w3.org/2000/svg">
<path d="M14.5001 19.3327C17.1695 19.3327 19.3334 17.1687 19.3334 14.4993C19.3334 11.83 17.1695 9.66602 14.5001 9.66602C11.8307 9.66602 9.66675 11.83 9.66675 14.4993C9.66675 17.1687 11.8307 19.3327 14.5001 19.3327Z" stroke="#3B373A" stroke-width="2.41667" stroke-linecap="round" stroke-linejoin="round"/>
<path d="M23.0808 9.4553L24.1271 8.8509L24.1271 8.8509L23.0808 9.4553ZM23.1603 9.59287L22.1139 10.1973L22.114 10.1973L23.1603 9.59287ZM24.078 10.4959L24.6655 9.44001L24.6655 9.44001L24.078 10.4959ZM25.9523 11.5386L25.3649 12.5946V12.5946L25.9523 11.5386ZM26.5732 12.5918L25.3649 12.5946V12.5946L26.5732 12.5918ZM26.5819 16.4003L25.3736 16.403V16.403L26.5819 16.4003ZM25.9593 17.4599L25.3736 16.403L25.3736 16.403L25.9593 17.4599ZM24.0804 18.5011L24.6661 19.558L24.0804 18.5011ZM23.1592 19.4061L22.1129 18.8017L22.1129 18.8017L23.1592 19.4061ZM23.0808 19.5418L24.1271 20.1462L24.1271 20.1462L23.0808 19.5418ZM22.7571 20.7913L21.5489 20.8116V20.8116L22.7571 20.7913ZM22.7933 22.9432L21.5851 22.9635L22.7933 22.9432ZM22.1917 24.0086L21.5851 22.9635L21.5851 22.9635L22.1917 24.0086ZM18.8954 25.9218L19.5019 26.9668L19.5019 26.9668L18.8954 25.9218ZM17.6669 25.9127L18.2888 24.8767H18.2888L17.6669 25.9127ZM15.8229 24.8056L15.2009 25.8416L15.8229 24.8056ZM13.1784 24.8042L13.7991 25.8409H13.7991L13.1784 24.8042ZM11.3428 25.9033L10.7221 24.8666V24.8666L11.3428 25.9033ZM10.1188 25.9135L10.7221 24.8666L10.1188 25.9135ZM6.81199 24.008L7.41529 22.961L6.81199 24.008ZM6.20713 22.9406L7.41529 22.961L6.20713 22.9406ZM6.2433 20.7981L5.03514 20.7777L6.2433 20.7981ZM5.92435 19.5568L6.97304 18.9565L5.92435 19.5568ZM5.84035 19.41L4.79166 20.0103L4.79166 20.0103L5.84035 19.41ZM4.91782 18.4987L4.33039 19.5546H4.33039L4.91782 18.4987ZM3.04802 17.4585L2.46059 18.5144H2.46059L3.04802 17.4585ZM2.42711 16.4053L1.21878 16.408L2.42711 16.4053ZM2.41846 12.5968L3.62679 12.5941L2.41846 12.5968ZM3.04109 11.5372L3.62679 12.5941H3.62679L3.04109 11.5372ZM4.91991 10.496L4.33422 9.43913L4.33422 9.43913L4.91991 10.496ZM5.84115 9.59103L4.79483 8.98663L4.79483 8.98663L5.84115 9.59103ZM5.91955 9.4553L6.96586 10.0597L6.96586 10.0597L5.91955 9.4553ZM6.24325 8.20585L7.45141 8.18552V8.18552L6.24325 8.20585ZM6.20704 6.05391L4.99888 6.07424L6.20704 6.05391ZM6.80866 4.98852L7.41521 6.03359H7.41521L6.80866 4.98852ZM10.105 3.07537L10.7115 4.12044L10.7115 4.12044L10.105 3.07537ZM11.3335 3.08446L10.7115 4.12044V4.12044L11.3335 3.08446ZM13.1775 4.1915L12.5555 5.22748L13.1775 4.1915ZM15.822 4.19295L15.2012 3.15625V3.15625L15.822 4.19295ZM17.6575 3.09386L17.0368 2.05716L17.0368 2.05716L17.6575 3.09386ZM18.8816 3.08362L19.4849 2.03667V2.03667L18.8816 3.08362ZM22.1884 4.98916L22.7917 3.94222L22.1884 4.98916ZM22.7933 6.05644L21.5851 6.03611V6.03611L22.7933 6.05644ZM22.7571 8.20585L21.5489 8.18552V8.18552L22.7571 8.20585ZM22.0345 10.0597L22.1139 10.1973L24.2066 8.98848L24.1271 8.8509L22.0345 10.0597ZM23.4906 11.5519L25.3649 12.5946L26.5398 10.4827L24.6655 9.44001L23.4906 11.5519ZM25.3649 12.5946L25.3736 16.403L27.7902 16.3975L27.7816 12.5891L25.3649 12.5946ZM25.3736 16.403L23.4947 17.4442L24.6661 19.558L26.5449 18.5168L25.3736 16.403ZM22.1129 18.8017L22.0345 18.9374L24.1271 20.1462L24.2055 20.0105L22.1129 18.8017ZM21.5489 20.8116L21.5851 22.9635L24.0015 22.9229L23.9653 20.771L21.5489 20.8116ZM21.5851 22.9635L18.2888 24.8767L19.5019 26.9668L22.7982 25.0537L21.5851 22.9635ZM18.2888 24.8767L16.4448 23.7696L15.2009 25.8416L17.0449 26.9486L18.2888 24.8767ZM14.579 23.2526H14.4199V25.6692H14.579V23.2526ZM12.5576 23.7675L10.7221 24.8666L11.9635 26.94L13.7991 25.8409L12.5576 23.7675ZM10.7221 24.8666L7.41529 22.961L6.20868 25.0549L9.51545 26.9605L10.7221 24.8666ZM7.41529 22.961L7.45146 20.8185L5.03514 20.7777L4.99897 22.9202L7.41529 22.961ZM6.97304 18.9565L6.88904 18.8098L4.79166 20.0103L4.87567 20.1571L6.97304 18.9565ZM5.50524 17.4427L3.63544 16.4026L2.46059 18.5144L4.33039 19.5546L5.50524 17.4427ZM3.63544 16.4026L3.62679 12.5941L1.21013 12.5996L1.21878 16.408L3.63544 16.4026ZM3.62679 12.5941L5.50561 11.5529L4.33422 9.43913L2.4554 10.4803L3.62679 12.5941ZM6.88746 10.1954L6.96586 10.0597L4.87324 8.8509L4.79483 8.98663L6.88746 10.1954ZM7.45141 8.18552L7.41521 6.03359L4.99888 6.07424L5.03509 8.22617L7.45141 8.18552ZM7.41521 6.03359L10.7115 4.12044L9.49843 2.0303L6.20211 3.94345L7.41521 6.03359ZM10.7115 4.12044L12.5555 5.22748L13.7994 3.15553L11.9554 2.04849L10.7115 4.12044ZM14.4214 5.74455H14.5805V3.32788H14.4214V5.74455ZM16.4427 5.22964L18.2783 4.13056L17.0368 2.05716L15.2012 3.15625L16.4427 5.22964ZM18.2783 4.13056L21.5851 6.03611L22.7917 3.94222L19.4849 2.03667L18.2783 4.13056ZM21.5851 6.03611L21.5489 8.18552L23.9653 8.22617L24.0014 6.07676L21.5851 6.03611ZM21.5851 6.03611L21.5851 6.03611L24.0014 6.07677C24.0162 5.19824 23.553 4.38091 22.7917 3.94222L21.5851 6.03611ZM18.2783 4.13056L18.2783 4.13056L19.4849 2.03667C18.7255 1.59908 17.7887 1.60692 17.0368 2.05716L18.2783 4.13056ZM14.5805 5.74455C15.2364 5.74455 15.88 5.56659 16.4427 5.22964L15.2012 3.15625C15.0137 3.26856 14.7991 3.32788 14.5805 3.32788V5.74455ZM12.5555 5.22748C13.1191 5.56582 13.764 5.74455 14.4214 5.74455V3.32788C14.2023 3.32788 13.9873 3.2683 13.7994 3.15553L12.5555 5.22748ZM10.7115 4.12044L10.7115 4.12044L11.9554 2.04849C11.2008 1.59547 10.2596 1.58851 9.49843 2.0303L10.7115 4.12044ZM7.41521 6.03359V6.03359L6.20211 3.94345C5.4445 4.38316 4.98414 5.1984 4.99888 6.07424L7.41521 6.03359ZM6.96586 10.0597C7.29463 9.49055 7.46247 8.84271 7.45141 8.18552L5.03509 8.22617C5.03877 8.44524 4.98283 8.66118 4.87324 8.8509L6.96586 10.0597ZM5.50561 11.5529C6.08084 11.2341 6.55851 10.7649 6.88746 10.1954L4.79483 8.98663C4.68518 9.17646 4.52596 9.33287 4.33422 9.43913L5.50561 11.5529ZM3.62679 12.5941L3.62679 12.5941L2.4554 10.4803C1.68521 10.9071 1.20813 11.7191 1.21013 12.5996L3.62679 12.5941ZM3.63544 16.4026L3.63544 16.4026L1.21878 16.408C1.22077 17.2832 1.69578 18.089 2.46059 18.5144L3.63544 16.4026ZM6.88904 18.8098C6.56092 18.2365 6.08243 17.7638 5.50524 17.4427L4.33039 19.5546C4.52279 19.6616 4.68229 19.8192 4.79166 20.0103L6.88904 18.8098ZM7.45146 20.8185C7.46247 20.1661 7.29719 19.5228 6.97304 18.9565L4.87566 20.1571C4.98371 20.3458 5.03881 20.5602 5.03514 20.7777L7.45146 20.8185ZM7.41529 22.961V22.961L4.99897 22.9202C4.98413 23.7988 5.44735 24.6162 6.20868 25.0549L7.41529 22.961ZM10.7221 24.8666L10.7221 24.8666L9.51545 26.9605C10.2748 27.398 11.2116 27.3902 11.9635 26.94L10.7221 24.8666ZM14.4199 23.2526C13.764 23.2526 13.1203 23.4305 12.5576 23.7675L13.7991 25.8409C13.9867 25.7286 14.2012 25.6692 14.4199 25.6692V23.2526ZM16.4448 23.7696C15.8813 23.4313 15.2363 23.2526 14.579 23.2526V25.6692C14.7981 25.6692 15.0131 25.7288 15.2009 25.8416L16.4448 23.7696ZM18.2888 24.8767L17.0449 26.9486C17.7995 27.4017 18.7407 27.4086 19.5019 26.9668L18.2888 24.8767ZM21.5851 22.9635L21.5851 22.9635L22.7982 25.0537C23.5558 24.614 24.0162 23.7987 24.0015 22.9229L21.5851 22.9635ZM22.0345 18.9374C21.7057 19.5066 21.5379 20.1544 21.5489 20.8116L23.9653 20.771C23.9616 20.5519 24.0175 20.3359 24.1271 20.1462L22.0345 18.9374ZM23.4947 17.4442C22.9195 17.763 22.4418 18.2322 22.1129 18.8017L24.2055 20.0105C24.3152 19.8207 24.4744 19.6643 24.6661 19.558L23.4947 17.4442ZM25.3736 16.403V16.403L26.5449 18.5168C27.3151 18.09 27.7922 17.2781 27.7902 16.3975L25.3736 16.403ZM25.3649 12.5946V12.5946L27.7816 12.5891C27.7796 11.7139 27.3046 10.9082 26.5398 10.4827L25.3649 12.5946ZM22.114 10.1973C22.4419 10.765 22.9177 11.2332 23.4906 11.5519L24.6655 9.44001C24.4745 9.33377 24.3159 9.17772 24.2066 8.98847L22.114 10.1973ZM24.1271 8.8509C24.0175 8.66118 23.9616 8.44524 23.9653 8.22617L21.5489 8.18552C21.5379 8.84271 21.7057 9.49054 22.0345 10.0597L24.1271 8.8509Z" fill="#3B373A"/>
</svg>
