<svg width="17" height="18" viewBox="0 0 17 18" fill="none" xmlns="http://www.w3.org/2000/svg">
<path d="M6.58824 17H5.83824C5.83824 17.3091 6.02787 17.5865 6.31588 17.6988C6.60388 17.811 6.93125 17.7351 7.14043 17.5075L6.58824 17ZM6.58824 8.04H7.33824V7.67893L7.05599 7.45374L6.58824 8.04ZM1 1V0.25C0.781258 0.25 0.573417 0.345497 0.430933 0.511468C0.28845 0.67744 0.225526 0.897345 0.258648 1.11356L1 1ZM16 1L16.7091 1.24439C16.7881 1.0152 16.7514 0.761952 16.6107 0.564566C16.4699 0.36718 16.2424 0.25 16 0.25V1ZM10.4118 8.04L9.95735 7.44334L9.66177 7.66845V8.04H10.4118ZM10.4118 12.84L10.964 13.3475C11.0912 13.2091 11.1618 13.028 11.1618 12.84H10.4118ZM7.33824 17V8.04H5.83824V17H7.33824ZM7.05599 7.45374C5.61836 6.3067 4.3361 5.06416 3.38449 3.88821C2.41432 2.68932 1.85744 1.64427 1.74135 0.886435L0.258648 1.11356C0.436676 2.27573 1.20333 3.57735 2.21845 4.83179C3.25214 6.10917 4.61693 7.42663 6.12048 8.62626L7.05599 7.45374ZM1 1.75H16V0.25H1V1.75ZM15.2909 0.755607C14.8919 1.91333 14.0486 3.21923 13.0335 4.44062C12.0244 5.6548 10.8883 6.73435 9.95735 7.44334L10.8662 8.63666C11.896 7.85232 13.1129 6.69186 14.1871 5.39938C15.2553 4.11411 16.2257 2.64667 16.7091 1.24439L15.2909 0.755607ZM9.66177 8.04V12.84H11.1618V8.04H9.66177ZM9.85958 12.3325L6.03604 16.4925L7.14043 17.5075L10.964 13.3475L9.85958 12.3325Z" fill="#102542"/>
</svg>
