<svg width="19" height="20" viewBox="0 0 19 20" fill="none" xmlns="http://www.w3.org/2000/svg">
<path d="M7.58824 18H6.83824C6.83824 18.3091 7.02787 18.5865 7.31588 18.6988C7.60388 18.811 7.93125 18.7351 8.14043 18.5075L7.58824 18ZM7.58824 9.04H8.33824V8.67893L8.05599 8.45374L7.58824 9.04ZM2 2V1.25C1.78126 1.25 1.57342 1.3455 1.43093 1.51147C1.28845 1.67744 1.22553 1.89735 1.25865 2.11356L2 2ZM17 2L17.7091 2.24439C17.7881 2.0152 17.7514 1.76195 17.6107 1.56457C17.4699 1.36718 17.2424 1.25 17 1.25V2ZM11.4118 9.04L10.9573 8.44334L10.6618 8.66845V9.04H11.4118ZM11.4118 13.84L11.964 14.3475C12.0912 14.2091 12.1618 14.028 12.1618 13.84H11.4118ZM8.33824 18V9.04H6.83824V18H8.33824ZM8.05599 8.45374C6.61836 7.3067 5.3361 6.06416 4.38449 4.88821C3.41432 3.68932 2.85744 2.64427 2.74135 1.88644L1.25865 2.11356C1.43668 3.27573 2.20333 4.57735 3.21845 5.83179C4.25214 7.10917 5.61693 8.42663 7.12048 9.62626L8.05599 8.45374ZM2 2.75H17V1.25H2V2.75ZM16.2909 1.75561C15.8919 2.91333 15.0486 4.21923 14.0335 5.44062C13.0244 6.6548 11.8883 7.73435 10.9573 8.44334L11.8662 9.63666C12.896 8.85232 14.1129 7.69186 15.1871 6.39938C16.2553 5.11411 17.2257 3.64667 17.7091 2.24439L16.2909 1.75561ZM10.6618 9.04V13.84H12.1618V9.04H10.6618ZM10.8596 13.3325L7.03604 17.4925L8.14043 18.5075L11.964 14.3475L10.8596 13.3325Z" fill="#102542"/>
</svg>
