<svg width="21" height="12" viewBox="0 0 21 12" fill="none" xmlns="http://www.w3.org/2000/svg">
<path fill-rule="evenodd" clip-rule="evenodd" d="M18.0731 7.6307C18.7695 8.31661 19.5058 8.9624 20.1308 9.72067C20.4069 10.0558 20.6681 10.4014 20.8672 10.7897C21.1498 11.3459 20.8937 11.9554 20.4015 11.989L17.3432 11.9876C16.5538 12.0531 15.9247 11.7318 15.3942 11.1865C14.9723 10.7523 14.578 10.2876 14.1707 9.83867C14.005 9.65383 13.8297 9.48098 13.6215 9.34312C13.2037 9.06977 12.8413 9.15276 12.6025 9.59211C12.3596 10.0397 12.3025 10.5366 12.2801 11.0349C12.2469 11.7624 12.0295 11.9527 11.3063 11.9877C9.75914 12.06 8.29181 11.8227 6.92908 11.0363C5.72562 10.3425 4.79429 9.36163 3.98349 8.25253C2.40336 6.0902 1.19316 3.7163 0.106565 1.27408C-0.139034 0.723672 0.0403652 0.428711 0.639831 0.418075C1.63916 0.398151 2.63809 0.400574 3.63602 0.416729C4.04196 0.423595 4.31129 0.657841 4.46656 1.04502C5.00662 2.38493 5.66722 3.6601 6.49642 4.84324C6.71822 5.15806 6.94375 5.47153 7.26335 5.6938C7.61762 5.94036 7.88835 5.85979 8.05541 5.45921C8.16175 5.20477 8.20828 4.93418 8.23068 4.66217C8.31015 3.73104 8.31968 2.7989 8.18281 1.87054C8.09788 1.29024 7.77288 0.915041 7.19982 0.805322C6.90768 0.749049 6.95148 0.640676 7.09215 0.471589C7.33908 0.181137 7.57142 0 8.03168 0H11.4881C12.0333 0.107363 12.1555 0.355273 12.2296 0.908511L12.2323 4.78697C12.2259 5.00129 12.3387 5.63611 12.7194 5.77672C13.0244 5.87857 13.2275 5.63059 13.4106 5.43512C14.2384 4.54821 14.8291 3.49949 15.3569 2.41435C15.5905 1.93731 15.7923 1.44176 15.9887 0.945802C16.1333 0.578817 16.3589 0.398084 16.7689 0.404613L20.0966 0.408719C20.1947 0.408719 20.2957 0.408719 20.3925 0.424807C20.9522 0.522544 21.1061 0.766415 20.9322 1.31959C20.6605 2.18623 20.1282 2.90983 19.6095 3.63452C19.0535 4.41029 18.4618 5.15893 17.9099 5.93881C17.4057 6.65293 17.4455 7.01197 18.0731 7.6307Z" fill="#3B373A"/>
</svg>
