<svg width="192" height="80" viewBox="0 0 192 80" fill="none" xmlns="http://www.w3.org/2000/svg">
<g clip-path="url(#clip0_617_5698)">
<path d="M38.5185 24.8904L38.5107 24.8981L38.5185 24.8904Z" fill="white"/>
<path d="M33.0258 16.0559C29.8439 16.0576 26.7169 16.8801 23.9504 18.443C21.184 20.0058 18.8727 22.2556 17.2427 24.9723C15.6127 27.6891 14.7196 30.7798 14.6508 33.9424C14.582 37.105 15.3398 40.2312 16.8501 43.0155C18.3604 45.7998 20.5716 48.1468 23.2675 49.8272C25.9634 51.5075 29.0517 52.4637 32.2306 52.6022C35.4094 52.7407 38.5701 52.0569 41.4035 50.6175C44.2369 49.1781 46.6462 47.0324 48.3958 44.3902H43.7146C43.4321 44.7673 43.0649 45.0735 42.6423 45.2845C42.2197 45.4955 41.7533 45.6054 41.2804 45.6054C40.8074 45.6054 40.341 45.4955 39.9184 45.2845C39.4958 45.0735 39.1286 44.7673 38.8461 44.3902C39.0149 44.7688 39.1026 45.1782 39.1036 45.5924C39.0964 46.3568 38.7991 47.0903 38.2712 47.6461C37.7433 48.2019 37.0238 48.539 36.2566 48.59C35.4894 48.641 34.7311 48.402 34.1335 47.921C33.5359 47.44 33.1431 46.7524 33.0336 45.9957C32.9239 46.7516 32.5307 47.4382 31.933 47.9178C31.3352 48.3974 30.5771 48.6345 29.8108 48.5815C29.0445 48.5285 28.3267 48.1893 27.8015 47.632C27.2763 47.0747 26.9826 46.3406 26.9792 45.5769C26.9821 45.1496 27.0723 44.7274 27.2445 44.3359C26.994 44.7011 26.666 45.0073 26.2836 45.233C25.9012 45.4586 25.4738 45.5982 25.0313 45.6419C24.5888 45.6856 24.142 45.6323 23.7225 45.4858C23.3029 45.3394 22.9207 45.1033 22.6029 44.7942C22.285 44.4851 22.0391 44.1104 21.8826 43.6967C21.726 43.2829 21.6626 42.84 21.6967 42.3993C21.7309 41.9585 21.8618 41.5306 22.0803 41.1455C22.2987 40.7605 22.5994 40.4277 22.9612 40.1706C22.5868 40.3207 22.1867 40.397 21.7831 40.3956C21.3711 40.4163 20.9591 40.3536 20.5722 40.2111C20.1854 40.0687 19.8317 39.8495 19.5327 39.5669C19.2336 39.2843 18.9956 38.9443 18.8329 38.5674C18.6702 38.1905 18.5863 37.7846 18.5863 37.3744C18.5863 36.9643 18.6702 36.5584 18.8329 36.1815C18.9956 35.8046 19.2336 35.4645 19.5327 35.182C19.8317 34.8994 20.1854 34.6802 20.5722 34.5378C20.9591 34.3953 21.3711 34.3326 21.7831 34.3533C21.0017 34.314 20.2654 33.9777 19.7264 33.414C19.1873 32.8503 18.8867 32.1022 18.8867 31.3244C18.8867 30.5466 19.1873 29.7986 19.7264 29.2348C20.2654 28.6711 21.0017 28.3348 21.7831 28.2955C22.1877 28.2924 22.5886 28.3716 22.9612 28.5282C22.4557 28.1446 22.0838 27.6131 21.8978 27.0085C21.7117 26.4038 21.721 25.7564 21.9242 25.1573C22.1273 24.5582 22.5143 24.0374 23.0305 23.6681C23.5468 23.2989 24.1665 23.0997 24.8025 23.0987C25.2865 23.0969 25.7638 23.2109 26.1942 23.4309C26.6247 23.6509 26.9956 23.9706 27.2757 24.363C27.1027 23.969 27.0124 23.5441 27.0105 23.1142C27.007 22.3432 27.2997 21.6 27.829 21.0364C28.3582 20.4728 29.0839 20.1314 29.8578 20.0819C30.6317 20.0324 31.3955 20.2785 31.993 20.77C32.5905 21.2615 32.9767 21.9613 33.0726 22.7264C33.1351 22.2993 33.2888 21.8905 33.5233 21.5273C33.7579 21.1641 34.0679 20.8551 34.4326 20.6209C34.7972 20.3867 35.208 20.2328 35.6375 20.1695C36.0669 20.1062 36.5049 20.135 36.9223 20.2539C37.3396 20.3728 37.7264 20.5792 38.0569 20.859C38.3874 21.1389 38.6538 21.4858 38.8382 21.8765C39.0227 22.2672 39.1209 22.6926 39.1263 23.1241C39.1317 23.5557 39.0441 23.9834 38.8695 24.3785C39.2154 23.8942 39.6974 23.5221 40.2551 23.3089C40.8127 23.0957 41.4213 23.0509 42.0045 23.1801C42.5877 23.3093 43.1195 23.6068 43.5334 24.0352C43.9473 24.4636 44.2247 25.004 44.3309 25.5885H49.2306C47.6431 22.6963 45.2995 20.2839 42.4472 18.6061C39.595 16.9282 36.34 16.0471 33.0258 16.0559Z" fill="white"/>
<path d="M51.6338 44.3901C49.3569 48.5552 45.732 51.834 41.3466 53.6951C36.9612 55.5563 32.0721 55.8909 27.4715 54.6446C22.8709 53.3984 18.8283 50.6444 15.9988 46.8287C13.1693 43.0131 11.7185 38.3595 11.8816 33.6218C12.0447 28.8841 13.8122 24.3399 16.8975 20.7256C19.9828 17.1112 24.2053 14.6384 28.8809 13.7078C33.5564 12.7772 38.411 13.4433 42.6582 15.5983C46.9054 17.7532 50.2962 21.2706 52.2814 25.5807H57.1031C57.0692 22.3288 56.57 19.0982 55.6207 15.986C55.5661 15.7999 55.2618 14.9932 55.1916 14.8536L53.1942 9.57144C53.5292 9.18501 53.721 8.69627 53.7378 8.18644C53.7546 7.67662 53.5954 7.17643 53.2867 6.76902C52.9779 6.36162 52.5382 6.07153 52.0406 5.94699C51.543 5.82245 51.0176 5.87096 50.5516 6.08445C50.0856 6.29794 49.7071 6.66355 49.4791 7.12051C49.2511 7.57747 49.1873 8.09825 49.2982 8.59628C49.4091 9.09431 49.6882 9.53959 50.089 9.8581C50.4898 10.1766 50.9881 10.3492 51.5012 10.3471H51.7353L53.873 16.0171L50.1749 19.205C48.1151 12.9998 46.9292 10.6186 41.8501 6.58521L38.386 3.24218C38.5392 2.9278 38.6192 2.58316 38.6201 2.23384C38.6201 1.7917 38.4881 1.3595 38.2408 0.991978C37.9936 0.624456 37.6422 0.338143 37.2312 0.169298C36.8201 0.000452843 36.3679 -0.0433294 35.9318 0.043495C35.4958 0.130319 35.0954 0.343845 34.7815 0.657032C34.4675 0.970219 34.2541 1.36898 34.1683 1.80282C34.0825 2.23665 34.1281 2.68605 34.2994 3.09409C34.4707 3.50214 34.7599 3.85048 35.1304 4.09501C35.5009 4.33953 35.9361 4.46924 36.3809 4.4677C36.6469 4.464 36.9105 4.41683 37.1611 4.32809L41.3352 8.35368L40.6252 12.8214C36.9114 10.1299 33.1665 7.39188 28.6647 6.14309L22.2904 5.62341C22.1775 5.11744 21.8905 4.6665 21.479 4.34833C21.0675 4.03017 20.5572 3.86472 20.0361 3.88053C19.5151 3.89633 19.0159 4.09239 18.6246 4.4349C18.2334 4.77741 17.9746 5.2449 17.8929 5.75677C17.8112 6.26865 17.9117 6.79281 18.1771 7.2389C18.4425 7.68498 18.8562 8.02502 19.3467 8.20038C19.8373 8.37575 20.3741 8.37545 20.8644 8.19954C21.3548 8.02363 21.7681 7.68313 22.033 7.23675L28.5789 7.77195V11.9759C23.609 10.8668 20.5038 12.1621 15.8225 13.2945L10.3065 14.5201C10.1204 14.1571 9.83657 13.8525 9.48672 13.6403C9.13686 13.428 8.73465 13.3164 8.3248 13.3178C7.9049 13.3148 7.49256 13.4289 7.13454 13.647C6.77652 13.8652 6.48715 14.1787 6.29925 14.552C6.11135 14.9254 6.03244 15.3436 6.07146 15.7592C6.11049 16.1749 6.26589 16.5713 6.52005 16.9037C6.7742 17.236 7.11693 17.4908 7.50938 17.6393C7.90182 17.7878 8.32827 17.8241 8.74037 17.7439C9.15246 17.6637 9.5337 17.4703 9.84086 17.1856C10.148 16.901 10.3688 16.5365 10.4782 16.1334L16.7198 14.8226L18.0617 17.1107C14.8005 18.2509 9.0894 22.1989 7.44317 25.1309L3.05844 29.1022C2.80871 29.0092 2.54485 28.9594 2.27823 28.9548C1.83382 28.9548 1.39939 29.0858 1.02988 29.3313C0.660362 29.5767 0.372361 29.9256 0.202292 30.3338C0.0322233 30.742 -0.0122741 31.1911 0.0744263 31.6245C0.161127 32.0578 0.375131 32.4558 0.689377 32.7682C1.00362 33.0806 1.404 33.2934 1.83987 33.3796C2.27574 33.4658 2.72754 33.4216 3.13812 33.2525C3.5487 33.0834 3.89963 32.7971 4.14653 32.4297C4.39343 32.0624 4.52522 31.6305 4.52522 31.1887C4.5139 30.8316 4.41478 30.4827 4.23654 30.1726L9.69796 25.2317L11.9215 25.3636C10.5293 26.7661 9.49878 28.4825 8.91776 30.3665L8.7071 31.0723C8.51293 31.7893 8.36182 32.5171 8.25458 33.2519L5.50827 46.4378C4.98795 46.4776 4.49796 46.6969 4.12295 47.0577C3.74794 47.4185 3.51146 47.8982 3.45437 48.4139C3.39729 48.9296 3.52318 49.4489 3.81029 49.8821C4.09741 50.3154 4.52772 50.6353 5.02688 50.7866C5.52604 50.938 6.06269 50.9113 6.54414 50.7111C7.02559 50.5109 7.42158 50.1498 7.6637 49.6902C7.90583 49.2306 7.97888 48.7014 7.87024 48.1939C7.76159 47.6865 7.47808 47.2327 7.06868 46.911L9.40928 35.7727L10.1193 35.5788C9.97566 37.5342 9.99393 39.498 10.1739 41.4504L10.6576 58.7628C10.1852 58.9823 9.80471 59.3587 9.58164 59.8272C9.35857 60.2957 9.30695 60.8269 9.43568 61.3292C9.56441 61.8315 9.86542 62.2734 10.2868 62.5787C10.7082 62.884 11.2235 63.0335 11.7439 63.0015C12.2643 62.9694 12.7571 62.7579 13.1374 62.4033C13.5177 62.0486 13.7616 61.5732 13.827 61.059C13.8925 60.5447 13.7753 60.0239 13.4958 59.5863C13.2163 59.1487 12.792 58.8218 12.296 58.662L11.9683 46.8257C12.0776 46.7558 13.0762 46.1043 13.2713 45.9569C14.7225 49.0595 14.6913 50.1764 16.3453 51.9915L17.2815 69.552C16.8155 69.7894 16.4475 70.1811 16.2411 70.6594C16.0346 71.1378 16.0027 71.6728 16.1508 72.1721C16.2989 72.6714 16.6178 73.1036 17.0523 73.394C17.4868 73.6844 18.0097 73.8149 18.5307 73.7629C19.0516 73.7108 19.538 73.4796 19.9057 73.109C20.2734 72.7384 20.4994 72.2518 20.5446 71.7332C20.5898 71.2146 20.4515 70.6966 20.1534 70.2686C19.8554 69.8406 19.4163 69.5296 18.9121 69.3892L18.0851 53.566V51.6424C22.3919 56.529 22.7663 57.6226 27.7206 60.5546L27.9001 75.7184C27.426 75.9398 27.0445 76.3189 26.8217 76.7902C26.5989 77.2615 26.5487 77.7953 26.6798 78.2995C26.8109 78.8037 27.1151 79.2465 27.5397 79.5514C27.9644 79.8562 28.4828 80.0041 29.0055 79.9692C29.5281 79.9344 30.0221 79.7192 30.402 79.3607C30.782 79.0023 31.024 78.5231 31.0863 78.0061C31.1486 77.489 31.0273 76.9666 30.7432 76.529C30.4592 76.0915 30.0303 75.7664 29.5307 75.6098L29.3591 61.0743L29.4215 56.8315C33.2294 58.5717 37.1849 59.9734 41.2415 61.02L44.4326 75.6874C44.2155 75.8938 44.0428 76.1418 43.9248 76.4164C43.8068 76.6911 43.7459 76.9866 43.746 77.2852C43.7444 77.727 43.8747 78.1594 44.1203 78.5276C44.366 78.8958 44.7159 79.1833 45.1259 79.3538C45.5359 79.5243 45.9875 79.5701 46.4237 79.4854C46.8598 79.4007 47.261 79.1893 47.5763 78.878C47.8916 78.5667 48.107 78.1694 48.1952 77.7364C48.2834 77.3034 48.2405 76.8541 48.0719 76.4453C47.9032 76.0365 47.6165 75.6866 47.2478 75.4399C46.8792 75.1932 46.4452 75.0607 46.0008 75.0591L42.0998 57.2736L41.9983 55.2724C44.5574 55.8386 49.7535 54.807 52.7963 53.3566L64.3901 64.5181C64.2849 64.7798 64.2293 65.0585 64.2263 65.3403C64.2247 65.8249 64.3816 66.2968 64.6734 66.6849C64.9652 67.073 65.3761 67.3563 65.844 67.492C66.3119 67.6277 66.8115 67.6085 67.2674 67.4373C67.7234 67.266 68.1109 66.952 68.3717 66.5426C68.6324 66.1332 68.7522 65.6507 68.713 65.1677C68.6737 64.6847 68.4776 64.2275 68.1541 63.865C67.8306 63.5026 67.3974 63.2545 66.9197 63.1583C66.442 63.062 65.9457 63.1227 65.5058 63.3314L54.3021 52.5266L51.8523 50.1997L50.6118 49.013C52.5155 47.4617 54.3021 46.0112 55.964 44.4289L51.6338 44.3901Z" fill="white"/>
<path d="M37.7852 34.7954L42.1699 36.114C41.9341 37.236 41.4578 38.2942 40.7733 39.2166C40.1624 40.0224 39.3576 40.6625 38.4327 41.0782C37.2946 41.5275 36.0755 41.7387 34.8516 41.6987C33.3745 41.7455 31.9041 41.4812 30.5371 40.923C29.3254 40.3233 28.3186 39.3817 27.6425 38.216C26.7828 36.7223 26.3637 35.018 26.4332 33.2984C26.4332 30.6302 27.1432 28.5903 28.571 27.1553C29.9987 25.7204 32.0117 25.0068 34.6175 25.0068C36.3117 24.9143 37.9932 25.3451 39.4314 26.2401C40.684 27.1882 41.5952 28.5131 42.0295 30.0175L37.5901 30.9948C37.4827 30.6125 37.317 30.2489 37.0986 29.9166C36.8317 29.5489 36.4816 29.2486 36.0765 29.0402C35.651 28.8366 35.1833 28.7356 34.7112 28.7454C34.1952 28.7243 33.6827 28.8387 33.2253 29.0769C32.7678 29.3152 32.3816 29.669 32.1053 30.1028C31.5815 31.075 31.3461 32.1752 31.4265 33.2752C31.4265 35.0592 31.6918 36.2769 32.2067 36.944C32.4911 37.2805 32.8512 37.5457 33.2578 37.7182C33.6644 37.8907 34.1062 37.9655 34.5473 37.9368C34.9436 37.9689 35.3422 37.9163 35.7163 37.7825C36.0904 37.6487 36.4314 37.4369 36.7163 37.1612C37.2756 36.4797 37.6442 35.6637 37.7852 34.7954Z" fill="white"/>
<path d="M57.2905 36.6647H48.3026C48.334 37.2456 48.5376 37.8042 48.8877 38.2703C49.0935 38.5193 49.3536 38.7186 49.6483 38.8529C49.9429 38.9873 50.2645 39.0533 50.5886 39.0459C51.0251 39.0354 51.4518 38.9153 51.8291 38.6969C52.1344 38.4876 52.3988 38.2248 52.6093 37.9212L57.0409 38.3246C56.4799 39.3779 55.6306 40.2518 54.591 40.8454C53.2974 41.4281 51.8821 41.6941 50.4637 41.6211C49.208 41.677 47.9554 41.4544 46.7968 40.9695C45.8748 40.4996 45.1063 39.7786 44.581 38.8908C43.9801 37.88 43.6773 36.7215 43.7072 35.5478C43.6731 34.728 43.8124 33.9102 44.1161 33.1473C44.4198 32.3844 44.8812 31.6933 45.4705 31.1188C46.1287 30.5326 46.897 30.0815 47.7311 29.7913C48.5653 29.5012 49.4488 29.3777 50.3311 29.4279C51.7005 29.3695 53.0643 29.6353 54.3101 30.2036C55.2643 30.6857 56.042 31.4535 56.5337 32.3986C57.0925 33.5671 57.3601 34.8521 57.3139 36.145L57.2905 36.6647ZM52.7107 34.5239C52.698 33.8417 52.4502 33.1846 52.0086 32.6624C51.8112 32.4738 51.5773 32.327 51.3211 32.231C51.065 32.135 50.7919 32.0918 50.5184 32.1039C50.1847 32.0954 49.8539 32.1679 49.5548 32.3153C49.2557 32.4626 48.9973 32.6803 48.8019 32.9493C48.494 33.4114 48.3162 33.9471 48.287 34.5006L52.7107 34.5239Z" fill="white"/>
<path d="M59.4048 45.8096V29.7227H63.6179V31.4446C64.0376 30.8601 64.5676 30.3623 65.1783 29.9786C65.872 29.6144 66.6489 29.4353 67.4331 29.459C68.143 29.4286 68.8492 29.5769 69.4861 29.8901C70.123 30.2033 70.6701 30.6713 71.0766 31.2507C71.9671 32.5511 72.418 34.0996 72.3639 35.6719C72.478 37.2766 71.9762 38.8647 70.9596 40.1163C70.5173 40.6165 69.9705 41.0145 69.3573 41.2825C68.7441 41.5504 68.0793 41.6819 67.4097 41.6676C66.76 41.6767 66.1152 41.5553 65.5138 41.3108C64.9269 41.0755 64.3955 40.7215 63.9534 40.2715V45.8096H59.4048ZM63.9144 35.571C63.8585 36.3035 64.0659 37.0318 64.4995 37.6265C64.6798 37.8418 64.9069 38.0137 65.1637 38.1293C65.4204 38.2448 65.7002 38.301 65.9819 38.2936C66.2351 38.2966 66.4856 38.2406 66.7132 38.1302C66.9408 38.0197 67.1392 37.8579 67.2926 37.6575C67.7091 37.0073 67.8958 36.2377 67.8232 35.4702C67.8831 34.7371 67.6875 34.0059 67.2692 33.3992C67.113 33.1921 66.9104 33.024 66.6774 32.9082C66.4445 32.7925 66.1877 32.7322 65.9273 32.7322C65.652 32.7282 65.3796 32.787 65.1307 32.9039C64.8819 33.0209 64.6633 33.193 64.4917 33.407C64.0501 34.0446 63.8459 34.8154 63.9144 35.5866V35.571Z" fill="white"/>
<path d="M83.3255 35.1833C84.1127 35.2262 84.8615 35.5355 85.4476 36.0597C85.7127 36.3194 85.9194 36.6321 86.0539 36.977C86.1884 37.322 86.2477 37.6914 86.2278 38.0609C86.2614 38.5354 86.1781 39.0109 85.985 39.4461C85.792 39.8813 85.495 40.2631 85.12 40.5585C84.3866 41.1092 83.0602 41.3884 81.1565 41.3884H74.4546V29.7537H81.6871C82.7451 29.6954 83.7951 29.9666 84.6908 30.5294C85.0234 30.7665 85.2915 31.082 85.4713 31.4475C85.651 31.813 85.7367 32.2171 85.7207 32.6236C85.7243 33.2383 85.4831 33.8295 85.0497 34.268C84.5739 34.745 83.9652 35.0693 83.3021 35.1988L83.3255 35.1833ZM78.972 34.1749H80.1111C80.8913 34.1749 81.2346 33.8259 81.2346 33.1433C81.2346 32.5926 80.8366 32.3134 80.0408 32.3134H78.972V34.1749ZM78.972 38.6426H80.4543C80.7711 38.6573 81.0839 38.5673 81.3438 38.3867C81.4652 38.2994 81.561 38.1815 81.6214 38.0452C81.6817 37.9088 81.7044 37.759 81.6871 37.611C81.6871 36.9129 81.2736 36.5561 80.4543 36.5561H78.972V38.6426Z" fill="white"/>
<path d="M87.8432 35.5866C87.8175 34.7683 87.9655 33.9538 88.2773 33.1961C88.5892 32.4384 89.058 31.7544 89.6532 31.1887C90.3148 30.5933 91.0883 30.134 91.9292 29.8371C92.7701 29.5403 93.6618 29.4118 94.5529 29.459C96.9039 29.459 98.6776 30.1364 99.8739 31.4912C100.864 32.6969 101.375 34.2217 101.311 35.777C101.246 37.3323 100.61 38.81 99.5228 39.9302C98.8507 40.5282 98.0663 40.9882 97.2147 41.2837C96.3631 41.5792 95.4612 41.7044 94.5607 41.6521C92.9155 41.7241 91.2972 41.219 89.9887 40.225C89.2954 39.6688 88.7409 38.9607 88.3687 38.156C87.9964 37.3513 87.8166 36.4719 87.8432 35.5866ZM92.3527 35.5866C92.2815 36.412 92.5053 37.2359 92.9847 37.9135C93.1737 38.156 93.4162 38.3521 93.6935 38.4866C93.9708 38.6211 94.2756 38.6904 94.5841 38.6892C94.8827 38.6924 95.1781 38.6284 95.4483 38.5022C95.7185 38.3759 95.9565 38.1906 96.1445 37.9601C96.6129 37.2776 96.833 36.4568 96.7687 35.6331C96.8288 34.8317 96.6083 34.0343 96.1445 33.376C95.9624 33.1356 95.7267 32.9405 95.456 32.8059C95.1853 32.6713 94.8868 32.601 94.5841 32.6004C94.272 32.5979 93.9635 32.6665 93.6822 32.801C93.4009 32.9354 93.1543 33.1321 92.9613 33.376C92.5162 34.0219 92.3019 34.7975 92.3527 35.5788V35.5866Z" fill="white"/>
<path d="M106.001 21.8148C105.99 21.4128 106.056 21.0127 106.195 20.6405C106.333 20.2683 106.542 19.9323 106.807 19.6544C107.102 19.362 107.446 19.1363 107.821 18.9905C108.195 18.8447 108.592 18.7815 108.989 18.8047C110.035 18.8047 110.825 19.1375 111.358 19.803C111.799 20.3953 112.026 21.1443 111.998 21.9083C111.969 22.6723 111.686 23.3982 111.201 23.9485C110.902 24.2423 110.553 24.4682 110.174 24.6134C109.795 24.7585 109.393 24.82 108.992 24.7944C108.26 24.8297 107.539 24.5816 106.957 24.0933C106.648 23.8201 106.401 23.4722 106.235 23.0769C106.07 22.6817 105.989 22.2497 106.001 21.8148ZM108.009 21.8148C107.977 22.2202 108.077 22.625 108.29 22.9578C108.375 23.077 108.483 23.1733 108.606 23.2394C108.73 23.3054 108.865 23.3395 109.003 23.3389C109.136 23.3404 109.267 23.309 109.387 23.247C109.508 23.185 109.614 23.094 109.697 22.9807C109.906 22.6455 110.004 22.2423 109.975 21.8376C110.002 21.444 109.904 21.0522 109.697 20.7289C109.616 20.6108 109.511 20.5149 109.391 20.4488C109.27 20.3827 109.137 20.3482 109.003 20.3479C108.864 20.3467 108.726 20.3804 108.601 20.4464C108.476 20.5125 108.366 20.6091 108.28 20.7289C108.082 21.0462 107.986 21.4272 108.009 21.811V21.8148Z" fill="white"/>
<path d="M115.86 41.3883H111.366V32.9881H107.941V41.3883H103.447V29.7537H115.86V41.3883Z" fill="white"/>
<path d="M118.599 45.8096V29.7227H122.827V31.4446C123.247 30.8601 123.777 30.3623 124.388 29.9786C125.058 29.6272 125.807 29.4485 126.564 29.459C127.274 29.4286 127.981 29.5769 128.618 29.8901C129.254 30.2033 129.802 30.6713 130.208 31.2507C131.099 32.5511 131.549 34.0996 131.495 35.6719C131.609 37.2766 131.108 38.8647 130.091 40.1163C129.649 40.6165 129.102 41.0145 128.489 41.2825C127.875 41.5504 127.211 41.6819 126.541 41.6676C125.891 41.6773 125.246 41.5559 124.645 41.3108C124.058 41.0755 123.527 40.7215 123.085 40.2715V45.8096H118.599ZM123.108 35.571C123.052 36.3035 123.26 37.0318 123.693 37.6265C123.874 37.8418 124.101 38.0137 124.357 38.1293C124.614 38.2448 124.894 38.301 125.176 38.2936C125.429 38.2966 125.679 38.2406 125.907 38.1302C126.135 38.0197 126.333 37.8579 126.486 37.6575C126.903 37.0073 127.09 36.2377 127.017 35.4702C127.079 34.7345 126.883 34.0002 126.463 33.3915C126.307 33.1844 126.104 33.0163 125.871 32.9005C125.638 32.7847 125.382 32.7244 125.121 32.7244C124.845 32.721 124.571 32.78 124.321 32.8968C124.071 33.0137 123.851 33.1855 123.678 33.3992C123.237 34.04 123.036 34.8137 123.108 35.5866V35.571Z" fill="white"/>
<path d="M146.772 41.3883H142.52V35.6486L138.104 41.3883H133.82V29.7537H138.08V35.571L142.535 29.7537H146.772V41.3883Z" fill="white"/>
<path d="M158.491 35.1832C159.28 35.2263 160.031 35.5355 160.62 36.0597C160.884 36.3203 161.09 36.6331 161.225 36.9778C161.359 37.3226 161.419 37.6916 161.401 38.0609C161.431 38.5365 161.345 39.0124 161.149 39.4475C160.953 39.8826 160.654 40.2639 160.277 40.5585C159.536 41.1092 158.217 41.3884 156.306 41.3884H149.612V29.7537H156.852C157.908 29.6945 158.956 29.9657 159.848 30.5294C160.182 30.7661 160.451 31.0813 160.632 31.4467C160.813 31.8122 160.9 32.2165 160.886 32.6236C160.882 33.1976 160.666 33.7501 160.277 34.1749C159.804 34.6551 159.194 34.9799 158.53 35.1057L158.491 35.1832ZM154.145 34.1749H155.276C156.056 34.1749 156.407 33.8259 156.407 33.1433C156.407 32.5926 156.009 32.3134 155.214 32.3134H154.145V34.1749ZM154.145 38.6426H155.596C155.915 38.6573 156.23 38.5674 156.493 38.3867C156.613 38.2983 156.708 38.1802 156.769 38.0442C156.829 37.9081 156.852 37.7588 156.837 37.611C156.837 36.9129 156.423 36.5561 155.596 36.5561H154.121L154.145 38.6426Z" fill="white"/>
<path d="M163.016 35.5866C162.99 34.7683 163.138 33.9538 163.45 33.1961C163.762 32.4384 164.23 31.7544 164.826 31.1887C165.486 30.5939 166.258 30.1349 167.098 29.8381C167.937 29.5412 168.828 29.4124 169.718 29.459C172.069 29.459 173.845 30.1364 175.046 31.4912C176.037 32.6969 176.548 34.2217 176.483 35.777C176.418 37.3323 175.782 38.81 174.695 39.9302C174.022 40.5285 173.236 40.9885 172.383 41.284C171.53 41.5795 170.627 41.7046 169.725 41.6522C168.08 41.7241 166.462 41.219 165.153 40.225C164.461 39.6684 163.908 38.96 163.537 38.1553C163.166 37.3506 162.987 36.4714 163.016 35.5866ZM167.517 35.5866C167.444 36.4133 167.671 37.2387 168.157 37.9135C168.353 38.1439 168.598 38.329 168.873 38.456C169.149 38.583 169.449 38.6487 169.753 38.6487C170.056 38.6487 170.356 38.583 170.632 38.456C170.907 38.329 171.152 38.1439 171.348 37.9135C171.813 37.2296 172.033 36.4099 171.972 35.5866C172.034 34.7839 171.81 33.985 171.34 33.3295C171.159 33.0882 170.924 32.8924 170.653 32.7577C170.382 32.6231 170.083 32.5532 169.78 32.5538C169.467 32.5514 169.157 32.6199 168.874 32.7543C168.592 32.8887 168.344 33.0854 168.149 33.3295C167.689 33.9865 167.466 34.7796 167.517 35.5789V35.5866Z" fill="white"/>
<path d="M192 44.7159H188.879V41.3884H180.562V44.7159H177.441V38.1229H178.581C179.481 36.3383 179.908 34.3546 179.821 32.3598V29.7227H190.744V38.1229H191.977L192 44.7159ZM186.258 38.1229V32.9881H184.104V33.12C184.085 34.8408 183.724 36.5408 183.043 38.1229H186.258Z" fill="white"/>
<path d="M91.9546 18.7938H93.8806V20.9011H95.9889V18.7938H97.9546V24.7938H96.0206V22.3877H93.9123V24.7938H91.9863L91.9546 18.7938Z" fill="white"/>
<path d="M105.028 24.7938H103.092V20.2728H100.965V24.7938H99.0283V18.7938H105.028V24.7938Z" fill="white"/>
<path d="M116.804 20.2133C117.064 19.7012 117.473 19.279 117.979 19.0022C118.484 18.7254 119.062 18.6068 119.636 18.662C120.062 18.6375 120.488 18.6976 120.89 18.8388C121.292 18.98 121.661 19.1994 121.977 19.4842C122.267 19.7952 122.491 20.1622 122.633 20.5624C122.775 20.9627 122.833 21.3877 122.804 21.8111C122.838 22.2384 122.787 22.6681 122.653 23.0755C122.519 23.4829 122.305 23.8599 122.024 24.1846C121.711 24.4749 121.343 24.6984 120.94 24.8412C120.537 24.984 120.109 25.043 119.683 25.0146C118.963 25.0583 118.247 24.8736 117.639 24.4871C117.17 24.149 116.819 23.6747 116.632 23.1297L118.419 22.6566C118.491 22.9429 118.664 23.194 118.907 23.3643C119.149 23.5346 119.445 23.6127 119.741 23.5846C120.036 23.5564 120.312 23.4238 120.517 23.2108C120.723 22.9979 120.845 22.7186 120.861 22.4239H119.012V21.2837H120.869C120.868 21.1225 120.834 20.9631 120.769 20.8153C120.705 20.6674 120.61 20.5343 120.492 20.424C120.374 20.3136 120.234 20.2284 120.081 20.1735C119.929 20.1187 119.767 20.0952 119.605 20.1047C119.357 20.0875 119.11 20.155 118.906 20.2961C118.702 20.4371 118.552 20.6432 118.481 20.8804L116.804 20.2133Z" fill="white"/>
<path d="M128.866 24.8672H127.157V21.7103H125.862V23.5719C125.892 23.9629 125.784 24.3521 125.558 24.6733C125.439 24.797 125.294 24.893 125.134 24.9547C124.973 25.0164 124.801 25.0421 124.63 25.0301C124.2 25.0338 123.77 24.9896 123.35 24.8982V23.6417C123.498 23.6938 123.653 23.7251 123.81 23.7348C124.037 23.7348 124.154 23.5641 124.154 23.2306V20.4771H128.835L128.866 24.8672Z" fill="white"/>
<path d="M134.835 23.1064H131.409C131.421 23.3274 131.497 23.5403 131.628 23.7192C131.708 23.8117 131.807 23.8855 131.919 23.9352C132.031 23.9848 132.153 24.009 132.275 24.0062C132.443 24.0046 132.607 23.9591 132.751 23.8743C132.869 23.8063 132.97 23.7136 133.048 23.6028L134.725 23.7502C134.517 24.154 134.194 24.4883 133.797 24.712C133.307 24.9306 132.772 25.0291 132.236 24.999C131.761 25.0198 131.286 24.935 130.848 24.7508C130.496 24.5802 130.203 24.3104 130.005 23.9751C129.778 23.5899 129.662 23.1497 129.67 22.7031C129.658 22.3927 129.711 22.0834 129.827 21.7948C129.942 21.5063 130.117 21.245 130.341 21.0277C130.59 20.8031 130.882 20.6304 131.2 20.5198C131.517 20.4093 131.854 20.363 132.19 20.3839C132.707 20.3589 133.224 20.4573 133.695 20.6709C134.051 20.8543 134.342 21.1411 134.53 21.4931C134.738 21.937 134.837 22.4233 134.819 22.9125L134.835 23.1064ZM133.102 22.3308C133.094 22.0739 132.998 21.8275 132.829 21.6327C132.757 21.559 132.669 21.5015 132.572 21.4641C132.475 21.4266 132.371 21.4101 132.268 21.4155C132.14 21.4123 132.013 21.4403 131.899 21.4972C131.785 21.554 131.686 21.6378 131.612 21.7413C131.496 21.9173 131.429 22.1206 131.417 22.3308H133.102Z" fill="white"/>
<path d="M140.569 24.8672H138.65L137.994 23.6495C137.93 23.4992 137.825 23.3701 137.69 23.2771C137.575 23.2272 137.449 23.2033 137.323 23.2073V24.8672H135.615V20.446H137.323V22.0749C137.441 22.0692 137.553 22.0193 137.635 21.9353C137.749 21.7747 137.845 21.6032 137.924 21.4234C138.016 21.217 138.131 21.0218 138.267 20.8416C138.371 20.7217 138.502 20.6286 138.65 20.5701C138.838 20.5015 139.035 20.4623 139.235 20.4538C139.477 20.4538 139.82 20.4538 140.288 20.4538V21.6561H140.21C140.036 21.6409 139.861 21.6409 139.687 21.6561C139.583 21.667 139.484 21.7044 139.399 21.7646C139.296 21.8687 139.211 21.9894 139.149 22.1214C139.085 22.2576 139.003 22.3853 138.907 22.5015C138.833 22.5762 138.738 22.6275 138.634 22.6489C138.825 22.6579 139.011 22.7082 139.18 22.7963C139.42 23.0182 139.618 23.2809 139.765 23.5719L140.569 24.8672Z" fill="white"/>
<path d="M144.876 21.7103H143.643V24.8672H141.934V21.7103H140.694V20.4771H144.876V21.7103Z" fill="white"/>
<path d="M145.492 26.5813V20.477H147.053V21.1286C147.217 20.9051 147.424 20.7155 147.661 20.5701C147.916 20.4379 148.201 20.3712 148.488 20.3762C148.757 20.3649 149.024 20.4207 149.265 20.5386C149.506 20.6565 149.714 20.8327 149.869 21.051C150.203 21.5483 150.372 22.1367 150.353 22.7341C150.394 23.3414 150.204 23.9419 149.822 24.4173C149.655 24.6058 149.448 24.7555 149.216 24.856C148.984 24.9565 148.733 25.0053 148.48 24.999C148.245 24.9978 148.012 24.9531 147.794 24.8672C147.575 24.7738 147.376 24.6395 147.209 24.4716V26.5813H145.492ZM147.209 22.7031C147.186 22.9793 147.263 23.2546 147.427 23.4788C147.495 23.5608 147.581 23.6264 147.678 23.6707C147.776 23.715 147.882 23.7369 147.989 23.7347C148.086 23.7347 148.181 23.7123 148.268 23.6692C148.355 23.6261 148.43 23.5636 148.488 23.4865C148.645 23.2421 148.716 22.9531 148.691 22.6643C148.71 22.3897 148.636 22.1166 148.48 21.8887C148.421 21.809 148.343 21.7443 148.253 21.6999C148.164 21.6554 148.065 21.6324 147.965 21.6327C147.861 21.6318 147.757 21.6543 147.663 21.6986C147.568 21.7429 147.485 21.8079 147.419 21.8887C147.262 22.13 147.188 22.4161 147.209 22.7031Z" fill="white"/>
<path d="M151 22.7031C150.99 22.3917 151.046 22.0816 151.165 21.793C151.283 21.5044 151.461 21.2437 151.687 21.0277C152.195 20.5753 152.862 20.341 153.544 20.3762C153.917 20.3502 154.292 20.4062 154.641 20.5402C154.99 20.6743 155.305 20.8831 155.564 21.1518C155.939 21.6099 156.133 22.1885 156.108 22.7785C156.084 23.3685 155.843 23.9293 155.432 24.3553C154.916 24.8113 154.24 25.0456 153.551 25.0068C152.925 25.0373 152.308 24.8448 151.812 24.4638C151.549 24.2528 151.338 23.9839 151.198 23.6784C151.057 23.3729 150.989 23.039 151 22.7031ZM152.709 22.7031C152.687 23.0141 152.772 23.3232 152.951 23.5796C153.025 23.6682 153.118 23.7392 153.223 23.7875C153.329 23.8358 153.443 23.8602 153.559 23.8588C153.674 23.859 153.787 23.8341 153.891 23.7858C153.995 23.7376 154.087 23.6672 154.16 23.5796C154.345 23.3204 154.431 23.0041 154.402 22.6876C154.427 22.3812 154.341 22.076 154.16 21.8267C154.087 21.7401 153.997 21.6703 153.894 21.6221C153.792 21.5738 153.68 21.5484 153.567 21.5474C153.449 21.5459 153.332 21.5709 153.226 21.6206C153.119 21.6703 153.025 21.7434 152.951 21.8344C152.775 22.0863 152.69 22.3895 152.709 22.6954V22.7031Z" fill="white"/>
<path d="M161.626 24.8672H159.926V21.7103H158.623V24.8672H156.914V20.446H161.595L161.626 24.8672Z" fill="white"/>
<path d="M162.665 26.5813V20.477H164.264V21.1286C164.429 20.9051 164.635 20.7155 164.873 20.5701C165.128 20.4379 165.412 20.3712 165.7 20.3762C165.968 20.3649 166.235 20.4207 166.477 20.5386C166.718 20.6565 166.925 20.8327 167.08 21.051C167.414 21.5483 167.583 22.1367 167.564 22.7341C167.609 23.3418 167.419 23.9437 167.034 24.4173C166.866 24.6058 166.659 24.7555 166.428 24.856C166.196 24.9565 165.945 25.0053 165.692 24.999C165.441 25.0037 165.192 24.9589 164.958 24.8672C164.74 24.7738 164.541 24.6395 164.373 24.4716V26.5813H162.665ZM164.381 22.7031C164.358 22.9793 164.435 23.2546 164.599 23.4788C164.668 23.5608 164.754 23.6264 164.851 23.6707C164.948 23.715 165.054 23.7369 165.161 23.7347C165.258 23.7347 165.354 23.7123 165.44 23.6692C165.527 23.6261 165.602 23.5636 165.661 23.4865C165.817 23.2421 165.888 22.9531 165.863 22.6643C165.882 22.3897 165.808 22.1166 165.653 21.8887C165.593 21.809 165.515 21.7443 165.426 21.6999C165.336 21.6554 165.238 21.6324 165.138 21.6327C165.034 21.6306 164.932 21.6527 164.838 21.6971C164.745 21.7416 164.663 21.8072 164.599 21.8887C164.435 22.1273 164.358 22.4148 164.381 22.7031Z" fill="white"/>
<path d="M173.353 24.8672H171.738V22.7187L170.069 24.8672H168.446V20.446H170.053V22.6489L171.746 20.446H173.353V24.8672Z" fill="white"/>
<path d="M177.8 22.5403C178.091 22.5587 178.367 22.6765 178.58 22.8738C178.685 22.9732 178.766 23.0941 178.819 23.2281C178.872 23.3621 178.894 23.5059 178.885 23.6495C178.898 23.8305 178.866 24.0121 178.793 24.1783C178.719 24.3445 178.606 24.4905 178.463 24.6035C178.004 24.8542 177.479 24.9623 176.958 24.9138H174.422V20.4926H177.168C177.565 20.4668 177.961 20.5644 178.299 20.7718C178.424 20.8591 178.526 20.9753 178.595 21.1105C178.665 21.2457 178.7 21.3957 178.697 21.5475C178.698 21.6626 178.675 21.7767 178.631 21.8832C178.587 21.9897 178.522 22.0864 178.44 22.168C178.261 22.3508 178.029 22.473 177.777 22.517L177.8 22.5403ZM176.146 22.1525H176.583C176.864 22.1525 177.004 22.0284 177.004 21.7646C177.004 21.5009 176.856 21.4466 176.552 21.4466H176.146V22.1525ZM176.146 23.8511H176.708C176.831 23.8581 176.952 23.8224 177.051 23.7503C177.093 23.7186 177.126 23.6773 177.148 23.63C177.169 23.5827 177.179 23.5308 177.176 23.4788C177.176 23.2073 177.02 23.0755 176.708 23.0755H176.146V23.8511Z" fill="white"/>
<path d="M179.517 22.7031C179.507 22.3916 179.563 22.0816 179.681 21.793C179.799 21.5044 179.977 21.2437 180.203 21.0277C180.76 20.5806 181.46 20.3465 182.175 20.3678C182.891 20.3891 183.575 20.6645 184.104 21.1441C184.475 21.5753 184.669 22.1286 184.65 22.6954C184.661 23.0063 184.606 23.316 184.49 23.6046C184.373 23.8932 184.196 24.1542 183.972 24.3708C183.46 24.7733 182.832 25.0012 182.18 25.0207C181.527 25.0403 180.886 24.8505 180.351 24.4794C180.08 24.2704 179.863 24.0003 179.718 23.6914C179.573 23.3826 179.504 23.0438 179.517 22.7031ZM181.225 22.7031C181.2 23.0145 181.285 23.3249 181.467 23.5796C181.54 23.6688 181.632 23.7407 181.737 23.7901C181.842 23.8395 181.956 23.8651 182.072 23.8651C182.188 23.8651 182.302 23.8395 182.406 23.7901C182.511 23.7407 182.603 23.6688 182.676 23.5796C182.855 23.3177 182.938 23.0028 182.91 22.6876C182.933 22.3825 182.851 22.0787 182.676 21.8267C182.604 21.7401 182.513 21.6703 182.411 21.6221C182.308 21.5738 182.197 21.5484 182.083 21.5474C181.966 21.5459 181.849 21.5709 181.742 21.6206C181.635 21.6703 181.541 21.7434 181.467 21.8344C181.288 22.0846 181.203 22.3891 181.225 22.6954V22.7031Z" fill="white"/>
<path d="M190.51 26.1625H189.332V24.8672H186.211V26.1315H185.025V23.665H185.454C185.793 22.9869 185.954 22.2343 185.922 21.4776V20.4771H190.073V23.665H190.541L190.51 26.1625ZM188.364 23.665V21.7103H187.545V21.7646C187.538 22.4186 187.4 23.0646 187.139 23.665H188.364Z" fill="white"/>
</g>
<defs>
<clipPath id="clip0_617_5698">
<rect width="192" height="80" fill="white"/>
</clipPath>
</defs>
</svg>
