<svg width="163" height="68" viewBox="0 0 163 68" fill="none" xmlns="http://www.w3.org/2000/svg">
<path d="M32.7007 21.1569L32.6941 21.1635L32.7007 21.1569Z" fill="white"/>
<path d="M28.0376 13.6475C25.3363 13.649 22.6816 14.3481 20.333 15.6766C17.9844 17.005 16.0222 18.9173 14.6384 21.2265C13.2546 23.5358 12.4964 26.1629 12.438 28.8511C12.3796 31.5393 13.0229 34.1966 14.3051 36.5632C15.5873 38.9299 17.4645 40.9248 19.7532 42.3531C22.0419 43.7814 24.6638 44.5942 27.3625 44.7119C30.0612 44.8297 32.7445 44.2484 35.1499 43.0249C37.5554 41.8014 39.6008 39.9776 41.0861 37.7317H37.1119C36.8721 38.0522 36.5604 38.3125 36.2016 38.4919C35.8428 38.6712 35.4469 38.7646 35.0454 38.7646C34.6439 38.7646 34.2479 38.6712 33.8891 38.4919C33.5303 38.3125 33.2186 38.0522 32.9788 37.7317C33.1221 38.0535 33.1965 38.4015 33.1974 38.7536C33.1913 39.4033 32.9389 40.0268 32.4907 40.4992C32.0426 40.9716 31.4317 41.2582 30.7804 41.3015C30.1291 41.3449 29.4853 41.1418 28.978 40.7329C28.4707 40.324 28.1372 39.7396 28.0442 39.0964C27.9511 39.7389 27.6173 40.3225 27.1098 40.7302C26.6024 41.1379 25.9587 41.3394 25.3082 41.2943C24.6576 41.2493 24.0483 40.961 23.6024 40.4872C23.1565 40.0135 22.9072 39.3895 22.9043 38.7404C22.9067 38.3772 22.9833 38.0183 23.1295 37.6855C22.9169 37.996 22.6384 38.2563 22.3138 38.4481C21.9892 38.6399 21.6262 38.7585 21.2506 38.7956C20.8749 38.8328 20.4957 38.7875 20.1395 38.663C19.7833 38.5385 19.4588 38.3379 19.189 38.0751C18.9191 37.8123 18.7104 37.4939 18.5775 37.1422C18.4445 36.7905 18.3907 36.4141 18.4197 36.0394C18.4487 35.6648 18.5598 35.301 18.7453 34.9737C18.9308 34.6464 19.1861 34.3636 19.4932 34.1451C19.1753 34.2726 18.8357 34.3375 18.493 34.3363C18.1432 34.3539 17.7935 34.3006 17.465 34.1795C17.1366 34.0584 16.8363 33.8721 16.5825 33.6319C16.3286 33.3917 16.1265 33.1027 15.9884 32.7823C15.8503 32.4619 15.7791 32.1169 15.7791 31.7683C15.7791 31.4197 15.8503 31.0747 15.9884 30.7543C16.1265 30.434 16.3286 30.1449 16.5825 29.9047C16.8363 29.6645 17.1366 29.4782 17.465 29.3571C17.7935 29.236 18.1432 29.1827 18.493 29.2004C17.8297 29.1669 17.2046 28.8811 16.7469 28.4019C16.2893 27.9228 16.0341 27.2869 16.0341 26.6258C16.0341 25.9647 16.2893 25.3288 16.7469 24.8497C17.2046 24.3705 17.8297 24.0847 18.493 24.0512C18.8365 24.0486 19.1768 24.1159 19.4932 24.249C19.064 23.9229 18.7483 23.4712 18.5904 22.9572C18.4324 22.4433 18.4403 21.893 18.6128 21.3837C18.7853 20.8745 19.1137 20.4318 19.552 20.1179C19.9903 19.8041 20.5164 19.6348 21.0563 19.6339C21.4672 19.6324 21.8725 19.7293 22.2379 19.9163C22.6033 20.1033 22.9182 20.3751 23.156 20.7086C23.0091 20.3737 22.9325 20.0125 22.9308 19.6471C22.9279 18.9918 23.1764 18.36 23.6257 17.881C24.075 17.4019 24.6911 17.1117 25.3481 17.0696C26.0051 17.0275 26.6535 17.2368 27.1608 17.6546C27.6681 18.0723 27.9959 18.6672 28.0774 19.3175C28.1304 18.9545 28.2609 18.6069 28.46 18.2982C28.6591 17.9896 28.9223 17.7269 29.2319 17.5278C29.5414 17.3287 29.8902 17.1979 30.2548 17.1441C30.6193 17.0903 30.9912 17.1148 31.3455 17.2158C31.6998 17.3169 32.0282 17.4923 32.3088 17.7302C32.5893 17.9681 32.8155 18.263 32.9721 18.5951C33.1287 18.9272 33.2121 19.2888 33.2167 19.6556C33.2212 20.0224 33.1469 20.3859 32.9987 20.7218C33.2923 20.3101 33.7015 19.9938 34.1749 19.8126C34.6484 19.6314 35.1651 19.5933 35.6602 19.7031C36.1553 19.8129 36.6068 20.0658 36.9581 20.43C37.3095 20.7941 37.545 21.2534 37.6352 21.7503H41.7948C40.4471 19.2919 38.4574 17.2414 36.036 15.8152C33.6146 14.389 30.8512 13.6401 28.0376 13.6475Z" fill="white"/>
<path d="M43.8358 37.7316C41.9027 41.2719 38.8254 44.0589 35.1023 45.6409C31.3793 47.2229 27.2287 47.5072 23.323 46.4479C19.4173 45.3886 15.9853 43.0477 13.5831 39.8044C11.181 36.5611 9.94936 32.6055 10.0878 28.5785C10.2263 24.5515 11.7268 20.689 14.3461 17.6168C16.9654 14.5445 20.5501 12.4427 24.5195 11.6517C28.4888 10.8606 32.6102 11.4268 36.2158 13.2585C39.8215 15.0902 42.7002 18.0801 44.3855 21.7436H48.4789C48.4502 18.9795 48.0264 16.2335 47.2204 13.5881C47.1741 13.4299 46.9158 12.7442 46.8561 12.6255L45.1605 8.13573C45.4448 7.80726 45.6077 7.39183 45.622 6.95848C45.6362 6.52513 45.5011 6.09997 45.239 5.75367C44.9768 5.40737 44.6035 5.1608 44.1811 5.05494C43.7587 4.94909 43.3126 4.99032 42.917 5.17178C42.5214 5.35325 42.2001 5.66402 42.0065 6.05244C41.8129 6.44085 41.7587 6.88351 41.8529 7.30684C41.9471 7.73017 42.184 8.10865 42.5243 8.37939C42.8645 8.65012 43.2876 8.79679 43.7232 8.79502H43.9219L45.7368 13.6145L42.5972 16.3242C40.8485 11.0498 39.8418 9.02578 35.5298 5.59743L32.5889 2.75586C32.719 2.48863 32.7869 2.19569 32.7876 1.89877C32.7876 1.52294 32.6756 1.15558 32.4657 0.843181C32.2558 0.530787 31.9575 0.287421 31.6085 0.143903C31.2596 0.000384916 30.8757 -0.03683 30.5054 0.0369707C30.1352 0.110771 29.7953 0.292268 29.5288 0.558477C29.2623 0.824686 29.0812 1.16363 29.0083 1.53239C28.9354 1.90115 28.9742 2.28314 29.1196 2.62998C29.265 2.97682 29.5105 3.27291 29.8251 3.48075C30.1396 3.6886 30.5091 3.79885 30.8867 3.79755C31.1125 3.7944 31.3363 3.75431 31.549 3.67887L35.0926 7.10063L34.4899 10.8982C31.3371 8.61042 28.1577 6.2831 24.3359 5.22163L18.9245 4.7799C18.8286 4.34983 18.585 3.96652 18.2356 3.69608C17.8862 3.42564 17.453 3.28502 17.0107 3.29845C16.5683 3.31188 16.1445 3.47853 15.8123 3.76966C15.4802 4.0608 15.2605 4.45817 15.1911 4.89326C15.1218 5.32835 15.2071 5.77389 15.4324 6.15306C15.6577 6.53223 16.0089 6.82126 16.4254 6.97033C16.8419 7.11939 17.2975 7.11913 17.7138 6.96961C18.1301 6.82008 18.481 6.53066 18.7059 6.15124L24.2631 6.60615V10.1796C20.0438 9.23676 17.4077 10.3378 13.4335 11.3004L8.75062 12.342C8.59257 12.0335 8.35165 11.7746 8.05464 11.5942C7.75763 11.4138 7.41617 11.3189 7.06822 11.3201C6.71174 11.3176 6.36168 11.4145 6.05774 11.6C5.75379 11.7854 5.50813 12.0519 5.34861 12.3692C5.1891 12.6865 5.1221 13.042 5.15523 13.3953C5.18836 13.7486 5.32029 14.0856 5.53606 14.3681C5.75183 14.6506 6.04279 14.8672 6.37596 14.9934C6.70913 15.1197 7.07117 15.1504 7.42102 15.0823C7.77087 15.0141 8.09453 14.8497 8.35529 14.6078C8.61606 14.3658 8.80349 14.056 8.89633 13.7134L14.1952 12.5992L15.3345 14.5441C12.5658 15.5133 7.71734 18.8691 6.31976 21.3612L2.5973 24.7368C2.38529 24.6578 2.16128 24.6155 1.93494 24.6116C1.55765 24.6116 1.18884 24.7229 0.875136 24.9316C0.561434 25.1402 0.316933 25.4368 0.172551 25.7837C0.02817 26.1307 -0.00960636 26.5125 0.0639986 26.8808C0.137604 27.2491 0.319284 27.5875 0.586066 27.853C0.852848 28.1185 1.19275 28.2994 1.56279 28.3727C1.93282 28.4459 2.31638 28.4083 2.66494 28.2646C3.01351 28.1209 3.31144 27.8775 3.52105 27.5653C3.73066 27.253 3.84253 26.8859 3.84253 26.5104C3.83292 26.2069 3.74878 25.9103 3.59746 25.6467L8.23398 21.447L10.1217 21.559C8.93976 22.7512 8.06488 24.2101 7.57162 25.8115L7.39278 26.4115C7.22793 27.0209 7.09965 27.6395 7.00861 28.2641L4.67711 39.4722C4.23537 39.506 3.81939 39.6924 3.50102 39.999C3.18265 40.3057 2.9819 40.7134 2.93343 41.1518C2.88497 41.5901 2.99184 42.0316 3.23559 42.3998C3.47934 42.768 3.84466 43.04 4.26842 43.1686C4.69219 43.2973 5.14779 43.2746 5.55652 43.1044C5.96524 42.9342 6.30142 42.6273 6.50698 42.2367C6.71253 41.846 6.77455 41.3962 6.68232 40.9648C6.59008 40.5335 6.34939 40.1478 6.00182 39.8743L7.9889 30.4068L8.59165 30.242C8.46974 31.9041 8.48524 33.5733 8.63801 35.2329L9.04868 49.9484C8.64766 50.1349 8.3246 50.4549 8.13523 50.8531C7.94585 51.2514 7.90203 51.7029 8.01131 52.1298C8.1206 52.5568 8.37615 52.9324 8.73388 53.1919C9.09161 53.4514 9.52909 53.5785 9.97089 53.5512C10.4127 53.524 10.8311 53.3442 11.1539 53.0428C11.4768 52.7414 11.6838 52.3372 11.7394 51.9001C11.7949 51.463 11.6955 51.0203 11.4582 50.6484C11.2209 50.2764 10.8607 49.9986 10.4396 49.8627L10.1614 39.8018C10.2542 39.7425 11.102 39.1887 11.2676 39.0634C12.4996 41.7006 12.4731 42.65 13.8773 44.1927L14.6721 59.1192C14.2765 59.321 13.9641 59.6539 13.7888 60.0605C13.6135 60.4671 13.5864 60.9219 13.7122 61.3463C13.8379 61.7707 14.1086 62.138 14.4775 62.3849C14.8464 62.6318 15.2903 62.7427 15.7326 62.6984C16.1748 62.6542 16.5877 62.4576 16.8999 62.1426C17.2121 61.8276 17.4039 61.414 17.4423 60.9732C17.4807 60.5324 17.3633 60.0921 17.1102 59.7283C16.8572 59.3645 16.4845 59.1001 16.0564 58.9808L15.3543 45.5311V43.896C19.0106 48.0496 19.3285 48.9792 23.5345 51.4714L23.6868 64.3607C23.2843 64.5488 22.9605 64.8711 22.7713 65.2717C22.5822 65.6722 22.5396 66.126 22.6509 66.5546C22.7622 66.9831 23.0204 67.3595 23.3809 67.6186C23.7414 67.8778 24.1815 68.0034 24.6252 67.9739C25.0689 67.9443 25.4883 67.7613 25.8109 67.4566C26.1334 67.1519 26.3389 66.7446 26.3918 66.3051C26.4447 65.8657 26.3417 65.4216 26.1005 65.0497C25.8594 64.6778 25.4953 64.4014 25.0711 64.2684L24.9254 51.9131L24.9784 48.3068C28.2112 49.786 31.5692 50.9774 35.0132 51.867L37.7222 64.3343C37.5379 64.5097 37.3913 64.7205 37.2911 64.954C37.1909 65.1874 37.1393 65.4386 37.1393 65.6924C37.138 66.068 37.2486 66.4355 37.4571 66.7484C37.6657 67.0614 37.9627 67.3058 38.3108 67.4507C38.6589 67.5956 39.0423 67.6346 39.4126 67.5626C39.7829 67.4906 40.1234 67.3109 40.3911 67.0463C40.6588 66.7817 40.8417 66.444 40.9166 66.0759C40.9914 65.7079 40.955 65.3259 40.8118 64.9785C40.6687 64.631 40.4252 64.3336 40.1122 64.1239C39.7993 63.9142 39.4308 63.8016 39.0536 63.8003L35.7418 48.6826L35.6557 46.9816C37.8282 47.4628 42.2395 46.586 44.8227 45.3531L54.6654 54.8404C54.576 55.0628 54.5289 55.2997 54.5263 55.5393C54.5249 55.9511 54.6581 56.3523 54.9059 56.6822C55.1536 57.0121 55.5024 57.2529 55.8996 57.3682C56.2968 57.4836 56.7209 57.4672 57.108 57.3217C57.4951 57.1761 57.8242 56.9092 58.0455 56.5612C58.2669 56.2133 58.3686 55.8031 58.3352 55.3925C58.3019 54.982 58.1354 54.5934 57.8608 54.2853C57.5862 53.9772 57.2184 53.7663 56.8128 53.6845C56.4073 53.6027 55.986 53.6543 55.6125 53.8317L46.1011 44.6477L44.0212 42.6698L42.9681 41.661C44.5843 40.3424 46.1011 39.1095 47.5119 37.7646L43.8358 37.7316Z" fill="white"/>
<path d="M32.078 29.576L35.8004 30.6968C35.6002 31.6505 35.1959 32.55 34.6148 33.334C34.0962 34.0189 33.4129 34.563 32.6277 34.9163C31.6615 35.2983 30.6266 35.4778 29.5875 35.4438C28.3335 35.4836 27.0852 35.2589 25.9247 34.7845C24.896 34.2747 24.0413 33.4744 23.4673 32.4835C22.7374 31.2139 22.3816 29.7652 22.4406 28.3036C22.4406 26.0356 23.0434 24.3016 24.2555 23.0819C25.4676 21.8622 27.1765 21.2557 29.3888 21.2557C30.8271 21.1771 32.2546 21.5433 33.4756 22.304C34.5389 23.1099 35.3125 24.236 35.6812 25.5148L31.9124 26.3455C31.8212 26.0205 31.6805 25.7115 31.4951 25.429C31.2685 25.1165 30.9713 24.8613 30.6274 24.684C30.2662 24.511 29.8691 24.4252 29.4683 24.4335C29.0302 24.4156 28.5952 24.5128 28.2068 24.7153C27.8185 24.9178 27.4905 25.2186 27.256 25.5873C26.8113 26.4137 26.6115 27.3488 26.6797 28.2838C26.6797 29.8002 26.9049 30.8353 27.3421 31.4023C27.5835 31.6883 27.8892 31.9137 28.2344 32.0604C28.5796 32.207 28.9547 32.2706 29.3292 32.2462C29.6656 32.2735 30.004 32.2288 30.3216 32.115C30.6392 32.0013 30.9287 31.8212 31.1705 31.5869C31.6453 31.0076 31.9583 30.3141 32.078 29.576Z" fill="white"/>
<path d="M48.637 31.1651H41.0067C41.0333 31.6588 41.2062 32.1336 41.5034 32.5298C41.6781 32.7415 41.8989 32.9108 42.1491 33.0251C42.3992 33.1393 42.6722 33.1954 42.9474 33.1891C43.3179 33.1801 43.6802 33.0781 44.0005 32.8924C44.2597 32.7146 44.4842 32.4911 44.6629 32.2331L48.4251 32.576C47.9489 33.4713 47.2278 34.2141 46.3453 34.7187C45.247 35.214 44.0455 35.4401 42.8414 35.378C41.7753 35.4255 40.7119 35.2363 39.7283 34.8242C38.9456 34.4247 38.2932 33.8119 37.8472 33.0572C37.3371 32.1981 37.08 31.2134 37.1054 30.2157C37.0764 29.5188 37.1947 28.8237 37.4525 28.1753C37.7104 27.5268 38.1021 26.9394 38.6023 26.4511C39.1611 25.9528 39.8134 25.5694 40.5215 25.3227C41.2296 25.0761 41.9798 24.9711 42.7288 25.0138C43.8914 24.9641 45.0492 25.1901 46.1068 25.6731C46.9168 26.0829 47.5771 26.7356 47.9945 27.5389C48.4689 28.5321 48.6961 29.6243 48.6569 30.7233L48.637 31.1651ZM44.749 29.3454C44.7382 28.7656 44.5278 28.207 44.1529 27.7631C43.9853 27.6028 43.7867 27.478 43.5693 27.3964C43.3518 27.3148 43.1199 27.2781 42.8878 27.2884C42.6045 27.2812 42.3237 27.3428 42.0697 27.4681C41.8158 27.5933 41.5964 27.7783 41.4306 28.007C41.1691 28.3998 41.0182 28.8551 40.9934 29.3256L44.749 29.3454Z" fill="white"/>
<path d="M50.4321 38.9382V25.2643H54.0089V26.728C54.3652 26.2312 54.8151 25.808 55.3336 25.4819C55.9225 25.1723 56.5821 25.02 57.2478 25.0402C57.8505 25.0143 58.45 25.1404 58.9907 25.4066C59.5315 25.6728 59.9959 26.0706 60.341 26.5631C61.097 27.6685 61.4798 28.9847 61.4339 30.3211C61.5308 31.6852 61.1048 33.0351 60.2417 34.0989C59.8662 34.5241 59.402 34.8624 58.8814 35.0901C58.3608 35.3179 57.7965 35.4296 57.2279 35.4175C56.6764 35.4252 56.129 35.3221 55.6184 35.1142C55.1202 34.9142 54.6691 34.6134 54.2937 34.2308V38.9382H50.4321ZM54.2606 30.2354C54.2132 30.858 54.3892 31.4771 54.7573 31.9826C54.9104 32.1656 55.1032 32.3117 55.3212 32.4099C55.5391 32.5081 55.7766 32.5559 56.0158 32.5496C56.2308 32.5521 56.4434 32.5046 56.6367 32.4107C56.8299 32.3168 56.9983 32.1792 57.1286 32.0089C57.4822 31.4563 57.6407 30.8021 57.579 30.1497C57.6299 29.5266 57.4638 28.905 57.1087 28.3894C56.9761 28.2134 56.8041 28.0705 56.6063 27.9721C56.4086 27.8736 56.1905 27.8224 55.9695 27.8224C55.7358 27.819 55.5045 27.869 55.2932 27.9684C55.0819 28.0678 54.8964 28.2141 54.7507 28.396C54.3758 28.938 54.2025 29.5931 54.2606 30.2486V30.2354Z" fill="white"/>
<path d="M70.74 29.9057C71.4083 29.9423 72.044 30.2051 72.5416 30.6507C72.7667 30.8715 72.9421 31.1372 73.0563 31.4305C73.1705 31.7237 73.2208 32.0377 73.204 32.3517C73.2325 32.7551 73.1617 33.1592 72.9978 33.5292C72.8339 33.8991 72.5819 34.2236 72.2634 34.4747C71.6408 34.9428 70.5148 35.1801 68.8986 35.1801H63.209V25.2907H69.3491C70.2473 25.2411 71.1387 25.4716 71.8991 25.95C72.1815 26.1515 72.4091 26.4196 72.5617 26.7303C72.7143 27.041 72.7871 27.3845 72.7735 27.7301C72.7765 28.2526 72.5717 28.7551 72.2038 29.1278C71.7999 29.5333 71.2831 29.8088 70.7201 29.9189L70.74 29.9057ZM67.044 29.0487H68.0111C68.6734 29.0487 68.9649 28.752 68.9649 28.1718C68.9649 27.7037 68.6271 27.4663 67.9515 27.4663H67.044V29.0487ZM67.044 32.8462H68.3025C68.5715 32.8587 68.837 32.7822 69.0576 32.6286C69.1607 32.5545 69.242 32.4543 69.2933 32.3384C69.3445 32.2225 69.3637 32.0951 69.3491 31.9693C69.3491 31.376 68.998 31.0727 68.3025 31.0727H67.044V32.8462Z" fill="white"/>
<path d="M74.5749 30.2485C74.5532 29.553 74.6787 28.8607 74.9435 28.2166C75.2082 27.5726 75.6062 26.9912 76.1116 26.5103C76.6732 26.0043 77.3299 25.6138 78.0438 25.3615C78.7577 25.1092 79.5147 24.9999 80.2712 25.0401C82.2671 25.0401 83.7729 25.6159 84.7885 26.7675C85.6293 27.7923 86.0633 29.0884 86.0084 30.4104C85.9534 31.7324 85.4134 32.9884 84.4904 33.9406C83.9198 34.4489 83.2539 34.8399 82.5309 35.0911C81.808 35.3423 81.0423 35.4487 80.2778 35.4043C78.8811 35.4654 77.5073 35.0361 76.3964 34.1912C75.8078 33.7184 75.337 33.1165 75.021 32.4325C74.705 31.7485 74.5524 31.0011 74.5749 30.2485ZM78.4034 30.2485C78.3429 30.9501 78.5329 31.6505 78.9399 32.2264C79.1003 32.4326 79.3062 32.5992 79.5416 32.7136C79.7771 32.8279 80.0357 32.8868 80.2977 32.8857C80.5512 32.8884 80.8019 32.8341 81.0313 32.7268C81.2607 32.6195 81.4628 32.462 81.6224 32.266C82.02 31.6859 82.2069 30.9882 82.1523 30.2881C82.2034 29.6069 82.0162 28.9291 81.6224 28.3695C81.4678 28.1652 81.2677 27.9993 81.0379 27.885C80.808 27.7706 80.5547 27.7108 80.2977 27.7103C80.0327 27.7082 79.7708 27.7665 79.532 27.8808C79.2932 27.9951 79.0838 28.1623 78.92 28.3695C78.5421 28.9186 78.3602 29.5779 78.4034 30.242V30.2485Z" fill="white"/>
<path d="M98.3604 35.1801H94.5452V28.0399H91.6374V35.1801H87.8223V25.2906H98.3604V35.1801Z" fill="white"/>
<path d="M100.685 38.9382V25.2643H104.275V26.728C104.632 26.2312 105.082 25.808 105.6 25.4819C106.169 25.1832 106.805 25.0313 107.448 25.0402C108.051 25.0143 108.65 25.1404 109.191 25.4066C109.732 25.6728 110.196 26.0706 110.541 26.5631C111.297 27.6685 111.68 28.9847 111.634 30.3211C111.731 31.6852 111.305 33.0351 110.442 34.0989C110.066 34.5241 109.602 34.8624 109.082 35.0901C108.561 35.3179 107.997 35.4296 107.428 35.4175C106.877 35.4258 106.329 35.3226 105.819 35.1142C105.32 34.9142 104.869 34.6134 104.494 34.2308V38.9382H100.685ZM104.514 30.2354C104.466 30.858 104.642 31.4771 105.011 31.9826C105.164 32.1656 105.356 32.3117 105.574 32.4099C105.792 32.5081 106.03 32.5559 106.269 32.5496C106.484 32.5521 106.697 32.5046 106.89 32.4107C107.083 32.3168 107.252 32.1792 107.382 32.0089C107.735 31.4563 107.894 30.8021 107.832 30.1497C107.885 29.5244 107.719 28.9003 107.362 28.3828C107.229 28.2068 107.057 28.0639 106.859 27.9655C106.662 27.8671 106.444 27.8158 106.223 27.8158C105.988 27.8129 105.756 27.863 105.544 27.9624C105.331 28.0617 105.145 28.2077 104.997 28.3894C104.623 28.934 104.452 29.5917 104.514 30.2486V30.2354Z" fill="white"/>
<path d="M124.603 35.1801H120.993V30.3013L117.244 35.1801H113.608V25.2906H117.224V30.2354L121.006 25.2906H124.603V35.1801Z" fill="white"/>
<path d="M134.552 29.9058C135.222 29.9424 135.86 30.2052 136.36 30.6508C136.584 30.8723 136.759 31.1382 136.873 31.4312C136.987 31.7243 137.038 32.0379 137.022 32.3518C137.048 32.7561 136.975 33.1606 136.809 33.5305C136.642 33.9003 136.388 34.2244 136.068 34.4748C135.439 34.9429 134.32 35.1802 132.697 35.1802H127.014V25.2907H133.161C134.057 25.2404 134.946 25.4709 135.704 25.95C135.987 26.1513 136.216 26.4192 136.37 26.7298C136.523 27.0404 136.597 27.3841 136.585 27.7301C136.582 28.2181 136.398 28.6877 136.068 29.0487C135.666 29.4569 135.149 29.733 134.585 29.8399L134.552 29.9058ZM130.862 29.0487H131.823C132.485 29.0487 132.783 28.7521 132.783 28.1719C132.783 27.7038 132.445 27.4664 131.77 27.4664H130.862V29.0487ZM130.862 32.8463H132.094C132.365 32.8588 132.633 32.7823 132.856 32.6287C132.958 32.5536 133.039 32.4533 133.09 32.3376C133.141 32.222 133.161 32.0951 133.147 31.9694C133.147 31.3761 132.796 31.0728 132.094 31.0728H130.842L130.862 32.8463Z" fill="white"/>
<path d="M138.393 30.2486C138.372 29.553 138.497 28.8607 138.762 28.2167C139.027 27.5726 139.425 26.9912 139.93 26.5104C140.491 26.0048 141.146 25.6147 141.859 25.3623C142.572 25.11 143.328 25.0005 144.083 25.0401C146.079 25.0401 147.587 25.6159 148.607 26.7675C149.448 27.7923 149.882 29.0885 149.827 30.4104C149.772 31.7324 149.232 32.9885 148.309 33.9407C147.737 34.4492 147.07 34.8402 146.346 35.0914C145.622 35.3426 144.855 35.4489 144.09 35.4043C142.693 35.4655 141.319 35.0361 140.208 34.1912C139.62 33.7181 139.151 33.116 138.836 32.432C138.521 31.7479 138.369 31.0006 138.393 30.2486ZM142.215 30.2486C142.153 30.9513 142.346 31.6529 142.758 32.2265C142.925 32.4223 143.132 32.5797 143.366 32.6876C143.6 32.7955 143.855 32.8514 144.113 32.8514C144.371 32.8514 144.625 32.7955 144.859 32.6876C145.093 32.5797 145.301 32.4223 145.467 32.2265C145.862 31.6451 146.049 30.9484 145.997 30.2486C146.05 29.5663 145.86 28.8872 145.461 28.33C145.307 28.125 145.107 27.9585 144.877 27.8441C144.647 27.7296 144.393 27.6702 144.136 27.6707C143.87 27.6686 143.607 27.7269 143.367 27.8412C143.127 27.9554 142.917 28.1226 142.752 28.33C142.36 28.8885 142.171 29.5626 142.215 30.242V30.2486Z" fill="white"/>
<path d="M163 38.0085H160.351V35.1801H153.29V38.0085H150.64V32.4045H151.607C152.372 30.8876 152.734 29.2014 152.661 27.5059V25.2643H161.934V32.4045H162.98L163 38.0085ZM158.125 32.4045V28.0399H156.297V28.152C156.281 29.6147 155.974 31.0597 155.396 32.4045H158.125Z" fill="white"/>
<path d="M78.0657 15.9749H79.6752V17.7879H81.4371V15.9749H83.0797V21.1372H81.4636V19.067H79.7017V21.1372H78.0922L78.0657 15.9749Z" fill="white"/>
<path d="M87.7162 16.3704C89.3014 16.5375 90.0919 17.2451 90.0874 18.4934C90.083 19.7416 89.2926 20.4515 87.7162 20.6229V21.1372H86.2458V20.6097C84.6693 20.4779 83.8745 19.7724 83.8745 18.4934C83.8745 17.2143 84.6693 16.5155 86.2458 16.3704V15.9749H87.7162V16.3704ZM86.2458 19.5548V17.4055C86.0123 17.472 85.8089 17.6163 85.6695 17.8143C85.5292 18.0059 85.4527 18.2365 85.4509 18.4736C85.4443 18.712 85.5216 18.9452 85.6695 19.1329C85.8056 19.3284 86.0003 19.4761 86.2259 19.5548H86.2458ZM87.7162 19.5548C87.9521 19.4935 88.1601 19.354 88.3057 19.1593C88.4466 18.9683 88.521 18.7368 88.5177 18.5C88.5227 18.2523 88.4474 18.0095 88.3031 17.8077C88.1588 17.6058 87.953 17.4556 87.7162 17.3792V19.5548Z" fill="white"/>
<path d="M95.8501 21.1372H94.2406V17.2473H92.4721V21.1372H90.8625V15.9749H95.8501V21.1372Z" fill="white"/>
<path d="M99.1618 17.1813C99.3825 16.7459 99.7301 16.3871 100.159 16.1518C100.588 15.9165 101.079 15.8157 101.566 15.8627C101.927 15.8419 102.289 15.893 102.63 16.0129C102.972 16.1329 103.285 16.3194 103.553 16.5615C103.8 16.8259 103.99 17.1378 104.11 17.478C104.231 17.8182 104.281 18.1795 104.255 18.5394C104.284 18.9026 104.241 19.2679 104.127 19.6142C104.013 19.9605 103.832 20.2809 103.593 20.5569C103.328 20.8037 103.015 20.9936 102.673 21.115C102.331 21.2363 101.968 21.2865 101.606 21.2623C100.994 21.2995 100.387 21.1425 99.8706 20.814C99.4728 20.5266 99.1743 20.1235 99.0161 19.6602L100.533 19.2581C100.594 19.5014 100.741 19.7149 100.947 19.8596C101.153 20.0044 101.404 20.0708 101.655 20.0468C101.906 20.0229 102.14 19.9102 102.314 19.7292C102.489 19.5481 102.592 19.3108 102.606 19.0603H101.036V18.0911H102.613C102.612 17.9541 102.583 17.8186 102.528 17.6929C102.473 17.5673 102.393 17.4541 102.293 17.3603C102.192 17.2666 102.074 17.1941 101.944 17.1475C101.815 17.1008 101.677 17.0809 101.54 17.089C101.329 17.0744 101.12 17.1317 100.946 17.2516C100.773 17.3715 100.646 17.5467 100.586 17.7483L99.1618 17.1813Z" fill="white"/>
<path d="M109.402 21.1371H107.951V18.4538H106.852V20.0361C106.877 20.3685 106.786 20.6993 106.593 20.9723C106.493 21.0774 106.37 21.1591 106.233 21.2115C106.097 21.2639 105.951 21.2858 105.805 21.2756C105.44 21.2787 105.076 21.2411 104.719 21.1635V20.0955C104.845 20.1398 104.976 20.1664 105.11 20.1746C105.302 20.1746 105.401 20.0295 105.401 19.746V17.4055H109.375L109.402 21.1371Z" fill="white"/>
<path d="M114.469 19.6405H111.561C111.571 19.8284 111.635 20.0094 111.747 20.1614C111.814 20.2401 111.899 20.3028 111.994 20.345C112.089 20.3872 112.192 20.4078 112.296 20.4053C112.439 20.404 112.578 20.3654 112.7 20.2933C112.8 20.2354 112.886 20.1567 112.952 20.0625L114.376 20.1878C114.199 20.531 113.925 20.8151 113.588 21.0053C113.172 21.1911 112.718 21.2748 112.263 21.2492C111.859 21.2669 111.457 21.1948 111.084 21.0383C110.786 20.8933 110.537 20.6639 110.369 20.379C110.176 20.0515 110.077 19.6773 110.084 19.2977C110.074 19.0339 110.119 18.7709 110.218 18.5257C110.316 18.2804 110.464 18.0583 110.654 17.8736C110.865 17.6827 111.113 17.5359 111.383 17.442C111.653 17.348 111.938 17.3087 112.224 17.3264C112.663 17.3052 113.101 17.3888 113.502 17.5703C113.804 17.7263 114.051 17.97 114.211 18.2692C114.387 18.6465 114.471 19.0599 114.456 19.4757L114.469 19.6405ZM112.999 18.9812C112.992 18.7629 112.91 18.5535 112.767 18.3879C112.705 18.3252 112.63 18.2764 112.548 18.2446C112.466 18.2127 112.378 18.1987 112.29 18.2033C112.181 18.2006 112.074 18.2244 111.977 18.2727C111.88 18.321 111.796 18.3922 111.733 18.4802C111.635 18.6298 111.578 18.8026 111.568 18.9812H112.999Z" fill="white"/>
<path d="M119.337 21.1371H117.708L117.152 20.1021C117.097 19.9743 117.008 19.8646 116.893 19.7856C116.795 19.7431 116.689 19.7228 116.582 19.7263V21.1371H115.131V17.3792H116.582V18.7637C116.682 18.7588 116.777 18.7164 116.847 18.645C116.943 18.5085 117.025 18.3627 117.092 18.2099C117.17 18.0345 117.267 17.8685 117.383 17.7154C117.471 17.6135 117.583 17.5343 117.708 17.4846C117.867 17.4263 118.035 17.3929 118.205 17.3857C118.41 17.3857 118.701 17.3857 119.099 17.3857V18.4077H119.033C118.885 18.3948 118.737 18.3948 118.589 18.4077C118.501 18.4169 118.416 18.4487 118.344 18.5C118.256 18.5884 118.185 18.691 118.132 18.8032C118.077 18.919 118.008 19.0275 117.926 19.1263C117.863 19.1898 117.783 19.2334 117.695 19.2516C117.857 19.2592 118.015 19.302 118.158 19.3768C118.362 19.5655 118.53 19.7888 118.655 20.0361L119.337 21.1371Z" fill="white"/>
<path d="M122.993 18.4538H121.947V21.1371H120.496V18.4538H119.443V17.4055H122.993V18.4538Z" fill="white"/>
<path d="M123.517 22.5942V17.4055H124.842V17.9593C124.981 17.7694 125.157 17.6082 125.358 17.4846C125.575 17.3723 125.816 17.3156 126.06 17.3198C126.288 17.3102 126.515 17.3577 126.72 17.4579C126.925 17.5581 127.101 17.7078 127.233 17.8934C127.516 18.3161 127.659 18.8163 127.643 19.3241C127.678 19.8402 127.517 20.3506 127.193 20.7548C127.051 20.915 126.875 21.0423 126.678 21.1277C126.482 21.2131 126.268 21.2546 126.054 21.2492C125.854 21.2482 125.656 21.2102 125.471 21.1372C125.285 21.0578 125.116 20.9437 124.974 20.8009V22.5942H123.517ZM124.974 19.2977C124.954 19.5325 125.02 19.7665 125.159 19.957C125.217 20.0267 125.29 20.0825 125.373 20.1201C125.456 20.1578 125.546 20.1764 125.636 20.1746C125.719 20.1746 125.8 20.1555 125.873 20.1189C125.947 20.0823 126.011 20.0291 126.06 19.9636C126.193 19.7558 126.254 19.5102 126.233 19.2647C126.249 19.0313 126.186 18.7992 126.054 18.6055C126.003 18.5377 125.937 18.4827 125.861 18.445C125.785 18.4072 125.701 18.3876 125.617 18.3879C125.528 18.3871 125.44 18.4062 125.36 18.4439C125.279 18.4816 125.209 18.5368 125.153 18.6055C125.019 18.8106 124.956 19.0537 124.974 19.2977Z" fill="white"/>
<path d="M128.193 19.2976C128.185 19.0329 128.232 18.7693 128.333 18.524C128.433 18.2787 128.584 18.0571 128.776 17.8735C129.207 17.4889 129.774 17.2898 130.352 17.3197C130.669 17.2976 130.987 17.3452 131.284 17.4592C131.58 17.5731 131.848 17.7506 132.068 17.979C132.386 18.3684 132.55 18.8602 132.53 19.3617C132.509 19.8632 132.305 20.3399 131.955 20.7019C131.518 21.0896 130.944 21.2887 130.359 21.2557C129.827 21.2816 129.304 21.118 128.882 20.7942C128.659 20.6148 128.48 20.3863 128.361 20.1266C128.241 19.8669 128.184 19.5831 128.193 19.2976ZM129.644 19.2976C129.625 19.562 129.698 19.8247 129.849 20.0426C129.912 20.1179 129.991 20.1783 130.08 20.2193C130.17 20.2604 130.267 20.2811 130.366 20.28C130.463 20.2801 130.559 20.2589 130.647 20.2179C130.735 20.1769 130.813 20.1171 130.876 20.0426C131.033 19.8223 131.105 19.5534 131.081 19.2844C131.102 19.024 131.029 18.7646 130.876 18.5526C130.814 18.479 130.737 18.4197 130.65 18.3787C130.563 18.3377 130.468 18.3161 130.372 18.3153C130.272 18.3139 130.173 18.3352 130.083 18.3774C129.992 18.4197 129.912 18.4818 129.849 18.5592C129.7 18.7733 129.628 19.0311 129.644 19.291V19.2976Z" fill="white"/>
<path d="M137.214 21.1371H135.77V18.4538H134.664V21.1371H133.214V17.3792H137.188L137.214 21.1371Z" fill="white"/>
<path d="M138.095 22.5942V17.4055H139.453V17.9593C139.593 17.7694 139.768 17.6082 139.97 17.4846C140.186 17.3723 140.428 17.3156 140.672 17.3198C140.9 17.3102 141.127 17.3577 141.331 17.4579C141.536 17.5581 141.713 17.7078 141.844 17.8934C142.127 18.3161 142.271 18.8163 142.255 19.3241C142.293 19.8406 142.132 20.3522 141.804 20.7548C141.662 20.915 141.487 21.0423 141.29 21.1277C141.093 21.2131 140.88 21.2546 140.665 21.2492C140.452 21.2532 140.241 21.2152 140.043 21.1372C139.857 21.0578 139.688 20.9437 139.546 20.8009V22.5942H138.095ZM139.552 19.2977C139.533 19.5325 139.599 19.7665 139.738 19.957C139.796 20.0267 139.869 20.0825 139.951 20.1201C140.034 20.1578 140.124 20.1764 140.215 20.1746C140.297 20.1746 140.378 20.1555 140.452 20.1189C140.525 20.0823 140.589 20.0291 140.639 19.9636C140.772 19.7558 140.832 19.5102 140.811 19.2647C140.827 19.0313 140.764 18.7992 140.632 18.6055C140.581 18.5377 140.515 18.4827 140.439 18.445C140.364 18.4072 140.28 18.3876 140.195 18.3879C140.107 18.3861 140.02 18.4048 139.94 18.4426C139.861 18.4804 139.792 18.5362 139.738 18.6055C139.598 18.8083 139.533 19.0526 139.552 19.2977Z" fill="white"/>
<path d="M147.17 21.1371H145.799V19.3109L144.381 21.1371H143.003V17.3792H144.368V19.2516L145.805 17.3792H147.17V21.1371Z" fill="white"/>
<path d="M150.945 19.1592C151.192 19.1748 151.426 19.2749 151.608 19.4427C151.696 19.5271 151.765 19.6299 151.81 19.7438C151.855 19.8577 151.874 19.9799 151.866 20.1019C151.877 20.2559 151.85 20.4102 151.788 20.5515C151.726 20.6928 151.63 20.8168 151.508 20.9129C151.118 21.126 150.673 21.2179 150.23 21.1766H148.077V17.4186H150.409C150.746 17.3967 151.081 17.4796 151.369 17.656C151.475 17.7301 151.561 17.8289 151.62 17.9439C151.679 18.0588 151.709 18.1863 151.707 18.3153C151.707 18.4132 151.688 18.5101 151.65 18.6006C151.613 18.6911 151.558 18.7734 151.488 18.8427C151.337 18.9981 151.14 19.102 150.925 19.1394L150.945 19.1592ZM149.541 18.8295H149.912C150.15 18.8295 150.27 18.724 150.27 18.4999C150.27 18.2757 150.144 18.2295 149.885 18.2295H149.541V18.8295ZM149.541 20.2734H150.018C150.122 20.2793 150.225 20.249 150.309 20.1877C150.345 20.1608 150.373 20.1257 150.391 20.0854C150.41 20.0452 150.418 20.0011 150.415 19.9569C150.415 19.7261 150.283 19.6141 150.018 19.6141H149.541V20.2734Z" fill="white"/>
<path d="M152.402 19.2977C152.394 19.0329 152.441 18.7694 152.542 18.5241C152.642 18.2787 152.793 18.0571 152.985 17.8736C153.458 17.4935 154.052 17.2945 154.66 17.3127C155.267 17.3308 155.848 17.5649 156.297 17.9725C156.611 18.3391 156.777 18.8094 156.761 19.2911C156.77 19.5554 156.723 19.8186 156.624 20.0639C156.525 20.3092 156.375 20.5311 156.184 20.7152C155.75 21.0573 155.217 21.251 154.663 21.2677C154.11 21.2843 153.565 21.1229 153.111 20.8075C152.881 20.6298 152.697 20.4003 152.574 20.1377C152.45 19.8752 152.392 19.5873 152.402 19.2977ZM153.853 19.2977C153.831 19.5624 153.904 19.8262 154.058 20.0427C154.12 20.1185 154.199 20.1796 154.287 20.2216C154.376 20.2636 154.473 20.2854 154.572 20.2854C154.67 20.2854 154.767 20.2636 154.856 20.2216C154.945 20.1796 155.023 20.1185 155.085 20.0427C155.236 19.8201 155.307 19.5524 155.284 19.2845C155.303 19.0252 155.233 18.7669 155.085 18.5527C155.023 18.4791 154.946 18.4198 154.859 18.3788C154.773 18.3378 154.678 18.3161 154.582 18.3153C154.481 18.314 154.382 18.3353 154.292 18.3775C154.201 18.4198 154.121 18.4819 154.058 18.5593C153.906 18.772 153.834 19.0308 153.853 19.2911V19.2977Z" fill="white"/>
<path d="M161.735 22.2382H160.735V21.1371H158.085V22.2118H157.079V20.1152H157.443C157.731 19.5389 157.868 18.8992 157.84 18.256V17.4055H161.364V20.1152H161.762L161.735 22.2382ZM159.914 20.1152V18.4538H159.218V18.5C159.212 19.0558 159.095 19.6049 158.874 20.1152H159.914Z" fill="white"/>
</svg>
