<svg width="87" height="37" viewBox="0 0 87 37" fill="none" xmlns="http://www.w3.org/2000/svg">
<path d="M17.4553 11.5117L17.4501 11.517L17.4553 11.5117Z" fill="white"/>
<path d="M14.9649 7.42569C13.523 7.42649 12.1061 7.8069 10.8526 8.52973C9.59901 9.25256 8.55174 10.2931 7.81314 11.5496C7.07453 12.8061 6.66985 14.2355 6.63867 15.6982C6.60749 17.1609 6.95086 18.6068 7.63523 19.8945C8.3196 21.1823 9.32154 22.2678 10.5431 23.0449C11.7647 23.8221 13.1641 24.2643 14.6045 24.3284C16.0449 24.3924 17.4771 24.0762 18.761 23.4104C20.0449 22.7447 21.1366 21.7523 21.9294 20.5303H19.8082C19.6802 20.7047 19.5138 20.8464 19.3223 20.9439C19.1308 21.0415 18.9195 21.0923 18.7052 21.0923C18.4909 21.0923 18.2796 21.0415 18.0881 20.9439C17.8966 20.8464 17.7302 20.7047 17.6022 20.5303C17.6786 20.7054 17.7184 20.8948 17.7188 21.0863C17.7156 21.4399 17.5809 21.7791 17.3417 22.0362C17.1025 22.2932 16.7764 22.4492 16.4288 22.4727C16.0812 22.4963 15.7376 22.3858 15.4668 22.1633C15.196 21.9409 15.018 21.6228 14.9684 21.2729C14.9187 21.6225 14.7405 21.94 14.4697 22.1619C14.1988 22.3837 13.8553 22.4933 13.508 22.4688C13.1608 22.4443 12.8356 22.2874 12.5976 22.0297C12.3596 21.7719 12.2265 21.4324 12.225 21.0792C12.2263 20.8816 12.2672 20.6863 12.3452 20.5052C12.2317 20.6741 12.0831 20.8157 11.9098 20.9201C11.7365 21.0245 11.5428 21.089 11.3423 21.1092C11.1418 21.1294 10.9394 21.1048 10.7493 21.0371C10.5592 20.9693 10.386 20.8601 10.242 20.7172C10.0979 20.5742 9.9865 20.4009 9.91557 20.2096C9.84463 20.0182 9.81589 19.8134 9.83137 19.6095C9.84685 19.4057 9.90617 19.2077 10.0052 19.0297C10.1041 18.8516 10.2404 18.6977 10.4043 18.5788C10.2347 18.6482 10.0534 18.6835 9.8705 18.6828C9.6838 18.6924 9.49713 18.6634 9.32182 18.5975C9.14652 18.5316 8.98626 18.4303 8.85077 18.2996C8.71528 18.1689 8.60739 18.0116 8.53367 17.8373C8.45996 17.6629 8.42194 17.4752 8.42194 17.2855C8.42194 17.0958 8.45996 16.9081 8.53367 16.7338C8.60739 16.5595 8.71528 16.4022 8.85077 16.2715C8.98626 16.1408 9.14652 16.0395 9.32182 15.9736C9.49713 15.9077 9.6838 15.8787 9.8705 15.8883C9.51644 15.8701 9.1828 15.7146 8.93854 15.4538C8.69429 15.1931 8.55808 14.8471 8.55808 14.4874C8.55808 14.1277 8.69429 13.7817 8.93854 13.521C9.1828 13.2603 9.51644 13.1047 9.8705 13.0865C10.0538 13.0851 10.2355 13.1217 10.4043 13.1942C10.1753 13.0167 10.0067 12.7709 9.92245 12.4913C9.83816 12.2116 9.84235 11.9122 9.93442 11.6351C10.0265 11.358 10.2018 11.1171 10.4357 10.9464C10.6697 10.7756 10.9505 10.6835 11.2387 10.683C11.458 10.6822 11.6743 10.7349 11.8693 10.8367C12.0643 10.9384 12.2324 11.0863 12.3593 11.2677C12.2809 11.0855 12.24 10.889 12.2391 10.6902C12.2376 10.3336 12.3702 9.98986 12.61 9.7292C12.8498 9.46853 13.1787 9.31062 13.5294 9.28772C13.88 9.26482 14.2261 9.37867 14.4969 9.60599C14.7676 9.83332 14.9426 10.157 14.9861 10.5108C15.0144 10.3133 15.084 10.1242 15.1903 9.95623C15.2966 9.78827 15.4371 9.64534 15.6023 9.53702C15.7675 9.4287 15.9537 9.35752 16.1483 9.32824C16.3428 9.29896 16.5413 9.31228 16.7304 9.36728C16.9195 9.42229 17.0948 9.51772 17.2446 9.64716C17.3943 9.7766 17.515 9.93705 17.5986 10.1177C17.6822 10.2984 17.7267 10.4952 17.7291 10.6948C17.7316 10.8944 17.6919 11.0922 17.6128 11.2749C17.7695 11.0509 17.9879 10.8788 18.2406 10.7802C18.4933 10.6816 18.7691 10.6609 19.0333 10.7206C19.2976 10.7804 19.5386 10.918 19.7261 11.1161C19.9136 11.3143 20.0393 11.5642 20.0875 11.8346H22.3077C21.5883 10.4969 20.5264 9.38118 19.2339 8.60516C17.9415 7.82915 16.4666 7.42165 14.9649 7.42569Z" fill="white"/>
<path d="M23.3978 20.5304C22.3661 22.4568 20.7235 23.9732 18.7364 24.834C16.7492 25.6948 14.5339 25.8495 12.4492 25.2732C10.3646 24.6968 8.53281 23.423 7.25068 21.6583C5.96855 19.8936 5.31118 17.7413 5.38509 15.5501C5.459 13.3589 6.25985 11.2572 7.65789 9.58559C9.05594 7.91395 10.9693 6.77027 13.0879 6.33987C15.2065 5.90947 17.4062 6.21755 19.3307 7.2142C21.2552 8.21085 22.7917 9.83768 23.6912 11.8311H25.876C25.8607 10.3271 25.6345 8.83291 25.2043 7.39354C25.1796 7.30744 25.0417 6.93436 25.0099 6.86978L24.1049 4.42679C24.2566 4.24807 24.3435 4.02202 24.3512 3.78623C24.3588 3.55044 24.2866 3.3191 24.1467 3.13067C24.0068 2.94225 23.8076 2.80808 23.5821 2.75048C23.3567 2.69289 23.1186 2.71532 22.9074 2.81406C22.6963 2.9128 22.5248 3.08189 22.4214 3.29324C22.3181 3.50458 22.2892 3.74544 22.3395 3.97578C22.3897 4.20612 22.5162 4.41206 22.6978 4.55937C22.8794 4.70669 23.1052 4.78649 23.3377 4.78553H23.4438L24.4124 7.40789L22.7367 8.88229C21.8034 6.01241 21.266 4.91109 18.9645 3.04566L17.3949 1.49951C17.4643 1.35411 17.5005 1.19471 17.5009 1.03315C17.5009 0.828661 17.4411 0.628769 17.3291 0.45879C17.2171 0.288811 17.0578 0.156391 16.8716 0.0783003C16.6853 0.00020944 16.4804 -0.0200399 16.2828 0.0201164C16.0852 0.0602727 15.9038 0.159028 15.7616 0.303877C15.6193 0.448726 15.5226 0.633153 15.4837 0.833802C15.4449 1.03445 15.4655 1.2423 15.5431 1.43102C15.6207 1.61974 15.7518 1.78085 15.9197 1.89394C16.0876 2.00703 16.2848 2.06702 16.4863 2.06631C16.6068 2.0646 16.7263 2.04278 16.8398 2.00174L18.7312 3.86358L18.4095 5.9299C16.7267 4.68508 15.0298 3.41875 12.9899 2.84118L10.1016 2.60083C10.0504 2.36682 9.92037 2.15826 9.7339 2.0111C9.54743 1.86395 9.3162 1.78744 9.08009 1.79474C8.84398 1.80205 8.61778 1.89273 8.44049 2.05114C8.26321 2.20955 8.14595 2.42577 8.10893 2.66251C8.07192 2.89925 8.11747 3.14168 8.23773 3.34799C8.35799 3.5543 8.54542 3.71157 8.76771 3.79268C8.99 3.87379 9.23321 3.87365 9.45541 3.79229C9.67761 3.71093 9.86487 3.55345 9.9849 3.347L12.951 3.59453V5.53887C10.699 5.02588 9.29199 5.62497 7.17081 6.14873L4.67136 6.71553C4.58701 6.54764 4.45842 6.40678 4.29989 6.30862C4.14136 6.21046 3.95911 6.15883 3.7734 6.15949C3.58313 6.15811 3.39628 6.21085 3.23406 6.31175C3.07183 6.41264 2.94071 6.55764 2.85557 6.73031C2.77043 6.90298 2.73467 7.0964 2.75235 7.28864C2.77004 7.48088 2.84045 7.66424 2.95562 7.81794C3.07078 7.97163 3.22608 8.08951 3.40391 8.15819C3.58173 8.22688 3.77497 8.24363 3.9617 8.20654C4.14843 8.16945 4.32118 8.08 4.46036 7.94835C4.59954 7.8167 4.69958 7.64811 4.74914 7.4617L7.57737 6.85543L8.18544 7.9137C6.70769 8.44105 4.11985 10.267 3.37391 11.623L1.38707 13.4598C1.27392 13.4168 1.15435 13.3937 1.03355 13.3916C0.832171 13.3916 0.63532 13.4522 0.467884 13.5657C0.300447 13.6792 0.169947 13.8406 0.0928843 14.0294C0.0158219 14.2182 -0.00434098 14.4259 0.0349451 14.6263C0.0742312 14.8267 0.171202 15.0108 0.313595 15.1553C0.455987 15.2998 0.637407 15.3982 0.834911 15.4381C1.03242 15.4779 1.23713 15.4575 1.42318 15.3793C1.60923 15.3011 1.76824 15.1687 1.88012 14.9987C1.99199 14.8288 2.05171 14.6291 2.05171 14.4248C2.04658 14.2596 2.00167 14.0983 1.9209 13.9548L4.39561 11.6697L5.40317 11.7307C4.77231 12.3793 4.30536 13.1732 4.04208 14.0445L3.94663 14.3709C3.85864 14.7025 3.79017 15.0392 3.74158 15.379L2.49716 21.4775C2.26138 21.4959 2.03936 21.5973 1.86943 21.7642C1.6995 21.9311 1.59235 22.1529 1.56648 22.3914C1.54062 22.6299 1.59766 22.8701 1.72776 23.0705C1.85786 23.2709 2.05284 23.4188 2.27902 23.4888C2.50521 23.5588 2.74838 23.5465 2.96653 23.4539C3.18469 23.3613 3.36412 23.1943 3.47384 22.9817C3.58355 22.7692 3.61665 22.5244 3.56742 22.2897C3.51819 22.055 3.38972 21.8451 3.20421 21.6963L4.2648 16.5449L4.58651 16.4552C4.52144 17.3596 4.52972 18.2678 4.61126 19.1708L4.83045 27.1778C4.61641 27.2793 4.44398 27.4534 4.3429 27.6701C4.24182 27.8868 4.21843 28.1325 4.27676 28.3648C4.33509 28.5971 4.47149 28.8015 4.66243 28.9427C4.85336 29.0838 5.08687 29.153 5.32267 29.1382C5.55848 29.1234 5.78179 29.0255 5.95411 28.8615C6.12643 28.6975 6.23694 28.4776 6.26659 28.2398C6.29624 28.0019 6.24316 27.7611 6.11652 27.5587C5.98987 27.3563 5.7976 27.2051 5.57286 27.1312L5.42438 21.6569C5.47387 21.6246 5.92639 21.3232 6.01477 21.2551C6.67234 22.69 6.65819 23.2066 7.40768 24.0461L7.83191 32.1678C7.62075 32.2776 7.454 32.4587 7.36045 32.68C7.2669 32.9012 7.25244 33.1487 7.31955 33.3796C7.38666 33.6105 7.53114 33.8104 7.72803 33.9447C7.92492 34.0791 8.16186 34.1394 8.39792 34.1153C8.63399 34.0913 8.85436 33.9843 9.02098 33.8129C9.18759 33.6415 9.28999 33.4165 9.31049 33.1766C9.33098 32.9368 9.26829 32.6972 9.13324 32.4992C8.99818 32.3013 8.79925 32.1574 8.57079 32.0925L8.19605 24.7743V23.8846C10.1475 26.1447 10.3172 26.6505 12.5621 28.0065L12.6434 35.0198C12.4286 35.1222 12.2558 35.2975 12.1548 35.5155C12.0539 35.7334 12.0311 35.9803 12.0905 36.2135C12.1499 36.4467 12.2877 36.6515 12.4802 36.7925C12.6726 36.9335 12.9075 37.0019 13.1443 36.9858C13.3811 36.9697 13.605 36.8701 13.7771 36.7043C13.9493 36.5386 14.059 36.3169 14.0872 36.0778C14.1154 35.8387 14.0604 35.597 13.9317 35.3947C13.803 35.1923 13.6087 35.0419 13.3823 34.9696L13.3045 28.2468L13.3328 26.2846C15.0583 27.0894 16.8506 27.7377 18.6888 28.2217L20.1347 35.0054C20.0364 35.1009 19.9581 35.2156 19.9046 35.3426C19.8512 35.4696 19.8236 35.6063 19.8236 35.7444C19.8229 35.9488 19.882 36.1487 19.9932 36.319C20.1045 36.4893 20.2631 36.6223 20.4489 36.7011C20.6347 36.78 20.8393 36.8012 21.0369 36.762C21.2346 36.7228 21.4163 36.6251 21.5592 36.4811C21.7021 36.3371 21.7997 36.1534 21.8397 35.9531C21.8797 35.7528 21.8602 35.545 21.7838 35.3559C21.7074 35.1669 21.5774 35.0051 21.4104 34.891C21.2433 34.7769 21.0467 34.7156 20.8453 34.7149L19.0777 26.489L19.0317 25.5635C20.1913 25.8254 22.5458 25.3483 23.9246 24.6774L29.178 29.8396C29.1303 29.9606 29.1051 30.0896 29.1038 30.2199C29.103 30.444 29.1742 30.6623 29.3064 30.8418C29.4386 31.0213 29.6247 31.1523 29.8368 31.2151C30.0488 31.2778 30.2752 31.2689 30.4818 31.1897C30.6884 31.1105 30.864 30.9653 30.9821 30.776C31.1003 30.5866 31.1546 30.3634 31.1368 30.1401C31.119 29.9167 31.0301 29.7052 30.8835 29.5376C30.737 29.3699 30.5406 29.2552 30.3242 29.2107C30.1077 29.1662 29.8829 29.1943 29.6835 29.2908L24.6069 24.2936L23.4968 23.2174L22.9347 22.6685C23.7973 21.951 24.6069 21.2802 25.3599 20.5484L23.3978 20.5304Z" fill="white"/>
<path d="M17.1215 16.093L19.1083 16.7028C19.0015 17.2217 18.7856 17.7112 18.4755 18.1378C18.1987 18.5104 17.834 18.8065 17.4149 18.9987C16.8992 19.2065 16.3468 19.3042 15.7922 19.2857C15.1229 19.3074 14.4566 19.1851 13.8372 18.927C13.2882 18.6496 12.8319 18.2141 12.5256 17.675C12.136 16.9842 11.9461 16.1959 11.9776 15.4006C11.9776 14.1666 12.2993 13.2231 12.9463 12.5594C13.5932 11.8958 14.5054 11.5657 15.6861 11.5657C16.4538 11.523 17.2157 11.7222 17.8674 12.1361C18.435 12.5747 18.8479 13.1874 19.0447 13.8832L17.0331 14.3352C16.9844 14.1584 16.9093 13.9902 16.8104 13.8365C16.6894 13.6665 16.5308 13.5276 16.3472 13.4312C16.1544 13.337 15.9425 13.2903 15.7286 13.2949C15.4948 13.2851 15.2625 13.338 15.0553 13.4482C14.848 13.5584 14.673 13.722 14.5478 13.9226C14.3104 14.3723 14.2038 14.8811 14.2402 15.3899C14.2402 16.215 14.3604 16.7782 14.5937 17.0867C14.7226 17.2423 14.8858 17.365 15.07 17.4448C15.2543 17.5245 15.4544 17.5592 15.6543 17.5459C15.8339 17.5607 16.0145 17.5364 16.184 17.4745C16.3535 17.4126 16.508 17.3146 16.6371 17.1871C16.8906 16.872 17.0576 16.4946 17.1215 16.093Z" fill="white"/>
<path d="M25.9597 16.9574H21.8871C21.9013 17.2261 21.9936 17.4844 22.1522 17.7C22.2455 17.8152 22.3633 17.9073 22.4968 17.9695C22.6303 18.0316 22.776 18.0621 22.9229 18.0587C23.1207 18.0538 23.314 17.9983 23.485 17.8973C23.6234 17.8005 23.7432 17.6789 23.8385 17.5386L25.8466 17.7251C25.5924 18.2123 25.2076 18.6165 24.7365 18.891C24.1503 19.1605 23.509 19.2835 22.8663 19.2497C22.2973 19.2756 21.7297 19.1727 21.2048 18.9484C20.787 18.731 20.4388 18.3976 20.2007 17.987C19.9284 17.5195 19.7912 16.9837 19.8048 16.4408C19.7893 16.0617 19.8524 15.6834 19.9901 15.3306C20.1277 14.9778 20.3368 14.6582 20.6038 14.3924C20.902 14.1213 21.2501 13.9127 21.6281 13.7785C22.0061 13.6443 22.4065 13.5872 22.8062 13.6104C23.4268 13.5834 24.0447 13.7063 24.6092 13.9691C25.0416 14.1921 25.394 14.5472 25.6168 14.9844C25.87 15.5248 25.9913 16.1191 25.9703 16.7171L25.9597 16.9574ZM23.8845 15.9673C23.8788 15.6518 23.7664 15.3479 23.5663 15.1063C23.4769 15.0191 23.3709 14.9512 23.2548 14.9068C23.1388 14.8624 23.015 14.8424 22.8911 14.848C22.7399 14.8441 22.59 14.8777 22.4545 14.9458C22.3189 15.0139 22.2018 15.1146 22.1133 15.2391C21.9738 15.4528 21.8932 15.7005 21.88 15.9565L23.8845 15.9673Z" fill="white"/>
<path d="M26.9176 21.1871V13.7469H28.8267V14.5433C29.0169 14.273 29.257 14.0427 29.5337 13.8653C29.848 13.6968 30.2001 13.614 30.5554 13.625C30.8771 13.6109 31.1971 13.6795 31.4857 13.8244C31.7743 13.9692 32.0222 14.1857 32.2064 14.4536C32.6099 15.0551 32.8142 15.7713 32.7897 16.4984C32.8414 17.2406 32.614 17.9751 32.1534 18.554C31.953 18.7853 31.7052 18.9694 31.4273 19.0933C31.1495 19.2173 30.8483 19.2781 30.5448 19.2715C30.2504 19.2757 29.9582 19.2195 29.6857 19.1064C29.4198 18.9976 29.179 18.8339 28.9787 18.6257V21.1871H26.9176ZM28.961 16.4518C28.9357 16.7905 29.0297 17.1274 29.2261 17.4025C29.3079 17.502 29.4107 17.5815 29.5271 17.635C29.6434 17.6884 29.7702 17.7144 29.8979 17.711C30.0126 17.7124 30.1261 17.6865 30.2292 17.6354C30.3324 17.5843 30.4223 17.5095 30.4918 17.4168C30.6805 17.1161 30.7651 16.7601 30.7322 16.4052C30.7594 16.0661 30.6707 15.7279 30.4812 15.4473C30.4104 15.3516 30.3186 15.2738 30.213 15.2203C30.1075 15.1667 29.9911 15.1388 29.8731 15.1388C29.7484 15.137 29.6249 15.1642 29.5122 15.2183C29.3994 15.2724 29.3004 15.352 29.2226 15.4509C29.0225 15.7458 28.93 16.1023 28.961 16.459V16.4518Z" fill="white"/>
<path d="M37.7568 16.2723C38.1135 16.2922 38.4528 16.4352 38.7184 16.6777C38.8385 16.7978 38.9322 16.9424 38.9931 17.1019C39.054 17.2615 39.0809 17.4323 39.0719 17.6032C39.0871 17.8227 39.0494 18.0426 38.9619 18.2439C38.8744 18.4452 38.7399 18.6218 38.5699 18.7583C38.2376 19.013 37.6366 19.1422 36.774 19.1422H33.7372V13.7612H37.0144C37.4938 13.7342 37.9696 13.8596 38.3755 14.1199C38.5262 14.2296 38.6477 14.3755 38.7291 14.5445C38.8106 14.7135 38.8494 14.9005 38.8421 15.0885C38.8438 15.3728 38.7345 15.6462 38.5381 15.849C38.3225 16.0696 38.0467 16.2196 37.7462 16.2795L37.7568 16.2723ZM35.7841 15.806H36.3003C36.6538 15.806 36.8093 15.6445 36.8093 15.3288C36.8093 15.0741 36.629 14.945 36.2684 14.945H35.7841V15.806ZM35.7841 17.8723H36.4558C36.5994 17.8791 36.7411 17.8374 36.8588 17.7539C36.9139 17.7135 36.9573 17.659 36.9846 17.5959C37.012 17.5329 37.0222 17.4636 37.0144 17.3951C37.0144 17.0723 36.827 16.9073 36.4558 16.9073H35.7841V17.8723Z" fill="white"/>
<path d="M39.8038 16.4588C39.7922 16.0803 39.8592 15.7036 40.0005 15.3532C40.1418 15.0027 40.3542 14.6864 40.624 14.4248C40.9237 14.1494 41.2742 13.937 41.6553 13.7997C42.0363 13.6624 42.4404 13.6029 42.8441 13.6248C43.9094 13.6248 44.7131 13.9381 45.2552 14.5647C45.7039 15.1223 45.9356 15.8275 45.9063 16.5468C45.877 17.2662 45.5887 17.9496 45.0961 18.4677C44.7916 18.7443 44.4361 18.957 44.0502 19.0937C43.6644 19.2304 43.2557 19.2883 42.8477 19.2641C42.1022 19.2974 41.3689 19.0638 40.776 18.604C40.4618 18.3468 40.2106 18.0193 40.0419 17.6471C39.8732 17.275 39.7917 16.8682 39.8038 16.4588ZM41.8472 16.4588C41.8149 16.8405 41.9163 17.2216 42.1335 17.535C42.2192 17.6472 42.329 17.7378 42.4547 17.8C42.5804 17.8622 42.7185 17.8943 42.8583 17.8937C42.9935 17.8952 43.1274 17.8656 43.2498 17.8072C43.3723 17.7488 43.4801 17.6631 43.5653 17.5565C43.7775 17.2409 43.8773 16.8613 43.8481 16.4803C43.8754 16.1096 43.7755 15.7408 43.5653 15.4364C43.4828 15.3252 43.376 15.235 43.2533 15.1727C43.1307 15.1105 42.9954 15.0779 42.8583 15.0777C42.7168 15.0765 42.577 15.1083 42.4496 15.1704C42.3221 15.2326 42.2104 15.3236 42.1229 15.4364C41.9212 15.7351 41.8241 16.0939 41.8472 16.4552V16.4588Z" fill="white"/>
<path d="M52.499 19.142H50.4627V15.2569H48.9107V19.142H46.8744V13.761H52.499V19.142Z" fill="white"/>
<path d="M53.7399 21.1871V13.7469H55.656V14.5433C55.8462 14.273 56.0863 14.0427 56.3631 13.8653C56.6669 13.7028 57.006 13.6201 57.3494 13.625C57.6711 13.6109 57.9911 13.6795 58.2797 13.8244C58.5683 13.9692 58.8162 14.1857 59.0004 14.4536C59.4039 15.0551 59.6082 15.7713 59.5837 16.4984C59.6354 17.2406 59.408 17.9751 58.9474 18.554C58.747 18.7853 58.4992 18.9694 58.2213 19.0933C57.9434 19.2173 57.6422 19.2781 57.3388 19.2715C57.0444 19.276 56.7521 19.2198 56.4797 19.1064C56.2138 18.9976 55.973 18.8339 55.7727 18.6257V21.1871H53.7399ZM55.7833 16.4518C55.758 16.7905 55.8519 17.1274 56.0484 17.4025C56.1301 17.502 56.233 17.5815 56.3494 17.635C56.4657 17.6884 56.5925 17.7144 56.7201 17.711C56.8349 17.7124 56.9484 17.6865 57.0515 17.6354C57.1546 17.5843 57.2445 17.5095 57.3141 17.4168C57.5028 17.1161 57.5874 16.7601 57.5544 16.4052C57.5825 16.0649 57.4938 15.7253 57.3034 15.4438C57.2326 15.348 57.1408 15.2702 57.0353 15.2167C56.9298 15.1631 56.8134 15.1352 56.6954 15.1352C56.5702 15.1337 56.4463 15.1609 56.333 15.215C56.2197 15.269 56.12 15.3485 56.0413 15.4473C55.8417 15.7437 55.7504 16.1015 55.7833 16.459V16.4518Z" fill="white"/>
<path d="M66.5059 19.142H64.5792V16.4874L62.5782 19.142H60.6373V13.761H62.5676V16.4515L64.5863 13.761H66.5059V19.142Z" fill="white"/>
<path d="M71.8158 16.2724C72.1736 16.2923 72.514 16.4353 72.7809 16.6778C72.9005 16.7983 72.9938 16.943 73.0547 17.1024C73.1156 17.2619 73.1428 17.4325 73.1345 17.6033C73.1483 17.8233 73.1091 18.0434 73.0204 18.2447C72.9317 18.4459 72.7962 18.6222 72.6254 18.7585C72.2895 19.0132 71.6921 19.1423 70.8259 19.1423H67.7926V13.7613H71.0734C71.5517 13.7339 72.0265 13.8593 72.4309 14.12C72.582 14.2295 72.7041 14.3753 72.7861 14.5443C72.8682 14.7133 72.9077 14.9003 72.9011 15.0886C72.8996 15.3541 72.8014 15.6096 72.6254 15.8061C72.4109 16.0282 72.1345 16.1784 71.8335 16.2365L71.8158 16.2724ZM69.8466 15.8061H70.3592C70.7128 15.8061 70.8719 15.6446 70.8719 15.3289C70.8719 15.0742 70.6916 14.9451 70.331 14.9451H69.8466V15.8061ZM69.8466 17.8724H70.5042C70.6488 17.8792 70.7917 17.8376 70.9108 17.754C70.9652 17.7131 71.0082 17.6585 71.0355 17.5956C71.0628 17.5327 71.0734 17.4636 71.0663 17.3953C71.0663 17.0724 70.8789 16.9074 70.5042 16.9074H69.836L69.8466 17.8724Z" fill="white"/>
<path d="M73.8665 16.4587C73.8549 16.0802 73.9219 15.7035 74.0633 15.3531C74.2046 15.0026 74.417 14.6863 74.6867 14.4246C74.986 14.1496 75.3359 13.9373 75.7163 13.8C76.0967 13.6627 76.5001 13.6031 76.9034 13.6247C77.9687 13.6247 78.7735 13.938 79.318 14.5646C79.7667 15.1222 79.9984 15.8274 79.969 16.5467C79.9397 17.2661 79.6515 17.9495 79.1589 18.4676C78.8537 18.7443 78.4976 18.9571 78.1112 19.0937C77.7247 19.2304 77.3154 19.2883 76.9069 19.264C76.1614 19.2973 75.4281 19.0636 74.8352 18.6039C74.5215 18.3465 74.2707 18.0189 74.1027 17.6467C73.9346 17.2745 73.8538 16.8679 73.8665 16.4587ZM75.9064 16.4587C75.8733 16.841 75.9761 17.2228 76.1963 17.5349C76.2852 17.6414 76.396 17.7271 76.5208 17.7858C76.6457 17.8445 76.7817 17.8749 76.9193 17.8749C77.0569 17.8749 77.1928 17.8445 77.3177 17.7858C77.4425 17.7271 77.5533 17.6414 77.6422 17.5349C77.8529 17.2185 77.9525 16.8395 77.9251 16.4587C77.9531 16.0874 77.8517 15.7179 77.6387 15.4148C77.5566 15.3032 77.4498 15.2126 77.3271 15.1503C77.2043 15.088 77.0689 15.0557 76.9316 15.056C76.7897 15.0549 76.6494 15.0866 76.5213 15.1487C76.3933 15.2109 76.2809 15.3019 76.1928 15.4148C75.984 15.7186 75.883 16.0854 75.9064 16.4551V16.4587Z" fill="white"/>
<path d="M86.9998 20.6812H85.5857V19.1422H81.8171V20.6812H80.403V17.6319H80.9191C81.3272 16.8066 81.5206 15.8891 81.4812 14.9665V13.7468H86.4306V17.6319H86.9892L86.9998 20.6812ZM84.3978 17.6319V15.2571H83.4221V15.3181C83.4133 16.1139 83.2499 16.9002 82.9413 17.6319H84.3978Z" fill="white"/>
</svg>
